{
.appVersion = "1342";
copyright = "Copyright  2010 by Robert E. Leuschke -- This font is not Shareware and may not be copied, sold, distributed or shared without permission from Gideon, Inc. All rights reserved.";
customParameters = (
{
name = trademark;
value = "AlluraPro-Regular is a trademark of Robert E. Leuschke.";
},
{
name = licenseURL;
value = "http://www.typesetit.com/license.html";
},
{
name = license;

glyphs = (
{
glyphname = A;
layers = (
{
hints = (
{
horizontal = 1;
place = "{-81, 37}";
type = Stem;
},
{
horizontal = 1;
place = "{-13, 20}";
type = Stem;
},
{
horizontal = 1;
place = "{227, 17}";
type = Stem;
},
{
horizontal = 1;
place = "{266, 45}";
type = Stem;
},
{
horizontal = 1;
place = "{279, -20}";
target = down;
type = TopGhost;
},
{
horizontal = 1;
place = "{572, -20}";
target = down;
type = TopGhost;
},
{
horizontal = 1;
place = "{586, -20}";
target = down;
type = TopGhost;
},
{
place = "{11, 20}";
type = Stem;
},
{
place = "{134, 22}";
type = Stem;
},
{
place = "{622, 44}";
type = Stem;
}
);
layerId = "BDD3FA2A-F197-48C4-9241-A354346F8EDC";
paths = (
{
closed = 1;
nodes = (
"11 -50 OFFCURVE",
"74 -81 OFFCURVE",
"139 -81 CURVE SMOOTH",
"194 -81 OFFCURVE",
"248 -61 OFFCURVE",
"299 -23 CURVE SMOOTH",
"367 27 OFFCURVE",
"447 115 OFFCURVE",
"525 210 CURVE",
"564 205 OFFCURVE",
"603 200 OFFCURVE",
"641 196 CURVE",
"632 162 OFFCURVE",
"626 128 OFFCURVE",
"623 96 CURVE SMOOTH",
"617 34 OFFCURVE",
"639 -12 OFFCURVE",
"681 -12 CURVE SMOOTH",
"700 -12 OFFCURVE",
"739 -7 OFFCURVE",
"776 22 CURVE SMOOTH",
"845 77 OFFCURVE",
"889 142 OFFCURVE",
"892 149 CURVE SMOOTH",
"897 160 OFFCURVE",
"885 161 OFFCURVE",
"881 157 CURVE",
"851 118 OFFCURVE",
"749 7 OFFCURVE",
"696 7 CURVE SMOOTH",
"674 7 OFFCURVE",
"663 28 OFFCURVE",
"667 81 CURVE SMOOTH",
"671 118 OFFCURVE",
"677 156 OFFCURVE",
"687 193 CURVE",
"689 193 OFFCURVE",
"691 193 OFFCURVE",
"693 193 CURVE SMOOTH",
"705 192 LINE SMOOTH",
"707 192 OFFCURVE",
"709 192 OFFCURVE",
"711 192 CURVE SMOOTH",
"739 190 OFFCURVE",
"767 193 OFFCURVE",
"788 201 CURVE SMOOTH",
"805 207 OFFCURVE",
"819 217 OFFCURVE",
"826 229 CURVE SMOOTH",
"832 239 OFFCURVE",
"821 250 OFFCURVE",
"815 240 CURVE SMOOTH",
"810 232 OFFCURVE",
"799 223 OFFCURVE",
"786 218 CURVE SMOOTH",
"766 210 OFFCURVE",
"741 207 OFFCURVE",
"715 209 CURVE SMOOTH",
"708 209 OFFCURVE",
"699 210 OFFCURVE",
"691 210 CURVE",
"693 217 LINE SMOOTH",
"726 340 OFFCURVE",
"772 456 OFFCURVE",
"838 566 CURVE SMOOTH",
"841 571 OFFCURVE",
"843 575 OFFCURVE",
"843 577 CURVE SMOOTH",
"843 583 OFFCURVE",
"839 587 OFFCURVE",
"833 587 CURVE SMOOTH",
"825 587 OFFCURVE",
"797 581 OFFCURVE",
"783 573 CURVE",
"782 573 OFFCURVE",
"781 572 OFFCURVE",
"780 571 CURVE SMOOTH",
"778 570 OFFCURVE",
"777 569 OFFCURVE",
"776 567 CURVE",
"715 489 OFFCURVE",
"612 357 OFFCURVE",
"510 239 CURVE",
"449 251 OFFCURVE",
"387 265 OFFCURVE",
"329 271 CURVE SMOOTH",
"306 274 OFFCURVE",
"282 276 OFFCURVE",
"259 276 CURVE SMOOTH",
"188 276 OFFCURVE",
"127 255 OFFCURVE",
"120 165 CURVE SMOOTH",
"117 142 OFFCURVE",
"121 118 OFFCURVE",
"129 105 CURVE SMOOTH",
"132 100 OFFCURVE",
"136 98 OFFCURVE",
"140 98 CURVE SMOOTH",
"146 98 OFFCURVE",
"151 105 OFFCURVE",
"146 113 CURVE SMOOTH",
"140 123 OFFCURVE",
"140 137 OFFCURVE",
"145 150 CURVE SMOOTH",
"173 226 OFFCURVE",
"256 234 OFFCURVE",
"325 231 CURVE SMOOTH",
"379 228 OFFCURVE",
"434 221 OFFCURVE",
"489 215 CURVE",
"411 127 OFFCURVE",
"336 49 OFFCURVE",
"278 10 CURVE SMOOTH",
"228 -24 OFFCURVE",
"171 -43 OFFCURVE",
"120 -43 CURVE SMOOTH",
"95 -43 OFFCURVE",
"74 -38 OFFCURVE",
"60 -28 CURVE SMOOTH",
"40 -16 OFFCURVE",
"31 0 OFFCURVE",
"31 23 CURVE SMOOTH",
"31 41 OFFCURVE",
"27 47 OFFCURVE",
"23 47 CURVE SMOOTH",
"18 47 OFFCURVE",
"11 35 OFFCURVE",
"11 23 CURVE SMOOTH"
);
},
{
closed = 1;
nodes = (
"734 478 LINE SMOOTH",
"703 403 OFFCURVE",
"669 306 OFFCURVE",
"645 215 CURVE",
"612 220 OFFCURVE",
"578 226 OFFCURVE",
"544 233 CURVE",
"614 320 OFFCURVE",
"682 412 OFFCURVE",
"739 490 CURVE"
);
}
);
width = 828;
}
);
note = A;
unicode = 0041;
},
{
glyphname = Aacute;
layers = (
{
hints = (
{
horizontal = 1;
place = "{-81, 37}";
type = Stem;
},
{
horizontal = 1;
place = "{-13, 20}";
type = Stem;
},
{
horizontal = 1;
place = "{227, 17}";
type = Stem;
},
{
horizontal = 1;
place = "{266, 45}";
type = Stem;
},
{
horizontal = 1;
place = "{279, -20}";
target = down;
type = TopGhost;
},
{
horizontal = 1;
place = "{287, 27}";
type = Stem;
},
{
horizontal = 1;
place = "{572, -20}";
target = down;
type = TopGhost;
},
{
horizontal = 1;
place = "{586, -20}";
target = down;
type = TopGhost;
},
{
horizontal = 1;
place = "{626, -20}";
target = down;
type = TopGhost;
},
{
place = "{11, 20}";
type = Stem;
},
{
place = "{134, 22}";
type = Stem;
},
{
place = "{622, 44}";
type = Stem;
},
{
place = "{669, 35}";
type = Stem;
},
{
place = "{869, 34}";
type = Stem;
}
);
layerId = "BDD3FA2A-F197-48C4-9241-A354346F8EDC";
paths = (
{
closed = 1;
nodes = (
"987 719 LINE",
"994 725 OFFCURVE",
"994 742 OFFCURVE",
"981 750 CURVE",
"976 752 OFFCURVE",
"964 759 OFFCURVE",
"953 754 CURVE",
"935 730 OFFCURVE",
"905 714 OFFCURVE",
"880 692 CURVE SMOOTH",
"869 683 OFFCURVE",
"827 656 OFFCURVE",
"826 654 CURVE",
"822 650 OFFCURVE",
"817 643 OFFCURVE",
"830 643 CURVE SMOOTH",
"847 644 OFFCURVE",
"965 700 OFFCURVE",
"986 717 CURVE"
);
},
{
closed = 1;
nodes = (
"11 -50 OFFCURVE",
"74 -81 OFFCURVE",
"139 -81 CURVE SMOOTH",
"194 -81 OFFCURVE",
"248 -61 OFFCURVE",
"299 -23 CURVE SMOOTH",
"367 27 OFFCURVE",
"447 115 OFFCURVE",
"525 210 CURVE",
"564 205 OFFCURVE",
"603 200 OFFCURVE",
"641 196 CURVE",
"632 162 OFFCURVE",
"626 128 OFFCURVE",
"623 96 CURVE SMOOTH",
"617 34 OFFCURVE",
"639 -12 OFFCURVE",
"681 -12 CURVE SMOOTH",
"700 -12 OFFCURVE",
"739 -7 OFFCURVE",
"776 22 CURVE SMOOTH",
"845 77 OFFCURVE",
"889 142 OFFCURVE",
"892 149 CURVE SMOOTH",
"897 160 OFFCURVE",
"885 161 OFFCURVE",
"881 157 CURVE",
"851 118 OFFCURVE",
"749 7 OFFCURVE",
"696 7 CURVE SMOOTH",
"674 7 OFFCURVE",
"663 28 OFFCURVE",
"667 81 CURVE SMOOTH",
"671 118 OFFCURVE",
"677 156 OFFCURVE",
"687 193 CURVE",
"689 193 OFFCURVE",
"691 193 OFFCURVE",
"693 193 CURVE SMOOTH",
"705 192 LINE SMOOTH",
"707 192 OFFCURVE",
"709 192 OFFCURVE",
"711 192 CURVE SMOOTH",
"739 190 OFFCURVE",
"767 193 OFFCURVE",
"788 201 CURVE SMOOTH",
"805 207 OFFCURVE",
"819 217 OFFCURVE",
"826 229 CURVE SMOOTH",
"832 239 OFFCURVE",
"821 250 OFFCURVE",
"815 240 CURVE SMOOTH",
"810 232 OFFCURVE",
"799 223 OFFCURVE",
"786 218 CURVE SMOOTH",
"766 210 OFFCURVE",
"741 207 OFFCURVE",
"715 209 CURVE SMOOTH",
"708 209 OFFCURVE",
"699 210 OFFCURVE",
"691 210 CURVE",
"693 217 LINE SMOOTH",
"726 340 OFFCURVE",
"772 456 OFFCURVE",
"838 566 CURVE SMOOTH",
"841 571 OFFCURVE",
"843 575 OFFCURVE",
"843 577 CURVE SMOOTH",
"843 583 OFFCURVE",
"839 587 OFFCURVE",
"833 587 CURVE SMOOTH",
"825 587 OFFCURVE",
"797 581 OFFCURVE",
"783 573 CURVE",
"782 573 OFFCURVE",
"781 572 OFFCURVE",
"780 571 CURVE SMOOTH",
"778 570 OFFCURVE",
"777 569 OFFCURVE",
"776 567 CURVE",
"715 489 OFFCURVE",
"612 357 OFFCURVE",
"510 239 CURVE",
"449 251 OFFCURVE",
"387 265 OFFCURVE",
"329 271 CURVE SMOOTH",
"306 274 OFFCURVE",
"282 276 OFFCURVE",
"259 276 CURVE SMOOTH",
"188 276 OFFCURVE",
"127 255 OFFCURVE",
"120 165 CURVE SMOOTH",
"117 142 OFFCURVE",
"121 118 OFFCURVE",
"129 105 CURVE SMOOTH",
"132 100 OFFCURVE",
"136 98 OFFCURVE",
"140 98 CURVE SMOOTH",
"146 98 OFFCURVE",
"151 105 OFFCURVE",
"146 113 CURVE SMOOTH",
"140 123 OFFCURVE",
"140 137 OFFCURVE",
"145 150 CURVE SMOOTH",
"173 226 OFFCURVE",
"256 234 OFFCURVE",
"325 231 CURVE SMOOTH",
"379 228 OFFCURVE",
"434 221 OFFCURVE",
"489 215 CURVE",
"411 127 OFFCURVE",
"336 49 OFFCURVE",
"278 10 CURVE SMOOTH",
"228 -24 OFFCURVE",
"171 -43 OFFCURVE",
"120 -43 CURVE SMOOTH",
"95 -43 OFFCURVE",
"74 -38 OFFCURVE",
"60 -28 CURVE SMOOTH",
"40 -16 OFFCURVE",
"31 0 OFFCURVE",
"31 23 CURVE SMOOTH",
"31 41 OFFCURVE",
"27 47 OFFCURVE",
"23 47 CURVE SMOOTH",
"18 47 OFFCURVE",
"11 35 OFFCURVE",
"11 23 CURVE SMOOTH"
);
},
{
closed = 1;
nodes = (
"734 478 LINE SMOOTH",
"703 403 OFFCURVE",
"669 306 OFFCURVE",
"645 215 CURVE",
"612 220 OFFCURVE",
"578 226 OFFCURVE",
"544 233 CURVE",
"614 320 OFFCURVE",
"682 412 OFFCURVE",
"739 490 CURVE"
);
}
);
width = 828;
}
);
note = Aacute;
unicode = 00C1;
},
{
color = 3;
glyphname = Abreve;
lastChange = "2021-04-21 15:13:23 +0000";
layers = (
{
hints = (
{
horizontal = 1;
place = "{-81, 37}";
type = Stem;
},
{
horizontal = 1;
place = "{-13, 20}";
type = Stem;
},
{
horizontal = 1;
place = "{227, 17}";
type = Stem;
},
{
horizontal = 1;
place = "{266, 45}";
type = Stem;
},
{
horizontal = 1;
place = "{279, -20}";
target = down;
type = TopGhost;
},
{
horizontal = 1;
place = "{572, -20}";
target = down;
type = TopGhost;
},
{
horizontal = 1;
place = "{586, -20}";
target = down;
type = TopGhost;
},
{
horizontal = 1;
place = "{654, 27}";
type = Stem;
},
{
place = "{11, 20}";
type = Stem;
},
{
place = "{134, 22}";
type = Stem;
},
{
place = "{622, 44}";
type = Stem;
},
{
place = "{753, 253}";
type = Stem;
}
);
layerId = "BDD3FA2A-F197-48C4-9241-A354346F8EDC";
paths = (
{
closed = 1;
nodes = (
"961 760 OFFCURVE",
"960 761 OFFCURVE",
"959 761 CURVE SMOOTH",
"958 761 OFFCURVE",
"956 761 OFFCURVE",
"956 760 CURVE",
"938 706 OFFCURVE",
"900 683 OFFCURVE",
"866 683 CURVE SMOOTH",
"831 683 OFFCURVE",
"803 706 OFFCURVE",
"803 749 CURVE SMOOTH",
"803 755 OFFCURVE",
"795 760 OFFCURVE",
"789 760 CURVE SMOOTH",
"781 760 OFFCURVE",
"775 749 OFFCURVE",
"775 730 CURVE SMOOTH",
"775 683 OFFCURVE",
"808 662 OFFCURVE",
"847 662 CURVE SMOOTH",
"894 662 OFFCURVE",
"953 694 OFFCURVE",
"966 753 CURVE SMOOTH",
"966 754 OFFCURVE",
"965 759 OFFCURVE",
"961 760 CURVE"
);
},
{
closed = 1;
nodes = (
"11 -50 OFFCURVE",
"74 -81 OFFCURVE",
"139 -81 CURVE SMOOTH",
"194 -81 OFFCURVE",
"248 -61 OFFCURVE",
"299 -23 CURVE SMOOTH",
"367 27 OFFCURVE",
"447 115 OFFCURVE",
"525 210 CURVE",
"564 205 OFFCURVE",
"603 200 OFFCURVE",
"641 196 CURVE",
"632 162 OFFCURVE",
"626 128 OFFCURVE",
"623 96 CURVE SMOOTH",
"617 34 OFFCURVE",
"639 -12 OFFCURVE",
"681 -12 CURVE SMOOTH",
"700 -12 OFFCURVE",
"739 -7 OFFCURVE",
"776 22 CURVE SMOOTH",
"845 77 OFFCURVE",
"889 142 OFFCURVE",
"892 149 CURVE SMOOTH",
"897 160 OFFCURVE",
"885 161 OFFCURVE",
"881 157 CURVE",
"851 118 OFFCURVE",
"749 7 OFFCURVE",
"696 7 CURVE SMOOTH",
"674 7 OFFCURVE",
"663 28 OFFCURVE",
"667 81 CURVE SMOOTH",
"671 118 OFFCURVE",
"677 156 OFFCURVE",
"687 193 CURVE",
"689 193 OFFCURVE",
"691 193 OFFCURVE",
"693 193 CURVE SMOOTH",
"705 192 LINE SMOOTH",
"707 192 OFFCURVE",
"709 192 OFFCURVE",
"711 192 CURVE SMOOTH",
"739 190 OFFCURVE",
"767 193 OFFCURVE",
"788 201 CURVE SMOOTH",
"805 207 OFFCURVE",
"819 217 OFFCURVE",
"826 229 CURVE SMOOTH",
"832 239 OFFCURVE",
"821 250 OFFCURVE",
"815 240 CURVE SMOOTH",
"810 232 OFFCURVE",
"799 223 OFFCURVE",
"786 218 CURVE SMOOTH",
"766 210 OFFCURVE",
"741 207 OFFCURVE",
"715 209 CURVE SMOOTH",
"708 209 OFFCURVE",
"699 210 OFFCURVE",
"691 210 CURVE",
"693 217 LINE SMOOTH",
"726 340 OFFCURVE",
"772 456 OFFCURVE",
"838 566 CURVE SMOOTH",
"841 571 OFFCURVE",
"843 575 OFFCURVE",
"843 577 CURVE SMOOTH",
"843 583 OFFCURVE",
"839 587 OFFCURVE",
"833 587 CURVE SMOOTH",
"825 587 OFFCURVE",
"797 581 OFFCURVE",
"783 573 CURVE",
"782 573 OFFCURVE",
"781 572 OFFCURVE",
"780 571 CURVE SMOOTH",
"778 570 OFFCURVE",
"777 569 OFFCURVE",
"776 567 CURVE",
"715 489 OFFCURVE",
"612 357 OFFCURVE",
"510 239 CURVE",
"449 251 OFFCURVE",
"387 265 OFFCURVE",
"329 271 CURVE SMOOTH",
"306 274 OFFCURVE",
"282 276 OFFCURVE",
"259 276 CURVE SMOOTH",
"188 276 OFFCURVE",
"127 255 OFFCURVE",
"120 165 CURVE SMOOTH",
"117 142 OFFCURVE",
"121 118 OFFCURVE",
"129 105 CURVE SMOOTH",
"132 100 OFFCURVE",
"136 98 OFFCURVE",
"140 98 CURVE SMOOTH",
"146 98 OFFCURVE",
"151 105 OFFCURVE",
"146 113 CURVE SMOOTH",
"140 123 OFFCURVE",
"140 137 OFFCURVE",
"145 150 CURVE SMOOTH",
"173 226 OFFCURVE",
"256 234 OFFCURVE",
"325 231 CURVE SMOOTH",
"379 228 OFFCURVE",
"434 221 OFFCURVE",
"489 215 CURVE",
"411 127 OFFCURVE",
"336 49 OFFCURVE",
"278 10 CURVE SMOOTH",
"228 -24 OFFCURVE",
"171 -43 OFFCURVE",
"120 -43 CURVE SMOOTH",
"95 -43 OFFCURVE",
"74 -38 OFFCURVE",
"60 -28 CURVE SMOOTH",
"40 -16 OFFCURVE",
"31 0 OFFCURVE",
"31 23 CURVE SMOOTH",
"31 41 OFFCURVE",
"27 47 OFFCURVE",
"23 47 CURVE SMOOTH",
"18 47 OFFCURVE",
"11 35 OFFCURVE",
"11 23 CURVE SMOOTH"
);
},
{
closed = 1;
nodes = (
"734 478 LINE SMOOTH",
"703 403 OFFCURVE",
"669 306 OFFCURVE",
"645 215 CURVE",
"612 220 OFFCURVE",
"578 226 OFFCURVE",
"544 233 CURVE",
"614 320 OFFCURVE",
"682 412 OFFCURVE",
"739 490 CURVE"
);
}
);
width = 828;
}
);
note = Abreve;
unicode = 0102;
},
{
glyphname = Acircumflex;
layers = (
{
hints = (
{
horizontal = 1;
place = "{-81, 37}";
type = Stem;
},
{
horizontal = 1;
place = "{-13, 20}";
type = Stem;
},
{
horizontal = 1;
place = "{227, 17}";
type = Stem;
},
{
horizontal = 1;
place = "{266, 45}";
type = Stem;
},
{
horizontal = 1;
place = "{279, -20}";
target = down;
type = TopGhost;
},
{
horizontal = 1;
place = "{572, -20}";
target = down;
type = TopGhost;
},
{
horizontal = 1;
place = "{586, -20}";
target = down;
type = TopGhost;
},
{
horizontal = 1;
place = "{630, 110}";
type = Stem;
},
{
place = "{11, 20}";
type = Stem;
},
{
place = "{134, 22}";
type = Stem;
},
{
place = "{622, 44}";
type = Stem;
},
{
place = "{737, 200}";
type = Stem;
}
);
layerId = "BDD3FA2A-F197-48C4-9241-A354346F8EDC";
paths = (
{
closed = 1;
nodes = (
"916 676 OFFCURVE",
"874 732 OFFCURVE",
"855 739 CURVE",
"836 738 OFFCURVE",
"764 667 OFFCURVE",
"747 654 CURVE",
"742 649 OFFCURVE",
"736 641 OFFCURVE",
"736 636 CURVE SMOOTH",
"736 634 OFFCURVE",
"737 632 OFFCURVE",
"739 632 CURVE SMOOTH",
"760 632 OFFCURVE",
"813 686 OFFCURVE",
"843 705 CURVE",
"865 681 OFFCURVE",
"936 630 OFFCURVE",
"932 630 CURVE",
"936 630 OFFCURVE",
"937 633 OFFCURVE",
"937 637 CURVE SMOOTH",
"937 641 OFFCURVE",
"936 645 OFFCURVE",
"933 649 CURVE SMOOTH"
);
},
{
closed = 1;
nodes = (
"11 -50 OFFCURVE",
"74 -81 OFFCURVE",
"139 -81 CURVE SMOOTH",
"194 -81 OFFCURVE",
"248 -61 OFFCURVE",
"299 -23 CURVE SMOOTH",
"367 27 OFFCURVE",
"447 115 OFFCURVE",
"525 210 CURVE",
"564 205 OFFCURVE",
"603 200 OFFCURVE",
"641 196 CURVE",
"632 162 OFFCURVE",
"626 128 OFFCURVE",
"623 96 CURVE SMOOTH",
"617 34 OFFCURVE",
"639 -12 OFFCURVE",
"681 -12 CURVE SMOOTH",
"700 -12 OFFCURVE",
"739 -7 OFFCURVE",
"776 22 CURVE SMOOTH",
"845 77 OFFCURVE",
"889 142 OFFCURVE",
"892 149 CURVE SMOOTH",
"897 160 OFFCURVE",
"885 161 OFFCURVE",
"881 157 CURVE",
"851 118 OFFCURVE",
"749 7 OFFCURVE",
"696 7 CURVE SMOOTH",
"674 7 OFFCURVE",
"663 28 OFFCURVE",
"667 81 CURVE SMOOTH",
"671 118 OFFCURVE",
"677 156 OFFCURVE",
"687 193 CURVE",
"689 193 OFFCURVE",
"691 193 OFFCURVE",
"693 193 CURVE SMOOTH",
"705 192 LINE SMOOTH",
"707 192 OFFCURVE",
"709 192 OFFCURVE",
"711 192 CURVE SMOOTH",
"739 190 OFFCURVE",
"767 193 OFFCURVE",
"788 201 CURVE SMOOTH",
"805 207 OFFCURVE",
"819 217 OFFCURVE",
"826 229 CURVE SMOOTH",
"832 239 OFFCURVE",
"821 250 OFFCURVE",
"815 240 CURVE SMOOTH",
"810 232 OFFCURVE",
"799 223 OFFCURVE",
"786 218 CURVE SMOOTH",
"766 210 OFFCURVE",
"741 207 OFFCURVE",
"715 209 CURVE SMOOTH",
"708 209 OFFCURVE",
"699 210 OFFCURVE",
"691 210 CURVE",
"693 217 LINE SMOOTH",
"726 340 OFFCURVE",
"772 456 OFFCURVE",
"838 566 CURVE SMOOTH",
"841 571 OFFCURVE",
"843 575 OFFCURVE",
"843 577 CURVE SMOOTH",
"843 583 OFFCURVE",
"839 587 OFFCURVE",
"833 587 CURVE SMOOTH",
"825 587 OFFCURVE",
"797 581 OFFCURVE",
"783 573 CURVE",
"782 573 OFFCURVE",
"781 572 OFFCURVE",
"780 571 CURVE SMOOTH",
"778 570 OFFCURVE",
"777 569 OFFCURVE",
"776 567 CURVE",
"715 489 OFFCURVE",
"612 357 OFFCURVE",
"510 239 CURVE",
"449 251 OFFCURVE",
"387 265 OFFCURVE",
"329 271 CURVE SMOOTH",
"306 274 OFFCURVE",
"282 276 OFFCURVE",
"259 276 CURVE SMOOTH",
"188 276 OFFCURVE",
"127 255 OFFCURVE",
"120 165 CURVE SMOOTH",
"117 142 OFFCURVE",
"121 118 OFFCURVE",
"129 105 CURVE SMOOTH",
"132 100 OFFCURVE",
"136 98 OFFCURVE",
"140 98 CURVE SMOOTH",
"146 98 OFFCURVE",
"151 105 OFFCURVE",
"146 113 CURVE SMOOTH",
"140 123 OFFCURVE",
"140 137 OFFCURVE",
"145 150 CURVE SMOOTH",
"173 226 OFFCURVE",
"256 234 OFFCURVE",
"325 231 CURVE SMOOTH",
"379 228 OFFCURVE",
"434 221 OFFCURVE",
"489 215 CURVE",
"411 127 OFFCURVE",
"336 49 OFFCURVE",
"278 10 CURVE SMOOTH",
"228 -24 OFFCURVE",
"171 -43 OFFCURVE",
"120 -43 CURVE SMOOTH",
"95 -43 OFFCURVE",
"74 -38 OFFCURVE",
"60 -28 CURVE SMOOTH",
"40 -16 OFFCURVE",
"31 0 OFFCURVE",
"31 23 CURVE SMOOTH",
"31 41 OFFCURVE",
"27 47 OFFCURVE",
"23 47 CURVE SMOOTH",
"18 47 OFFCURVE",
"11 35 OFFCURVE",
"11 23 CURVE SMOOTH"
);
},
{
closed = 1;
nodes = (
"734 478 LINE SMOOTH",
"703 403 OFFCURVE",
"669 306 OFFCURVE",
"645 215 CURVE",
"612 220 OFFCURVE",
"578 226 OFFCURVE",
"544 233 CURVE",
"614 320 OFFCURVE",
"682 412 OFFCURVE",
"739 490 CURVE"
);
}
);
width = 828;
}
);
note = Acircumflex;
unicode = 00C2;
},
{
glyphname = Adieresis;
layers = (
{
hints = (
{
horizontal = 1;
place = "{-81, 37}";
type = Stem;
},
{
horizontal = 1;
place = "{-13, 20}";
type = Stem;
},
{
horizontal = 1;
place = "{227, 17}";
type = Stem;
},
{
horizontal = 1;
place = "{266, 45}";
type = Stem;
},
{
horizontal = 1;
place = "{572, -20}";
target = down;
type = TopGhost;
},
{
horizontal = 1;
place = "{662, 65}";
type = Stem;
},
{
place = "{11, 20}";
type = Stem;
},
{
place = "{134, 22}";
type = Stem;
},
{
place = "{622, 44}";
type = Stem;
},
{
place = "{736, 65}";
type = Stem;
},
{
place = "{736, 220}";
type = Stem;
},
{
place = "{891, 65}";
type = Stem;
}
);
layerId = "BDD3FA2A-F197-48C4-9241-A354346F8EDC";
paths = (
{
closed = 1;
nodes = (
"949 711 OFFCURVE",
"959 728 OFFCURVE",
"954 728 CURVE SMOOTH",
"951 728 OFFCURVE",
"946 725 OFFCURVE",
"937 717 CURVE",
"932 714 OFFCURVE",
"891 683 OFFCURVE",
"891 678 CURVE SMOOTH",
"891 662 OFFCURVE",
"909 662 OFFCURVE",
"924 662 CURVE SMOOTH",
"931 662 OFFCURVE",
"949 691 OFFCURVE",
"949 700 CURVE SMOOTH"
);
},
{
closed = 1;
nodes = (
"794 711 OFFCURVE",
"804 728 OFFCURVE",
"799 728 CURVE SMOOTH",
"796 728 OFFCURVE",
"791 725 OFFCURVE",
"782 717 CURVE",
"777 714 OFFCURVE",
"736 683 OFFCURVE",
"736 678 CURVE SMOOTH",
"736 662 OFFCURVE",
"755 662 OFFCURVE",
"769 662 CURVE SMOOTH",
"777 662 OFFCURVE",
"794 691 OFFCURVE",
"794 700 CURVE SMOOTH"
);
},
{
closed = 1;
nodes = (
"11 -50 OFFCURVE",
"74 -81 OFFCURVE",
"139 -81 CURVE SMOOTH",
"194 -81 OFFCURVE",
"248 -61 OFFCURVE",
"299 -23 CURVE SMOOTH",
"367 27 OFFCURVE",
"447 115 OFFCURVE",
"525 210 CURVE",
"564 205 OFFCURVE",
"603 200 OFFCURVE",
"641 196 CURVE",
"632 162 OFFCURVE",
"626 128 OFFCURVE",
"623 96 CURVE SMOOTH",
"617 34 OFFCURVE",
"639 -12 OFFCURVE",
"681 -12 CURVE SMOOTH",
"700 -12 OFFCURVE",
"739 -7 OFFCURVE",
"776 22 CURVE SMOOTH",
"845 77 OFFCURVE",
"889 142 OFFCURVE",
"892 149 CURVE SMOOTH",
"897 160 OFFCURVE",
"885 161 OFFCURVE",
"881 157 CURVE",
"851 118 OFFCURVE",
"749 7 OFFCURVE",
"696 7 CURVE SMOOTH",
"674 7 OFFCURVE",
"663 28 OFFCURVE",
"667 81 CURVE SMOOTH",
"671 118 OFFCURVE",
"677 156 OFFCURVE",
"687 193 CURVE",
"689 193 OFFCURVE",
"691 193 OFFCURVE",
"693 193 CURVE SMOOTH",
"705 192 LINE SMOOTH",
"707 192 OFFCURVE",
"709 192 OFFCURVE",
"711 192 CURVE SMOOTH",
"739 190 OFFCURVE",
"767 193 OFFCURVE",
"788 201 CURVE SMOOTH",
"805 207 OFFCURVE",
"819 217 OFFCURVE",
"826 229 CURVE SMOOTH",
"832 239 OFFCURVE",
"821 250 OFFCURVE",
"815 240 CURVE SMOOTH",
"810 232 OFFCURVE",
"799 223 OFFCURVE",
"786 218 CURVE SMOOTH",
"766 210 OFFCURVE",
"741 207 OFFCURVE",
"715 209 CURVE SMOOTH",
"708 209 OFFCURVE",
"699 210 OFFCURVE",
"691 210 CURVE",
"693 217 LINE SMOOTH",
"726 340 OFFCURVE",
"772 456 OFFCURVE",
"838 566 CURVE SMOOTH",
"841 571 OFFCURVE",
"843 575 OFFCURVE",
"843 577 CURVE SMOOTH",
"843 583 OFFCURVE",
"839 587 OFFCURVE",
"833 587 CURVE SMOOTH",
"825 587 OFFCURVE",
"797 581 OFFCURVE",
"783 573 CURVE",
"782 573 OFFCURVE",
"781 572 OFFCURVE",
"780 571 CURVE SMOOTH",
"778 570 OFFCURVE",
"777 569 OFFCURVE",
"776 567 CURVE",
"715 489 OFFCURVE",
"612 357 OFFCURVE",
"510 239 CURVE",
"449 251 OFFCURVE",
"387 265 OFFCURVE",
"329 271 CURVE SMOOTH",
"306 274 OFFCURVE",
"282 276 OFFCURVE",
"259 276 CURVE SMOOTH",
"188 276 OFFCURVE",
"127 255 OFFCURVE",
"120 165 CURVE SMOOTH",
"117 142 OFFCURVE",
"121 118 OFFCURVE",
"129 105 CURVE SMOOTH",
"132 100 OFFCURVE",
"136 98 OFFCURVE",
"140 98 CURVE SMOOTH",
"146 98 OFFCURVE",
"151 105 OFFCURVE",
"146 113 CURVE SMOOTH",
"140 123 OFFCURVE",
"140 137 OFFCURVE",
"145 150 CURVE SMOOTH",
"173 226 OFFCURVE",
"256 234 OFFCURVE",
"325 231 CURVE SMOOTH",
"379 228 OFFCURVE",
"434 221 OFFCURVE",
"489 215 CURVE",
"411 127 OFFCURVE",
"336 49 OFFCURVE",
"278 10 CURVE SMOOTH",
"228 -24 OFFCURVE",
"171 -43 OFFCURVE",
"120 -43 CURVE SMOOTH",
"95 -43 OFFCURVE",
"74 -38 OFFCURVE",
"60 -28 CURVE SMOOTH",
"40 -16 OFFCURVE",
"31 0 OFFCURVE",
"31 23 CURVE SMOOTH",
"31 41 OFFCURVE",
"27 47 OFFCURVE",
"23 47 CURVE SMOOTH",
"18 47 OFFCURVE",
"11 35 OFFCURVE",
"11 23 CURVE SMOOTH"
);
},
{
closed = 1;
nodes = (
"734 478 LINE SMOOTH",
"703 403 OFFCURVE",
"669 306 OFFCURVE",
"645 215 CURVE",
"612 220 OFFCURVE",
"578 226 OFFCURVE",
"544 233 CURVE",
"614 320 OFFCURVE",
"682 412 OFFCURVE",
"739 490 CURVE"
);
}
);
width = 828;
}
);
note = Adieresis;
unicode = 00C4;
},
{
glyphname = Agrave;
layers = (
{
hints = (
{
horizontal = 1;
place = "{-81, 37}";
type = Stem;
},
{
horizontal = 1;
place = "{-13, 20}";
type = Stem;
},
{
horizontal = 1;
place = "{227, 17}";
type = Stem;
},
{
horizontal = 1;
place = "{266, 45}";
type = Stem;
},
{
horizontal = 1;
place = "{279, -20}";
target = down;
type = TopGhost;
},
{
horizontal = 1;
place = "{572, -20}";
target = down;
type = TopGhost;
},
{
horizontal = 1;
place = "{586, -20}";
target = down;
type = TopGhost;
},
{
horizontal = 1;
place = "{641, 109}";
type = Stem;
},
{
place = "{11, 20}";
type = Stem;
},
{
place = "{134, 22}";
type = Stem;
},
{
place = "{622, 44}";
type = Stem;
},
{
place = "{693, 173}";
type = Stem;
}
);
layerId = "BDD3FA2A-F197-48C4-9241-A354346F8EDC";
paths = (
{
closed = 1;
nodes = (
"828 676 OFFCURVE",
"795 700 OFFCURVE",
"763 726 CURVE SMOOTH",
"742 741 OFFCURVE",
"723 754 OFFCURVE",
"706 748 CURVE SMOOTH",
"671 736 OFFCURVE",
"714 706 OFFCURVE",
"727 699 CURVE SMOOTH",
"769 676 OFFCURVE",
"844 641 OFFCURVE",
"858 641 CURVE SMOOTH",
"870 641 OFFCURVE",
"866 649 OFFCURVE",
"861 651 CURVE"
);
},
{
closed = 1;
nodes = (
"11 -50 OFFCURVE",
"74 -81 OFFCURVE",
"139 -81 CURVE SMOOTH",
"194 -81 OFFCURVE",
"248 -61 OFFCURVE",
"299 -23 CURVE SMOOTH",
"367 27 OFFCURVE",
"447 115 OFFCURVE",
"525 210 CURVE",
"564 205 OFFCURVE",
"603 200 OFFCURVE",
"641 196 CURVE",
"632 162 OFFCURVE",
"626 128 OFFCURVE",
"623 96 CURVE SMOOTH",
"617 34 OFFCURVE",
"639 -12 OFFCURVE",
"681 -12 CURVE SMOOTH",
"700 -12 OFFCURVE",
"739 -7 OFFCURVE",
"776 22 CURVE SMOOTH",
"845 77 OFFCURVE",
"889 142 OFFCURVE",
"892 149 CURVE SMOOTH",
"897 160 OFFCURVE",
"885 161 OFFCURVE",
"881 157 CURVE",
"851 118 OFFCURVE",
"749 7 OFFCURVE",
"696 7 CURVE SMOOTH",
"674 7 OFFCURVE",
"663 28 OFFCURVE",
"667 81 CURVE SMOOTH",
"671 118 OFFCURVE",
"677 156 OFFCURVE",
"687 193 CURVE",
"689 193 OFFCURVE",
"691 193 OFFCURVE",
"693 193 CURVE SMOOTH",
"705 192 LINE SMOOTH",
"707 192 OFFCURVE",
"709 192 OFFCURVE",
"711 192 CURVE SMOOTH",
"739 190 OFFCURVE",
"767 193 OFFCURVE",
"788 201 CURVE SMOOTH",
"805 207 OFFCURVE",
"819 217 OFFCURVE",
"826 229 CURVE SMOOTH",
"832 239 OFFCURVE",
"821 250 OFFCURVE",
"815 240 CURVE SMOOTH",
"810 232 OFFCURVE",
"799 223 OFFCURVE",
"786 218 CURVE SMOOTH",
"766 210 OFFCURVE",
"741 207 OFFCURVE",
"715 209 CURVE SMOOTH",
"708 209 OFFCURVE",
"699 210 OFFCURVE",
"691 210 CURVE",
"693 217 LINE SMOOTH",
"726 340 OFFCURVE",
"772 456 OFFCURVE",
"838 566 CURVE SMOOTH",
"841 571 OFFCURVE",
"843 575 OFFCURVE",
"843 577 CURVE SMOOTH",
"843 583 OFFCURVE",
"839 587 OFFCURVE",
"833 587 CURVE SMOOTH",
"825 587 OFFCURVE",
"797 581 OFFCURVE",
"783 573 CURVE",
"782 573 OFFCURVE",
"781 572 OFFCURVE",
"780 571 CURVE SMOOTH",
"778 570 OFFCURVE",
"777 569 OFFCURVE",
"776 567 CURVE",
"715 489 OFFCURVE",
"612 357 OFFCURVE",
"510 239 CURVE",
"449 251 OFFCURVE",
"387 265 OFFCURVE",
"329 271 CURVE SMOOTH",
"306 274 OFFCURVE",
"282 276 OFFCURVE",
"259 276 CURVE SMOOTH",
"188 276 OFFCURVE",
"127 255 OFFCURVE",
"120 165 CURVE SMOOTH",
"117 142 OFFCURVE",
"121 118 OFFCURVE",
"129 105 CURVE SMOOTH",
"132 100 OFFCURVE",
"136 98 OFFCURVE",
"140 98 CURVE SMOOTH",
"146 98 OFFCURVE",
"151 105 OFFCURVE",
"146 113 CURVE SMOOTH",
"140 123 OFFCURVE",
"140 137 OFFCURVE",
"145 150 CURVE SMOOTH",
"173 226 OFFCURVE",
"256 234 OFFCURVE",
"325 231 CURVE SMOOTH",
"379 228 OFFCURVE",
"434 221 OFFCURVE",
"489 215 CURVE",
"411 127 OFFCURVE",
"336 49 OFFCURVE",
"278 10 CURVE SMOOTH",
"228 -24 OFFCURVE",
"171 -43 OFFCURVE",
"120 -43 CURVE SMOOTH",
"95 -43 OFFCURVE",
"74 -38 OFFCURVE",
"60 -28 CURVE SMOOTH",
"40 -16 OFFCURVE",
"31 0 OFFCURVE",
"31 23 CURVE SMOOTH",
"31 41 OFFCURVE",
"27 47 OFFCURVE",
"23 47 CURVE SMOOTH",
"18 47 OFFCURVE",
"11 35 OFFCURVE",
"11 23 CURVE SMOOTH"
);
},
{
closed = 1;
nodes = (
"734 478 LINE SMOOTH",
"703 403 OFFCURVE",
"669 306 OFFCURVE",
"645 215 CURVE",
"612 220 OFFCURVE",
"578 226 OFFCURVE",
"544 233 CURVE",
"614 320 OFFCURVE",
"682 412 OFFCURVE",
"739 490 CURVE"
);
}
);
width = 828;
}
);
note = Agrave;
unicode = 00C0;
},
{
color = 3;
glyphname = Amacron;
lastChange = "2021-04-21 15:13:23 +0000";
layers = (
{
hints = (
{
horizontal = 1;
place = "{-81, 37}";
type = Stem;
},
{
horizontal = 1;
place = "{-13, 20}";
type = Stem;
},
{
horizontal = 1;
place = "{227, 17}";
type = Stem;
},
{
horizontal = 1;
place = "{266, 45}";
type = Stem;
},
{
horizontal = 1;
place = "{279, -20}";
target = down;
type = TopGhost;
},
{
horizontal = 1;
place = "{572, -20}";
target = down;
type = TopGhost;
},
{
horizontal = 1;
place = "{586, -20}";
target = down;
type = TopGhost;
},
{
horizontal = 1;
place = "{669, 37}";
type = Stem;
},
{
place = "{11, 20}";
type = Stem;
},
{
place = "{134, 22}";
type = Stem;
},
{
place = "{622, 44}";
type = Stem;
},
{
place = "{749, 229}";
type = Stem;
}
);
layerId = "BDD3FA2A-F197-48C4-9241-A354346F8EDC";
paths = (
{
closed = 1;
nodes = (
"933 678 OFFCURVE",
"978 681 OFFCURVE",
"978 693 CURVE",
"977 699 OFFCURVE",
"956 705 OFFCURVE",
"925 705 CURVE SMOOTH",
"838 705 OFFCURVE",
"749 715 OFFCURVE",
"749 678 CURVE SMOOTH",
"749 671 OFFCURVE",
"754 669 OFFCURVE",
"771 669 CURVE SMOOTH",
"804 669 OFFCURVE",
"880 675 OFFCURVE",
"926 677 CURVE SMOOTH"
);
},
{
closed = 1;
nodes = (
"11 -50 OFFCURVE",
"74 -81 OFFCURVE",
"139 -81 CURVE SMOOTH",
"194 -81 OFFCURVE",
"248 -61 OFFCURVE",
"299 -23 CURVE SMOOTH",
"367 27 OFFCURVE",
"447 115 OFFCURVE",
"525 210 CURVE",
"564 205 OFFCURVE",
"603 200 OFFCURVE",
"641 196 CURVE",
"632 162 OFFCURVE",
"626 128 OFFCURVE",
"623 96 CURVE SMOOTH",
"617 34 OFFCURVE",
"639 -12 OFFCURVE",
"681 -12 CURVE SMOOTH",
"700 -12 OFFCURVE",
"739 -7 OFFCURVE",
"776 22 CURVE SMOOTH",
"845 77 OFFCURVE",
"889 142 OFFCURVE",
"892 149 CURVE SMOOTH",
"897 160 OFFCURVE",
"885 161 OFFCURVE",
"881 157 CURVE",
"851 118 OFFCURVE",
"749 7 OFFCURVE",
"696 7 CURVE SMOOTH",
"674 7 OFFCURVE",
"663 28 OFFCURVE",
"667 81 CURVE SMOOTH",
"671 118 OFFCURVE",
"677 156 OFFCURVE",
"687 193 CURVE",
"689 193 OFFCURVE",
"691 193 OFFCURVE",
"693 193 CURVE SMOOTH",
"705 192 LINE SMOOTH",
"707 192 OFFCURVE",
"709 192 OFFCURVE",
"711 192 CURVE SMOOTH",
"739 190 OFFCURVE",
"767 193 OFFCURVE",
"788 201 CURVE SMOOTH",
"805 207 OFFCURVE",
"819 217 OFFCURVE",
"826 229 CURVE SMOOTH",
"832 239 OFFCURVE",
"821 250 OFFCURVE",
"815 240 CURVE SMOOTH",
"810 232 OFFCURVE",
"799 223 OFFCURVE",
"786 218 CURVE SMOOTH",
"766 210 OFFCURVE",
"741 207 OFFCURVE",
"715 209 CURVE SMOOTH",
"708 209 OFFCURVE",
"699 210 OFFCURVE",
"691 210 CURVE",
"693 217 LINE SMOOTH",
"726 340 OFFCURVE",
"772 456 OFFCURVE",
"838 566 CURVE SMOOTH",
"841 571 OFFCURVE",
"843 575 OFFCURVE",
"843 577 CURVE SMOOTH",
"843 583 OFFCURVE",
"839 587 OFFCURVE",
"833 587 CURVE SMOOTH",
"825 587 OFFCURVE",
"797 581 OFFCURVE",
"783 573 CURVE",
"782 573 OFFCURVE",
"781 572 OFFCURVE",
"780 571 CURVE SMOOTH",
"778 570 OFFCURVE",
"777 569 OFFCURVE",
"776 567 CURVE",
"715 489 OFFCURVE",
"612 357 OFFCURVE",
"510 239 CURVE",
"449 251 OFFCURVE",
"387 265 OFFCURVE",
"329 271 CURVE SMOOTH",
"306 274 OFFCURVE",
"282 276 OFFCURVE",
"259 276 CURVE SMOOTH",
"188 276 OFFCURVE",
"127 255 OFFCURVE",
"120 165 CURVE SMOOTH",
"117 142 OFFCURVE",
"121 118 OFFCURVE",
"129 105 CURVE SMOOTH",
"132 100 OFFCURVE",
"136 98 OFFCURVE",
"140 98 CURVE SMOOTH",
"146 98 OFFCURVE",
"151 105 OFFCURVE",
"146 113 CURVE SMOOTH",
"140 123 OFFCURVE",
"140 137 OFFCURVE",
"145 150 CURVE SMOOTH",
"173 226 OFFCURVE",
"256 234 OFFCURVE",
"325 231 CURVE SMOOTH",
"379 228 OFFCURVE",
"434 221 OFFCURVE",
"489 215 CURVE",
"411 127 OFFCURVE",
"336 49 OFFCURVE",
"278 10 CURVE SMOOTH",
"228 -24 OFFCURVE",
"171 -43 OFFCURVE",
"120 -43 CURVE SMOOTH",
"95 -43 OFFCURVE",
"74 -38 OFFCURVE",
"60 -28 CURVE SMOOTH",
"40 -16 OFFCURVE",
"31 0 OFFCURVE",
"31 23 CURVE SMOOTH",
"31 41 OFFCURVE",
"27 47 OFFCURVE",
"23 47 CURVE SMOOTH",
"18 47 OFFCURVE",
"11 35 OFFCURVE",
"11 23 CURVE SMOOTH"
);
},
{
closed = 1;
nodes = (
"734 478 LINE SMOOTH",
"703 403 OFFCURVE",
"669 306 OFFCURVE",
"645 215 CURVE",
"612 220 OFFCURVE",
"578 226 OFFCURVE",
"544 233 CURVE",
"614 320 OFFCURVE",
"682 412 OFFCURVE",
"739 490 CURVE"
);
}
);
width = 828;
}
);
note = Amacron;
unicode = 0100;
},
{
color = 3;
glyphname = Aogonek;
lastChange = "2021-04-21 15:13:23 +0000";
layers = (
{
hints = (
{
horizontal = 1;
place = "{-81, 37}";
type = Stem;
},
{
horizontal = 1;
place = "{-13, 20}";
type = Stem;
},
{
horizontal = 1;
place = "{227, 17}";
type = Stem;
},
{
horizontal = 1;
place = "{266, 45}";
type = Stem;
},
{
horizontal = 1;
place = "{279, -20}";
target = down;
type = TopGhost;
},
{
horizontal = 1;
place = "{572, -20}";
target = down;
type = TopGhost;
},
{
horizontal = 1;
place = "{586, -20}";
target = down;
type = TopGhost;
},
{
place = "{11, 20}";
type = Stem;
},
{
place = "{134, 22}";
type = Stem;
},
{
place = "{622, 44}";
type = Stem;
}
);
layerId = "BDD3FA2A-F197-48C4-9241-A354346F8EDC";
paths = (
{
closed = 1;
nodes = (
"11 -50 OFFCURVE",
"74 -81 OFFCURVE",
"139 -81 CURVE SMOOTH",
"194 -81 OFFCURVE",
"248 -61 OFFCURVE",
"299 -23 CURVE SMOOTH",
"367 27 OFFCURVE",
"447 115 OFFCURVE",
"525 210 CURVE",
"564 205 OFFCURVE",
"603 200 OFFCURVE",
"641 196 CURVE",
"632 162 OFFCURVE",
"626 128 OFFCURVE",
"623 96 CURVE SMOOTH",
"618 44 OFFCURVE",
"633 3 OFFCURVE",
"662 -8 CURVE",
"626 -25 OFFCURVE",
"557 -72 OFFCURVE",
"501 -111 CURVE SMOOTH",
"455 -143 OFFCURVE",
"422 -185 OFFCURVE",
"422 -224 CURVE SMOOTH",
"422 -264 OFFCURVE",
"464 -296 OFFCURVE",
"499 -296 CURVE SMOOTH",
"577 -296 OFFCURVE",
"648 -192 OFFCURVE",
"662 -174 CURVE",
"667 -170 OFFCURVE",
"670 -163 OFFCURVE",
"670 -159 CURVE SMOOTH",
"670 -156 OFFCURVE",
"669 -154 OFFCURVE",
"665 -154 CURVE SMOOTH",
"661 -154 OFFCURVE",
"656 -156 OFFCURVE",
"650 -162 CURVE",
"631 -177 OFFCURVE",
"525 -279 OFFCURVE",
"484 -279 CURVE SMOOTH",
"470 -279 OFFCURVE",
"465 -262 OFFCURVE",
"465 -250 CURVE SMOOTH",
"465 -204 OFFCURVE",
"526 -134 OFFCURVE",
"550 -112 CURVE SMOOTH",
"598 -69 OFFCURVE",
"650 -47 OFFCURVE",
"688 -12 CURVE",
"709 -11 OFFCURVE",
"743 -4 OFFCURVE",
"776 22 CURVE SMOOTH",
"845 77 OFFCURVE",
"889 142 OFFCURVE",
"892 149 CURVE SMOOTH",
"897 160 OFFCURVE",
"885 161 OFFCURVE",
"881 157 CURVE",
"851 118 OFFCURVE",
"749 7 OFFCURVE",
"696 7 CURVE SMOOTH",
"674 7 OFFCURVE",
"663 28 OFFCURVE",
"667 81 CURVE SMOOTH",
"671 118 OFFCURVE",
"677 156 OFFCURVE",
"687 193 CURVE",
"689 193 OFFCURVE",
"691 193 OFFCURVE",
"693 193 CURVE SMOOTH",
"705 192 LINE SMOOTH",
"707 192 OFFCURVE",
"709 192 OFFCURVE",
"711 192 CURVE SMOOTH",
"739 190 OFFCURVE",
"767 193 OFFCURVE",
"788 201 CURVE SMOOTH",
"805 207 OFFCURVE",
"819 217 OFFCURVE",
"826 229 CURVE SMOOTH",
"832 239 OFFCURVE",
"821 250 OFFCURVE",
"815 240 CURVE SMOOTH",
"810 232 OFFCURVE",
"799 223 OFFCURVE",
"786 218 CURVE SMOOTH",
"766 210 OFFCURVE",
"741 207 OFFCURVE",
"715 209 CURVE SMOOTH",
"708 209 OFFCURVE",
"699 210 OFFCURVE",
"691 210 CURVE",
"693 217 LINE SMOOTH",
"726 340 OFFCURVE",
"772 456 OFFCURVE",
"838 566 CURVE SMOOTH",
"841 571 OFFCURVE",
"843 575 OFFCURVE",
"843 577 CURVE SMOOTH",
"843 583 OFFCURVE",
"839 587 OFFCURVE",
"833 587 CURVE SMOOTH",
"825 587 OFFCURVE",
"797 581 OFFCURVE",
"783 573 CURVE",
"782 573 OFFCURVE",
"781 572 OFFCURVE",
"780 571 CURVE SMOOTH",
"778 570 OFFCURVE",
"777 569 OFFCURVE",
"776 567 CURVE",
"715 489 OFFCURVE",
"612 357 OFFCURVE",
"510 239 CURVE",
"449 251 OFFCURVE",
"387 265 OFFCURVE",
"329 271 CURVE SMOOTH",
"306 274 OFFCURVE",
"282 276 OFFCURVE",
"259 276 CURVE SMOOTH",
"188 276 OFFCURVE",
"127 255 OFFCURVE",
"120 165 CURVE SMOOTH",
"117 142 OFFCURVE",
"121 118 OFFCURVE",
"129 105 CURVE SMOOTH",
"132 100 OFFCURVE",
"136 98 OFFCURVE",
"140 98 CURVE SMOOTH",
"146 98 OFFCURVE",
"151 105 OFFCURVE",
"146 113 CURVE SMOOTH",
"140 123 OFFCURVE",
"140 137 OFFCURVE",
"145 150 CURVE SMOOTH",
"173 226 OFFCURVE",
"256 234 OFFCURVE",
"325 231 CURVE SMOOTH",
"379 228 OFFCURVE",
"434 221 OFFCURVE",
"489 215 CURVE",
"411 127 OFFCURVE",
"336 49 OFFCURVE",
"278 10 CURVE SMOOTH",
"228 -24 OFFCURVE",
"171 -43 OFFCURVE",
"120 -43 CURVE SMOOTH",
"95 -43 OFFCURVE",
"74 -38 OFFCURVE",
"60 -28 CURVE SMOOTH",
"40 -16 OFFCURVE",
"31 0 OFFCURVE",
"31 23 CURVE SMOOTH",
"31 41 OFFCURVE",
"27 47 OFFCURVE",
"23 47 CURVE SMOOTH",
"18 47 OFFCURVE",
"11 35 OFFCURVE",
"11 23 CURVE SMOOTH"
);
},
{
closed = 1;
nodes = (
"734 478 LINE SMOOTH",
"703 403 OFFCURVE",
"669 306 OFFCURVE",
"645 215 CURVE",
"612 220 OFFCURVE",
"578 226 OFFCURVE",
"544 233 CURVE",
"614 320 OFFCURVE",
"682 412 OFFCURVE",
"739 490 CURVE"
);
}
);
width = 828;
}
);
note = Aogonek;
unicode = 0104;
},
{
glyphname = Aring;
lastChange = "2021-04-21 15:30:58 +0000";
layers = (
{
hints = (
{
horizontal = 1;
place = "{-81, 37}";
type = Stem;
},
{
horizontal = 1;
place = "{-13, 20}";
type = Stem;
},
{
horizontal = 1;
place = "{227, 17}";
type = Stem;
},
{
horizontal = 1;
place = "{266, 45}";
type = Stem;
},
{
horizontal = 1;
place = "{279, -20}";
target = down;
type = TopGhost;
},
{
horizontal = 1;
place = "{572, -20}";
target = down;
type = TopGhost;
},
{
horizontal = 1;
place = "{586, -20}";
target = down;
type = TopGhost;
},
{
horizontal = 1;
place = "{791, 13}";
type = Stem;
},
{
horizontal = 1;
place = "{842, 15}";
type = Stem;
},
{
place = "{11, 20}";
type = Stem;
},
{
place = "{134, 22}";
type = Stem;
},
{
place = "{622, 44}";
type = Stem;
},
{
place = "{830, 26}";
type = Stem;
},
{
place = "{917, 20}";
type = Stem;
}
);
layerId = "BDD3FA2A-F197-48C4-9241-A354346F8EDC";
paths = (
{
closed = 1;
nodes = (
"914 685 OFFCURVE",
"886 696 OFFCURVE",
"859 696 CURVE SMOOTH",
"782 696 OFFCURVE",
"763 639 OFFCURVE",
"763 623 CURVE SMOOTH",
"763 591 OFFCURVE",
"792 575 OFFCURVE",
"825 575 CURVE SMOOTH",
"873 575 OFFCURVE",
"914 616 OFFCURVE",
"914 655 CURVE SMOOTH"
);
},
{
closed = 1;
nodes = (
"881 617 OFFCURVE",
"858 587 OFFCURVE",
"825 587 CURVE SMOOTH",
"800 587 OFFCURVE",
"790 601 OFFCURVE",
"790 616 CURVE SMOOTH",
"790 641 OFFCURVE",
"823 684 OFFCURVE",
"858 684 CURVE SMOOTH",
"884 684 OFFCURVE",
"891 668 OFFCURVE",
"891 653 CURVE SMOOTH",
"891 646 OFFCURVE",
"890 639 OFFCURVE",
"887 634 CURVE"
);
},
{
closed = 1;
nodes = (
"11 -50 OFFCURVE",
"74 -81 OFFCURVE",
"139 -81 CURVE SMOOTH",
"194 -81 OFFCURVE",
"248 -61 OFFCURVE",
"299 -23 CURVE SMOOTH",
"367 27 OFFCURVE",
"447 115 OFFCURVE",
"525 210 CURVE",
"564 205 OFFCURVE",
"603 200 OFFCURVE",
"641 196 CURVE",
"632 162 OFFCURVE",
"626 128 OFFCURVE",
"623 96 CURVE SMOOTH",
"617 34 OFFCURVE",
"639 -12 OFFCURVE",
"681 -12 CURVE SMOOTH",
"700 -12 OFFCURVE",
"739 -7 OFFCURVE",
"776 22 CURVE SMOOTH",
"845 77 OFFCURVE",
"889 142 OFFCURVE",
"892 149 CURVE SMOOTH",
"897 160 OFFCURVE",
"885 161 OFFCURVE",
"881 157 CURVE",
"851 118 OFFCURVE",
"749 7 OFFCURVE",
"696 7 CURVE SMOOTH",
"674 7 OFFCURVE",
"663 28 OFFCURVE",
"667 81 CURVE SMOOTH",
"671 118 OFFCURVE",
"677 156 OFFCURVE",
"687 193 CURVE",
"689 193 OFFCURVE",
"691 193 OFFCURVE",
"693 193 CURVE SMOOTH",
"705 192 LINE SMOOTH",
"707 192 OFFCURVE",
"709 192 OFFCURVE",
"711 192 CURVE SMOOTH",
"739 190 OFFCURVE",
"767 193 OFFCURVE",
"788 201 CURVE SMOOTH",
"805 207 OFFCURVE",
"819 217 OFFCURVE",
"826 229 CURVE SMOOTH",
"832 239 OFFCURVE",
"821 250 OFFCURVE",
"815 240 CURVE SMOOTH",
"810 232 OFFCURVE",
"799 223 OFFCURVE",
"786 218 CURVE SMOOTH",
"766 210 OFFCURVE",
"741 207 OFFCURVE",
"715 209 CURVE SMOOTH",
"708 209 OFFCURVE",
"699 210 OFFCURVE",
"691 210 CURVE",
"693 217 LINE SMOOTH",
"728 339 OFFCURVE",
"772 456 OFFCURVE",
"838 566 CURVE SMOOTH",
"841 571 OFFCURVE",
"843 575 OFFCURVE",
"843 577 CURVE SMOOTH",
"843 583 OFFCURVE",
"839 587 OFFCURVE",
"833 587 CURVE SMOOTH",
"825 587 OFFCURVE",
"797 581 OFFCURVE",
"783 573 CURVE",
"782 573 OFFCURVE",
"781 572 OFFCURVE",
"780 571 CURVE SMOOTH",
"778 570 OFFCURVE",
"777 569 OFFCURVE",
"776 567 CURVE",
"715 489 OFFCURVE",
"612 357 OFFCURVE",
"510 239 CURVE",
"449 251 OFFCURVE",
"387 265 OFFCURVE",
"329 271 CURVE SMOOTH",
"306 274 OFFCURVE",
"282 276 OFFCURVE",
"259 276 CURVE SMOOTH",
"188 276 OFFCURVE",
"127 255 OFFCURVE",
"120 165 CURVE SMOOTH",
"117 142 OFFCURVE",
"121 118 OFFCURVE",
"129 105 CURVE SMOOTH",
"132 100 OFFCURVE",
"136 98 OFFCURVE",
"140 98 CURVE SMOOTH",
"146 98 OFFCURVE",
"151 105 OFFCURVE",
"146 113 CURVE SMOOTH",
"140 123 OFFCURVE",
"140 137 OFFCURVE",
"145 150 CURVE SMOOTH",
"173 226 OFFCURVE",
"256 234 OFFCURVE",
"325 231 CURVE SMOOTH",
"379 228 OFFCURVE",
"434 221 OFFCURVE",
"489 215 CURVE",
"411 127 OFFCURVE",
"336 49 OFFCURVE",
"278 10 CURVE SMOOTH",
"228 -24 OFFCURVE",
"171 -43 OFFCURVE",
"120 -43 CURVE SMOOTH",
"95 -43 OFFCURVE",
"74 -38 OFFCURVE",
"60 -28 CURVE SMOOTH",
"40 -16 OFFCURVE",
"31 0 OFFCURVE",
"31 23 CURVE SMOOTH",
"31 41 OFFCURVE",
"27 47 OFFCURVE",
"23 47 CURVE SMOOTH",
"18 47 OFFCURVE",
"11 35 OFFCURVE",
"11 23 CURVE SMOOTH"
);
},
{
closed = 1;
nodes = (
"734 478 LINE SMOOTH",
"703 403 OFFCURVE",
"669 306 OFFCURVE",
"645 215 CURVE",
"612 220 OFFCURVE",
"578 226 OFFCURVE",
"544 233 CURVE",
"614 320 OFFCURVE",
"682 412 OFFCURVE",
"739 490 CURVE"
);
}
);
width = 828;
}
);
note = Aring;
unicode = 00C5;
},
{
glyphname = Atilde;
layers = (
{
hints = (
{
horizontal = 1;
place = "{-81, 37}";
type = Stem;
},
{
horizontal = 1;
place = "{-13, 20}";
type = Stem;
},
{
horizontal = 1;
place = "{227, 17}";
type = Stem;
},
{
horizontal = 1;
place = "{266, 45}";
type = Stem;
},
{
horizontal = 1;
place = "{279, -20}";
target = down;
type = TopGhost;
},
{
horizontal = 1;
place = "{572, -20}";
target = down;
type = TopGhost;
},
{
horizontal = 1;
place = "{586, -20}";
target = down;
type = TopGhost;
},
{
horizontal = 1;
place = "{677, 44}";
type = Stem;
},
{
place = "{11, 20}";
type = Stem;
},
{
place = "{134, 22}";
type = Stem;
},
{
place = "{622, 44}";
type = Stem;
},
{
place = "{719, 262}";
type = Stem;
}
);
layerId = "BDD3FA2A-F197-48C4-9241-A354346F8EDC";
paths = (
{
closed = 1;
nodes = (
"981 711 OFFCURVE",
"976 712 OFFCURVE",
"971 712 CURVE SMOOTH",
"958 712 OFFCURVE",
"949 677 OFFCURVE",
"925 677 CURVE SMOOTH",
"887 677 OFFCURVE",
"831 721 OFFCURVE",
"808 721 CURVE SMOOTH",
"771 721 OFFCURVE",
"744 682 OFFCURVE",
"719 647 CURVE",
"719 647 OFFCURVE",
"719 645 OFFCURVE",
"719 645 CURVE",
"719 643 OFFCURVE",
"723 641 OFFCURVE",
"728 641 CURVE SMOOTH",
"734 641 OFFCURVE",
"772 678 OFFCURVE",
"797 678 CURVE SMOOTH",
"833 678 OFFCURVE",
"870 647 OFFCURVE",
"906 647 CURVE SMOOTH",
"937 647 OFFCURVE",
"966 675 OFFCURVE",
"981 709 CURVE"
);
},
{
closed = 1;
nodes = (
"11 -50 OFFCURVE",
"74 -81 OFFCURVE",
"139 -81 CURVE SMOOTH",
"194 -81 OFFCURVE",
"248 -61 OFFCURVE",
"299 -23 CURVE SMOOTH",
"367 27 OFFCURVE",
"447 115 OFFCURVE",
"525 210 CURVE",
"564 205 OFFCURVE",
"603 200 OFFCURVE",
"641 196 CURVE",
"632 162 OFFCURVE",
"626 128 OFFCURVE",
"623 96 CURVE SMOOTH",
"617 34 OFFCURVE",
"639 -12 OFFCURVE",
"681 -12 CURVE SMOOTH",
"700 -12 OFFCURVE",
"739 -7 OFFCURVE",
"776 22 CURVE SMOOTH",
"845 77 OFFCURVE",
"889 142 OFFCURVE",
"892 149 CURVE SMOOTH",
"897 160 OFFCURVE",
"885 161 OFFCURVE",
"881 157 CURVE",
"851 118 OFFCURVE",
"749 7 OFFCURVE",
"696 7 CURVE SMOOTH",
"674 7 OFFCURVE",
"663 28 OFFCURVE",
"667 81 CURVE SMOOTH",
"671 118 OFFCURVE",
"677 156 OFFCURVE",
"687 193 CURVE",
"689 193 OFFCURVE",
"691 193 OFFCURVE",
"693 193 CURVE SMOOTH",
"705 192 LINE SMOOTH",
"707 192 OFFCURVE",
"709 192 OFFCURVE",
"711 192 CURVE SMOOTH",
"739 190 OFFCURVE",
"767 193 OFFCURVE",
"788 201 CURVE SMOOTH",
"805 207 OFFCURVE",
"819 217 OFFCURVE",
"826 229 CURVE SMOOTH",
"832 239 OFFCURVE",
"821 250 OFFCURVE",
"815 240 CURVE SMOOTH",
"810 232 OFFCURVE",
"799 223 OFFCURVE",
"786 218 CURVE SMOOTH",
"766 210 OFFCURVE",
"741 207 OFFCURVE",
"715 209 CURVE SMOOTH",
"708 209 OFFCURVE",
"699 210 OFFCURVE",
"691 210 CURVE",
"693 217 LINE SMOOTH",
"726 340 OFFCURVE",
"772 456 OFFCURVE",
"838 566 CURVE SMOOTH",
"841 571 OFFCURVE",
"843 575 OFFCURVE",
"843 577 CURVE SMOOTH",
"843 583 OFFCURVE",
"839 587 OFFCURVE",
"833 587 CURVE SMOOTH",
"825 587 OFFCURVE",
"797 581 OFFCURVE",
"783 573 CURVE",
"782 573 OFFCURVE",
"781 572 OFFCURVE",
"780 571 CURVE SMOOTH",
"778 570 OFFCURVE",
"777 569 OFFCURVE",
"776 567 CURVE",
"715 489 OFFCURVE",
"612 357 OFFCURVE",
"510 239 CURVE",
"449 251 OFFCURVE",
"387 265 OFFCURVE",
"329 271 CURVE SMOOTH",
"306 274 OFFCURVE",
"282 276 OFFCURVE",
"259 276 CURVE SMOOTH",
"188 276 OFFCURVE",
"127 255 OFFCURVE",
"120 165 CURVE SMOOTH",
"117 142 OFFCURVE",
"121 118 OFFCURVE",
"129 105 CURVE SMOOTH",
"132 100 OFFCURVE",
"136 98 OFFCURVE",
"140 98 CURVE SMOOTH",
"146 98 OFFCURVE",
"151 105 OFFCURVE",
"146 113 CURVE SMOOTH",
"140 123 OFFCURVE",
"140 137 OFFCURVE",
"145 150 CURVE SMOOTH",
"173 226 OFFCURVE",
"256 234 OFFCURVE",
"325 231 CURVE SMOOTH",
"379 228 OFFCURVE",
"434 221 OFFCURVE",
"489 215 CURVE",
"411 127 OFFCURVE",
"336 49 OFFCURVE",
"278 10 CURVE SMOOTH",
"228 -24 OFFCURVE",
"171 -43 OFFCURVE",
"120 -43 CURVE SMOOTH",
"95 -43 OFFCURVE",
"74 -38 OFFCURVE",
"60 -28 CURVE SMOOTH",
"40 -16 OFFCURVE",
"31 0 OFFCURVE",
"31 23 CURVE SMOOTH",
"31 41 OFFCURVE",
"27 47 OFFCURVE",
"23 47 CURVE SMOOTH",
"18 47 OFFCURVE",
"11 35 OFFCURVE",
"11 23 CURVE SMOOTH"
);
},
{
closed = 1;
nodes = (
"734 478 LINE SMOOTH",
"703 403 OFFCURVE",
"669 306 OFFCURVE",
"645 215 CURVE",
"612 220 OFFCURVE",
"578 226 OFFCURVE",
"544 233 CURVE",
"614 320 OFFCURVE",
"682 412 OFFCURVE",
"739 490 CURVE"
);
}
);
width = 828;
}
);
note = Atilde;
unicode = 00C3;
},
{
glyphname = AE;
layers = (
{
hints = (
{
horizontal = 1;
place = "{-70, 21}";
target = up;
type = BottomGhost;
},
{
horizontal = 1;
place = "{218, 29}";
type = Stem;
},
{
horizontal = 1;
place = "{531, 16}";
type = Stem;
},
{
place = "{1, 24}";
type = Stem;
},
{
place = "{43, 38}";
type = Stem;
},
{
place = "{459, 54}";
type = Stem;
},
{
horizontal = 1;
place = "{215, 35}";
type = Stem;
}
);
layerId = "BDD3FA2A-F197-48C4-9241-A354346F8EDC";
paths = (
{
closed = 1;
nodes = (
"644 248 OFFCURVE",
"628 249 OFFCURVE",
"620 249 CURVE SMOOTH",
"584 249 OFFCURVE",
"509 249 OFFCURVE",
"427 250 CURVE",
"455 307 OFFCURVE",
"542 468 OFFCURVE",
"565 482 CURVE SMOOTH",
"597 500 OFFCURVE",
"687 512 OFFCURVE",
"761 515 CURVE",
"749 504 OFFCURVE",
"739 489 OFFCURVE",
"733 479 CURVE SMOOTH",
"716 445 OFFCURVE",
"717 394 OFFCURVE",
"726 384 CURVE SMOOTH",
"737 372 OFFCURVE",
"745 381 OFFCURVE",
"742 388 CURVE",
"725 415 OFFCURVE",
"748 451 OFFCURVE",
"775 477 CURVE SMOOTH",
"789 492 OFFCURVE",
"806 501 OFFCURVE",
"814 509 CURVE SMOOTH",
"831 526 OFFCURVE",
"810 538 OFFCURVE",
"792 534 CURVE",
"789 534 OFFCURVE",
"787 533 OFFCURVE",
"786 533 CURVE SMOOTH",
"753 536 OFFCURVE",
"716 537 OFFCURVE",
"680 537 CURVE SMOOTH",
"627 537 OFFCURVE",
"564 537 OFFCURVE",
"512 525 CURVE",
"506 542 OFFCURVE",
"466 548 OFFCURVE",
"454 548 CURVE SMOOTH",
"338 548 OFFCURVE",
"155 333 OFFCURVE",
"104 254 CURVE",
"98 253 OFFCURVE",
"87 251 OFFCURVE",
"74 251 CURVE SMOOTH",
"35 249 OFFCURVE",
"35 216 OFFCURVE",
"63 216 CURVE SMOOTH",
"82 216 LINE",
"49 163 OFFCURVE",
"-10 22 OFFCURVE",
"1 -45 CURVE SMOOTH",
"2 -51 OFFCURVE",
"15 -70 OFFCURVE",
"22 -70 CURVE SMOOTH",
"26 -70 OFFCURVE",
"26 -63 OFFCURVE",
"27 -61 CURVE",
"32 11 OFFCURVE",
"76 143 OFFCURVE",
"122 220 CURVE",
"133 221 OFFCURVE",
"210 220 OFFCURVE",
"285 220 CURVE",
"287 221 OFFCURVE",
"288 220 OFFCURVE",
"289 220 CURVE SMOOTH",
"304 221 OFFCURVE",
"333 221 OFFCURVE",
"370 221 CURVE",
"328 111 OFFCURVE",
"315 -23 OFFCURVE",
"476 -23 CURVE SMOOTH",
"644 -23 OFFCURVE",
"773 63 OFFCURVE",
"831 133 CURVE SMOOTH",
"837 140 OFFCURVE",
"831 159 OFFCURVE",
"822 149 CURVE SMOOTH",
"750 65 OFFCURVE",
"614 9 OFFCURVE",
"504 9 CURVE SMOOTH",
"371 9 OFFCURVE",
"387 144 OFFCURVE",
"415 222 CURVE",
"475 222 OFFCURVE",
"539 224 OFFCURVE",
"577 227 CURVE SMOOTH",
"617 229 OFFCURVE",
"638 229 OFFCURVE",
"641 238 CURVE SMOOTH"
);
},
{
closed = 1;
nodes = (
"138 251 LINE",
"216 365 OFFCURVE",
"326 495 OFFCURVE",
"459 532 CURVE",
"467 527 OFFCURVE",
"483 519 OFFCURVE",
"481 484 CURVE SMOOTH",
"476 395 OFFCURVE",
"417 328 OFFCURVE",
"382 250 CURVE",
"312 250 OFFCURVE",
"240 251 OFFCURVE",
"185 251 CURVE SMOOTH"
);
}
);
width = 833;
}
);
note = AE;
unicode = 00C6;
},
{
color = 3;
glyphname = AEacute;
lastChange = "2021-04-21 15:26:13 +0000";
layers = (
{
hints = (
{
horizontal = 1;
place = "{-70, 21}";
target = up;
type = BottomGhost;
},
{
horizontal = 1;
place = "{-23, 32}";
type = Stem;
},
{
horizontal = 1;
place = "{216, 34}";
type = Stem;
},
{
horizontal = 1;
place = "{722, -20}";
target = down;
type = TopGhost;
},
{
place = "{0, 27}";
type = Stem;
},
{
place = "{343, 52}";
type = Stem;
},
{
place = "{720, 100}";
type = Stem;
},
{
place = "{481, 255}";
type = Stem;
}
);
layerId = "BDD3FA2A-F197-48C4-9241-A354346F8EDC";
paths = (
{
closed = 1;
nodes = (
"816 686 LINE",
"819 688 OFFCURVE",
"821 693 OFFCURVE",
"821 698 CURVE SMOOTH",
"821 708 OFFCURVE",
"813 722 OFFCURVE",
"791 722 CURVE SMOOTH",
"783 722 OFFCURVE",
"650 626 OFFCURVE",
"650 614 CURVE SMOOTH",
"650 611 OFFCURVE",
"653 610 OFFCURVE",
"659 610 CURVE SMOOTH",
"676 611 OFFCURVE",
"794 667 OFFCURVE",
"815 684 CURVE"
);
},
{
closed = 1;
nodes = (
"641 239 OFFCURVE",
"641 239 OFFCURVE",
"641 240 CURVE SMOOTH",
"641 254 OFFCURVE",
"540 248 OFFCURVE",
"427 250 CURVE",
"455 307 OFFCURVE",
"542 468 OFFCURVE",
"565 482 CURVE SMOOTH",
"597 500 OFFCURVE",
"687 512 OFFCURVE",
"761 515 CURVE",
"727 484 OFFCURVE",
"720 450 OFFCURVE",
"720 416 CURVE SMOOTH",
"720 383 OFFCURVE",
"730 378 OFFCURVE",
"737 378 CURVE SMOOTH",
"741 378 OFFCURVE",
"743 381 OFFCURVE",
"743 384 CURVE SMOOTH",
"743 392 OFFCURVE",
"736 399 OFFCURVE",
"736 409 CURVE SMOOTH",
"736 464 OFFCURVE",
"820 501 OFFCURVE",
"820 521 CURVE SMOOTH",
"820 529 OFFCURVE",
"810 534 OFFCURVE",
"798 534 CURVE SMOOTH",
"794 534 OFFCURVE",
"788 533 OFFCURVE",
"786 533 CURVE SMOOTH",
"753 536 OFFCURVE",
"716 537 OFFCURVE",
"681 537 CURVE SMOOTH",
"610 537 OFFCURVE",
"551 536 OFFCURVE",
"512 525 CURVE",
"506 542 OFFCURVE",
"466 548 OFFCURVE",
"454 548 CURVE SMOOTH",
"338 548 OFFCURVE",
"155 333 OFFCURVE",
"104 254 CURVE",
"72 248 OFFCURVE",
"44 251 OFFCURVE",
"44 231 CURVE SMOOTH",
"44 223 OFFCURVE",
"50 216 OFFCURVE",
"63 216 CURVE SMOOTH",
"82 216 LINE",
"51 167 OFFCURVE",
"0 45 OFFCURVE",
"0 -27 CURVE SMOOTH",
"0 -33 OFFCURVE",
"2 -70 OFFCURVE",
"22 -70 CURVE SMOOTH",
"26 -70 OFFCURVE",
"26 -63 OFFCURVE",
"27 -61 CURVE",
"32 11 OFFCURVE",
"76 143 OFFCURVE",
"122 220 CURVE",
"289 220 LINE SMOOTH",
"304 220 OFFCURVE",
"333 221 OFFCURVE",
"370 221 CURVE",
"354 179 OFFCURVE",
"343 135 OFFCURVE",
"343 95 CURVE SMOOTH",
"343 29 OFFCURVE",
"375 -23 OFFCURVE",
"476 -23 CURVE SMOOTH",
"644 -23 OFFCURVE",
"773 63 OFFCURVE",
"831 133 CURVE",
"832 135 OFFCURVE",
"833 138 OFFCURVE",
"833 140 CURVE SMOOTH",
"833 146 OFFCURVE",
"831 151 OFFCURVE",
"827 151 CURVE SMOOTH",
"826 151 OFFCURVE",
"824 150 OFFCURVE",
"822 149 CURVE",
"750 65 OFFCURVE",
"614 9 OFFCURVE",
"504 9 CURVE SMOOTH",
"420 9 OFFCURVE",
"395 62 OFFCURVE",
"395 121 CURVE SMOOTH",
"395 156 OFFCURVE",
"404 193 OFFCURVE",
"415 222 CURVE",
"539 222 OFFCURVE",
"637 227 OFFCURVE",
"641 238 CURVE"
);
},
{
closed = 1;
nodes = (
"138 251 LINE",
"216 365 OFFCURVE",
"326 495 OFFCURVE",
"459 532 CURVE",
"466 527 OFFCURVE",
"481 520 OFFCURVE",
"481 490 CURVE SMOOTH",
"481 400 OFFCURVE",
"417 328 OFFCURVE",
"382 250 CURVE",
"312 250 OFFCURVE",
"240 251 OFFCURVE",
"185 251 CURVE SMOOTH"
);
}
);
width = 833;
}
);
note = AEacute;
unicode = 01FC;
},
{
glyphname = B;
layers = (
{
hints = (
{
horizontal = 1;
place = "{-102, 44}";
type = Stem;
},
{
horizontal = 1;
place = "{327, 34}";
type = Stem;
},
{
horizontal = 1;
place = "{714, 52}";
type = Stem;
},
{
place = "{-62, 50}";
type = Stem;
},
{
place = "{-7, 56}";
type = Stem;
},
{
place = "{554, 59}";
type = Stem;
},
{
place = "{755, 68}";
type = Stem;
}
);
layerId = "BDD3FA2A-F197-48C4-9241-A354346F8EDC";
paths = (
{
closed = 1;
nodes = (
"673 157 OFFCURVE",
"537 250 OFFCURVE",
"425 318 CURVE",
"516 322 OFFCURVE",
"712 362 OFFCURVE",
"714 482 CURVE SMOOTH",
"714 526 OFFCURVE",
"676 566 OFFCURVE",
"612 581 CURVE SMOOTH",
"589 586 OFFCURVE",
"560 588 OFFCURVE",
"528 588 CURVE SMOOTH",
"407 588 OFFCURVE",
"241 553 OFFCURVE",
"159 509 CURVE SMOOTH",
"102 478 OFFCURVE",
"21 420 OFFCURVE",
"15 359 CURVE SMOOTH",
"15 355 OFFCURVE",
"17 345 OFFCURVE",
"17 343 CURVE SMOOTH",
"9 283 OFFCURVE",
"79 250 OFFCURVE",
"112 248 CURVE SMOOTH",
"127 246 OFFCURVE",
"133 254 OFFCURVE",
"118 261 CURVE SMOOTH",
"96 272 OFFCURVE",
"40 281 OFFCURVE",
"45 329 CURVE SMOOTH",
"61 470 OFFCURVE",
"391 547 OFFCURVE",
"558 547 CURVE SMOOTH",
"580 547 OFFCURVE",
"600 546 OFFCURVE",
"615 543 CURVE SMOOTH",
"698 528 OFFCURVE",
"697 479 OFFCURVE",
"666 440 CURVE SMOOTH",
"626 389 OFFCURVE",
"484 336 OFFCURVE",
"423 336 CURVE SMOOTH",
"409 336 OFFCURVE",
"379 321 OFFCURVE",
"382 303 CURVE SMOOTH",
"386 276 OFFCURVE",
"453 232 OFFCURVE",
"495 184 CURVE SMOOTH",
"606 62 OFFCURVE",
"511 -45 OFFCURVE",
"372 -44 CURVE SMOOTH",
"314 -44 OFFCURVE",
"282 -13 OFFCURVE",
"273 26 CURVE SMOOTH",
"270 41 OFFCURVE",
"273 68 OFFCURVE",
"246 68 CURVE",
"238 70 OFFCURVE",
"224 52 OFFCURVE",
"210 35 CURVE SMOOTH",
"188 9 OFFCURVE",
"155 5 OFFCURVE",
"178 61 CURVE SMOOTH",
"216 151 OFFCURVE",
"366 445 OFFCURVE",
"455 445 CURVE SMOOTH",
"460 445 OFFCURVE",
"471 436 OFFCURVE",
"466 451 CURVE SMOOTH",
"460 475 OFFCURVE",
"421 484 OFFCURVE",
"411 484 CURVE SMOOTH",
"360 484 OFFCURVE",
"290 400 OFFCURVE",
"285 368 CURVE",
"287 362 OFFCURVE",
"290 353 OFFCURVE",
"278 328 CURVE SMOOTH",
"250 271 OFFCURVE",
"118 49 OFFCURVE",
"127 -13 CURVE SMOOTH",
"128 -21 OFFCURVE",
"160 -26 OFFCURVE",
"165 -26 CURVE SMOOTH",
"188 -26 OFFCURVE",
"212 12 OFFCURVE",
"228 34 CURVE",
"228 33 OFFCURVE",
"228 31 OFFCURVE",
"228 28 CURVE SMOOTH",
"237 -32 OFFCURVE",
"290 -60 OFFCURVE",
"365 -60 CURVE SMOOTH",
"444 -60 OFFCURVE",
"519 -28 OFFCURVE",
"558 20 CURVE SMOOTH"
);
}
);
width = 638;
}
);
note = B;
unicode = 0042;
},
{
glyphname = C;
layers = (
{
hints = (
{
horizontal = 1;
place = "{-109, 35}";
type = Stem;
},
{
place = "{-113, 55}";
type = Stem;
},
{
place = "{564, 54}";
type = Stem;
}
);
layerId = "BDD3FA2A-F197-48C4-9241-A354346F8EDC";
paths = (
{
closed = 1;
nodes = (
"311 609 OFFCURVE",
"79 388 OFFCURVE",
"29 184 CURVE SMOOTH",
"-9 27 OFFCURVE",
"83 -44 OFFCURVE",
"203 -45 CURVE SMOOTH",
"328 -46 OFFCURVE",
"490 13 OFFCURVE",
"592 154 CURVE SMOOTH",
"597 161 OFFCURVE",
"584 172 OFFCURVE",
"578 162 CURVE SMOOTH",
"487 34 OFFCURVE",
"318 -23 OFFCURVE",
"203 -21 CURVE SMOOTH",
"99 -18 OFFCURVE",
"35 39 OFFCURVE",
"77 167 CURVE SMOOTH",
"149 390 OFFCURVE",
"399 573 OFFCURVE",
"501 558 CURVE SMOOTH",
"555 549 OFFCURVE",
"551 494 OFFCURVE",
"528 449 CURVE SMOOTH",
"481 357 OFFCURVE",
"386 303 OFFCURVE",
"284 294 CURVE SMOOTH",
"257 292 OFFCURVE",
"248 261 OFFCURVE",
"279 264 CURVE SMOOTH",
"377 272 OFFCURVE",
"577 387 OFFCURVE",
"581 500 CURVE SMOOTH",
"582 539 OFFCURVE",
"556 572 OFFCURVE",
"503 581 CURVE SMOOTH"
);
}
);
width = 522;
}
);
note = C;
unicode = 0043;
},
{
color = 3;
glyphname = Cacute;
lastChange = "2021-04-21 15:13:23 +0000";
layers = (
{
hints = (
{
horizontal = 1;
place = "{-109, 35}";
type = Stem;
},
{
horizontal = 1;
place = "{276, 27}";
type = Stem;
},
{
horizontal = 1;
place = "{615, -20}";
target = down;
type = TopGhost;
},
{
place = "{-113, 55}";
type = Stem;
},
{
place = "{328, 35}";
type = Stem;
},
{
place = "{528, 34}";
type = Stem;
},
{
place = "{564, 54}";
type = Stem;
}
);
layerId = "BDD3FA2A-F197-48C4-9241-A354346F8EDC";
paths = (
{
closed = 1;
nodes = (
"647 708 LINE SMOOTH",
"654 714 OFFCURVE",
"654 731 OFFCURVE",
"641 739 CURVE",
"636 741 OFFCURVE",
"623 748 OFFCURVE",
"612 743 CURVE",
"594 719 OFFCURVE",
"565 703 OFFCURVE",
"539 681 CURVE SMOOTH",
"528 672 OFFCURVE",
"487 645 OFFCURVE",
"486 643 CURVE",
"482 639 OFFCURVE",
"477 632 OFFCURVE",
"489 632 CURVE SMOOTH",
"506 633 OFFCURVE",
"625 689 OFFCURVE",
"645 706 CURVE SMOOTH"
);
},
{
closed = 1;
nodes = (
"311 609 OFFCURVE",
"79 388 OFFCURVE",
"29 184 CURVE SMOOTH",
"-9 27 OFFCURVE",
"83 -44 OFFCURVE",
"203 -45 CURVE SMOOTH",
"328 -46 OFFCURVE",
"490 13 OFFCURVE",
"592 154 CURVE SMOOTH",
"597 161 OFFCURVE",
"584 172 OFFCURVE",
"578 162 CURVE SMOOTH",
"487 34 OFFCURVE",
"318 -23 OFFCURVE",
"203 -21 CURVE SMOOTH",
"99 -18 OFFCURVE",
"35 39 OFFCURVE",
"77 167 CURVE SMOOTH",
"149 390 OFFCURVE",
"399 573 OFFCURVE",
"501 558 CURVE SMOOTH",
"555 549 OFFCURVE",
"551 494 OFFCURVE",
"528 449 CURVE SMOOTH",
"481 357 OFFCURVE",
"386 303 OFFCURVE",
"284 294 CURVE SMOOTH",
"257 292 OFFCURVE",
"248 261 OFFCURVE",
"279 264 CURVE SMOOTH",
"377 272 OFFCURVE",
"577 387 OFFCURVE",
"581 500 CURVE SMOOTH",
"582 539 OFFCURVE",
"556 572 OFFCURVE",
"503 581 CURVE SMOOTH"
);
}
);
width = 522;
}
);
note = Cacute;
unicode = 0106;
},
{
color = 3;
glyphname = Ccaron;
lastChange = "2021-04-21 15:13:23 +0000";
layers = (
{
hints = (
{
horizontal = 1;
place = "{-109, 35}";
type = Stem;
},
{
place = "{-113, 55}";
type = Stem;
},
{
place = "{564, 54}";
type = Stem;
}
);
layerId = "BDD3FA2A-F197-48C4-9241-A354346F8EDC";
paths = (
{
closed = 1;
nodes = (
"450 704 OFFCURVE",
"492 648 OFFCURVE",
"511 641 CURVE",
"529 642 OFFCURVE",
"601 712 OFFCURVE",
"619 726 CURVE SMOOTH",
"625 730 OFFCURVE",
"630 738 OFFCURVE",
"630 743 CURVE SMOOTH",
"630 745 OFFCURVE",
"628 747 OFFCURVE",
"626 747 CURVE SMOOTH",
"605 747 OFFCURVE",
"553 694 OFFCURVE",
"523 676 CURVE",
"501 700 OFFCURVE",
"429 750 OFFCURVE",
"433 750 CURVE",
"429 750 OFFCURVE",
"428 748 OFFCURVE",
"428 743 CURVE SMOOTH",
"428 739 OFFCURVE",
"429 734 OFFCURVE",
"432 731 CURVE"
);
},
{
closed = 1;
nodes = (
"311 609 OFFCURVE",
"79 388 OFFCURVE",
"29 184 CURVE SMOOTH",
"-9 27 OFFCURVE",
"83 -44 OFFCURVE",
"203 -45 CURVE SMOOTH",
"328 -46 OFFCURVE",
"490 13 OFFCURVE",
"592 154 CURVE SMOOTH",
"597 161 OFFCURVE",
"584 172 OFFCURVE",
"578 162 CURVE SMOOTH",
"487 34 OFFCURVE",
"318 -23 OFFCURVE",
"203 -21 CURVE SMOOTH",
"99 -18 OFFCURVE",
"35 39 OFFCURVE",
"77 167 CURVE SMOOTH",
"149 390 OFFCURVE",
"399 573 OFFCURVE",
"501 558 CURVE SMOOTH",
"555 549 OFFCURVE",
"551 494 OFFCURVE",
"528 449 CURVE SMOOTH",
"481 357 OFFCURVE",
"386 303 OFFCURVE",
"284 294 CURVE SMOOTH",
"257 292 OFFCURVE",
"248 261 OFFCURVE",
"279 264 CURVE SMOOTH",
"377 272 OFFCURVE",
"577 387 OFFCURVE",
"581 500 CURVE SMOOTH",
"582 539 OFFCURVE",
"556 572 OFFCURVE",
"503 581 CURVE SMOOTH"
);
}
);
width = 522;
}
);
note = Ccaron;
unicode = 010C;
},
{
glyphname = Ccedilla;
layers = (
{
hints = (
{
horizontal = 1;
place = "{-318, 23}";
type = Stem;
},
{
horizontal = 1;
place = "{-138, 23}";
type = Stem;
},
{
horizontal = 1;
place = "{-109, 35}";
type = Stem;
},
{
place = "{-113, 55}";
type = Stem;
},
{
place = "{-89, 29}";
type = Stem;
},
{
place = "{176, 34}";
type = Stem;
},
{
place = "{564, 54}";
type = Stem;
}
);
layerId = "BDD3FA2A-F197-48C4-9241-A354346F8EDC";
paths = (
{
closed = 1;
nodes = (
"311 609 OFFCURVE",
"79 388 OFFCURVE",
"29 184 CURVE SMOOTH",
"-1 59 OFFCURVE",
"51 -11 OFFCURVE",
"134 -35 CURVE",
"112 -51 OFFCURVE",
"65 -130 OFFCURVE",
"65 -140 CURVE SMOOTH",
"65 -144 OFFCURVE",
"67 -145 OFFCURVE",
"73 -145 CURVE SMOOTH",
"84 -145 OFFCURVE",
"109 -138 OFFCURVE",
"128 -138 CURVE SMOOTH",
"157 -138 OFFCURVE",
"176 -157 OFFCURVE",
"176 -183 CURVE SMOOTH",
"176 -239 OFFCURVE",
"96 -289 OFFCURVE",
"33 -289 CURVE SMOOTH",
"-9 -289 OFFCURVE",
"-38 -248 OFFCURVE",
"-46 -248 CURVE SMOOTH",
"-49 -248 OFFCURVE",
"-50 -250 OFFCURVE",
"-50 -253 CURVE SMOOTH",
"-50 -256 OFFCURVE",
"-49 -260 OFFCURVE",
"-45 -266 CURVE SMOOTH",
"-29 -294 OFFCURVE",
"4 -306 OFFCURVE",
"41 -306 CURVE SMOOTH",
"121 -306 OFFCURVE",
"221 -250 OFFCURVE",
"221 -183 CURVE SMOOTH",
"221 -145 OFFCURVE",
"190 -115 OFFCURVE",
"134 -115 CURVE SMOOTH",
"123 -115 OFFCURVE",
"111 -116 OFFCURVE",
"98 -118 CURVE",
"107 -106 OFFCURVE",
"149 -49 OFFCURVE",
"153 -40 CURVE",
"169 -43 OFFCURVE",
"186 -45 OFFCURVE",
"203 -45 CURVE SMOOTH",
"328 -46 OFFCURVE",
"490 13 OFFCURVE",
"592 154 CURVE SMOOTH",
"597 161 OFFCURVE",
"584 172 OFFCURVE",
"578 162 CURVE SMOOTH",
"487 34 OFFCURVE",
"318 -23 OFFCURVE",
"203 -21 CURVE SMOOTH",
"99 -18 OFFCURVE",
"35 39 OFFCURVE",
"77 167 CURVE SMOOTH",
"149 390 OFFCURVE",
"399 573 OFFCURVE",
"501 558 CURVE SMOOTH",
"555 549 OFFCURVE",
"551 494 OFFCURVE",
"528 449 CURVE SMOOTH",
"481 357 OFFCURVE",
"386 303 OFFCURVE",
"284 294 CURVE SMOOTH",
"257 292 OFFCURVE",
"248 261 OFFCURVE",
"279 264 CURVE SMOOTH",
"377 272 OFFCURVE",
"577 387 OFFCURVE",
"581 500 CURVE SMOOTH",
"582 539 OFFCURVE",
"556 572 OFFCURVE",
"503 581 CURVE SMOOTH"
);
}
);
width = 522;
}
);
note = Ccedilla;
unicode = 00C7;
},
{
color = 3;
glyphname = Ccircumflex;
lastChange = "2021-04-21 15:13:23 +0000";
layers = (
{
hints = (
{
horizontal = 1;
place = "{-109, 35}";
type = Stem;
},
{
horizontal = 1;
place = "{634, 110}";
type = Stem;
},
{
place = "{-113, 55}";
type = Stem;
},
{
place = "{564, 54}";
type = Stem;
},
{
place = "{418, 200}";
type = Stem;
}
);
layerId = "BDD3FA2A-F197-48C4-9241-A354346F8EDC";
paths = (
{
closed = 1;
nodes = (
"598 681 OFFCURVE",
"555 737 OFFCURVE",
"537 744 CURVE",
"517 743 OFFCURVE",
"445 672 OFFCURVE",
"428 659 CURVE",
"423 654 OFFCURVE",
"417 645 OFFCURVE",
"417 641 CURVE SMOOTH",
"417 639 OFFCURVE",
"418 637 OFFCURVE",
"421 637 CURVE SMOOTH",
"442 637 OFFCURVE",
"494 691 OFFCURVE",
"525 710 CURVE",
"547 686 OFFCURVE",
"617 634 OFFCURVE",
"614 634 CURVE",
"617 634 OFFCURVE",
"619 638 OFFCURVE",
"619 642 CURVE SMOOTH",
"619 645 OFFCURVE",
"617 650 OFFCURVE",
"615 654 CURVE SMOOTH"
);
},
{
closed = 1;
nodes = (
"311 609 OFFCURVE",
"79 388 OFFCURVE",
"29 184 CURVE SMOOTH",
"-9 27 OFFCURVE",
"83 -44 OFFCURVE",
"203 -45 CURVE SMOOTH",
"328 -46 OFFCURVE",
"490 13 OFFCURVE",
"592 154 CURVE SMOOTH",
"597 161 OFFCURVE",
"584 172 OFFCURVE",
"578 162 CURVE SMOOTH",
"487 34 OFFCURVE",
"318 -23 OFFCURVE",
"203 -21 CURVE SMOOTH",
"99 -18 OFFCURVE",
"35 39 OFFCURVE",
"77 167 CURVE SMOOTH",
"149 390 OFFCURVE",
"399 573 OFFCURVE",
"501 558 CURVE SMOOTH",
"555 549 OFFCURVE",
"551 494 OFFCURVE",
"528 449 CURVE SMOOTH",
"481 357 OFFCURVE",
"386 303 OFFCURVE",
"284 294 CURVE SMOOTH",
"257 292 OFFCURVE",
"248 261 OFFCURVE",
"279 264 CURVE SMOOTH",
"377 272 OFFCURVE",
"577 387 OFFCURVE",
"581 500 CURVE SMOOTH",
"582 539 OFFCURVE",
"556 572 OFFCURVE",
"503 581 CURVE SMOOTH"
);
}
);
width = 522;
}
);
note = Ccircumflex;
unicode = 0108;
},
{
color = 3;
glyphname = Cdotaccent;
lastChange = "2021-04-21 15:13:23 +0000";
layers = (
{
hints = (
{
horizontal = 1;
place = "{-109, 35}";
type = Stem;
},
{
horizontal = 1;
place = "{658, 61}";
type = Stem;
},
{
place = "{-113, 55}";
type = Stem;
},
{
place = "{482, 60}";
type = Stem;
},
{
place = "{564, 54}";
type = Stem;
}
);
layerId = "BDD3FA2A-F197-48C4-9241-A354346F8EDC";
paths = (
{
closed = 1;
nodes = (
"551 705 OFFCURVE",
"551 709 OFFCURVE",
"551 714 CURVE SMOOTH",
"551 723 OFFCURVE",
"550 731 OFFCURVE",
"543 731 CURVE SMOOTH",
"528 731 OFFCURVE",
"471 679 OFFCURVE",
"471 672 CURVE SMOOTH",
"471 649 OFFCURVE",
"498 649 OFFCURVE",
"515 649 CURVE SMOOTH",
"527 649 OFFCURVE",
"551 688 OFFCURVE",
"551 700 CURVE SMOOTH"
);
},
{
closed = 1;
nodes = (
"311 609 OFFCURVE",
"79 388 OFFCURVE",
"29 184 CURVE SMOOTH",
"-9 27 OFFCURVE",
"83 -44 OFFCURVE",
"203 -45 CURVE SMOOTH",
"328 -46 OFFCURVE",
"490 13 OFFCURVE",
"592 154 CURVE SMOOTH",
"597 161 OFFCURVE",
"584 172 OFFCURVE",
"578 162 CURVE SMOOTH",
"487 34 OFFCURVE",
"318 -23 OFFCURVE",
"203 -21 CURVE SMOOTH",
"99 -18 OFFCURVE",
"35 39 OFFCURVE",
"77 167 CURVE SMOOTH",
"149 390 OFFCURVE",
"399 573 OFFCURVE",
"501 558 CURVE SMOOTH",
"555 549 OFFCURVE",
"551 494 OFFCURVE",
"528 449 CURVE SMOOTH",
"481 357 OFFCURVE",
"386 303 OFFCURVE",
"284 294 CURVE SMOOTH",
"257 292 OFFCURVE",
"248 261 OFFCURVE",
"279 264 CURVE SMOOTH",
"377 272 OFFCURVE",
"577 387 OFFCURVE",
"581 500 CURVE SMOOTH",
"582 539 OFFCURVE",
"556 572 OFFCURVE",
"503 581 CURVE SMOOTH"
);
}
);
width = 522;
}
);
note = Cdotaccent;
unicode = 010A;
},
{
glyphname = D;
layers = (
{
hints = (
{
horizontal = 1;
place = "{-100, 32}";
type = Stem;
},
{
horizontal = 1;
place = "{667, 43}";
type = Stem;
},
{
place = "{155, 52}";
type = Stem;
}
);
layerId = "BDD3FA2A-F197-48C4-9241-A354346F8EDC";
paths = (
{
closed = 1;
nodes = (
"112 437 OFFCURVE",
"389 556 OFFCURVE",
"600 551 CURVE SMOOTH",
"863 544 OFFCURVE",
"903 332 OFFCURVE",
"759 157 CURVE SMOOTH",
"690 74 OFFCURVE",
"566 -1 OFFCURVE",
"450 -1 CURVE SMOOTH",
"401 -1 OFFCURVE",
"354 12 OFFCURVE",
"312 43 CURVE",
"354 131 OFFCURVE",
"499 432 OFFCURVE",
"589 432 CURVE SMOOTH",
"597 432 OFFCURVE",
"603 422 OFFCURVE",
"601 434 CURVE SMOOTH",
"597 460 OFFCURVE",
"555 470 OFFCURVE",
"544 470 CURVE SMOOTH",
"493 470 OFFCURVE",
"395 350 OFFCURVE",
"389 318 CURVE",
"392 314 OFFCURVE",
"395 304 OFFCURVE",
"383 278 CURVE SMOOTH",
"356 223 OFFCURVE",
"300 104 OFFCURVE",
"283 62 CURVE",
"279 63 OFFCURVE",
"216 115 OFFCURVE",
"216 137 CURVE SMOOTH",
"216 155 OFFCURVE",
"216 151 OFFCURVE",
"223 168 CURVE SMOOTH",
"229 182 OFFCURVE",
"229 187 OFFCURVE",
"226 189 CURVE SMOOTH",
"218 194 OFFCURVE",
"194 187 OFFCURVE",
"184 179 CURVE SMOOTH",
"179 174 OFFCURVE",
"176 168 OFFCURVE",
"178 160 CURVE SMOOTH",
"182 150 OFFCURVE",
"187 142 OFFCURVE",
"185 133 CURVE SMOOTH",
"181 100 OFFCURVE",
"177 71 OFFCURVE",
"177 28 CURVE SMOOTH",
"177 13 OFFCURVE",
"184 -62 OFFCURVE",
"234 -62 CURVE SMOOTH",
"261 -62 OFFCURVE",
"299 18 OFFCURVE",
"304 26 CURVE",
"349 -9 OFFCURVE",
"414 -24 OFFCURVE",
"481 -24 CURVE SMOOTH",
"678 -24 OFFCURVE",
"886 132 OFFCURVE",
"886 340 CURVE SMOOTH",
"886 530 OFFCURVE",
"699 570 OFFCURVE",
"544 570 CURVE SMOOTH",
"328 570 OFFCURVE",
"77 487 OFFCURVE",
"77 329 CURVE SMOOTH",
"77 325 OFFCURVE",
"79 316 OFFCURVE",
"79 314 CURVE SMOOTH",
"71 254 OFFCURVE",
"154 223 OFFCURVE",
"188 221 CURVE SMOOTH",
"201 220 OFFCURVE",
"207 228 OFFCURVE",
"194 234 CURVE SMOOTH",
"172 245 OFFCURVE",
"112 251 OFFCURVE",
"112 300 CURVE SMOOTH"
);
},
{
closed = 1;
nodes = (
"267 31 OFFCURVE",
"245 -32 OFFCURVE",
"230 -32 CURVE SMOOTH",
"225 -32 OFFCURVE",
"221 -27 OFFCURVE",
"218 -13 CURVE SMOOTH",
"210 32 OFFCURVE",
"211 87 OFFCURVE",
"211 100 CURVE",
"228 84 OFFCURVE",
"256 52 OFFCURVE",
"271 40 CURVE"
);
}
);
width = 848;
}
);
note = D;
unicode = 0044;
},
{
glyphname = Eth;
layers = (
{
hints = (
{
horizontal = 1;
place = "{-11, 21}";
type = Stem;
},
{
horizontal = 1;
place = "{515, 29}";
type = Stem;
},
{
place = "{534, 48}";
type = Stem;
}
);
layerId = "BDD3FA2A-F197-48C4-9241-A354346F8EDC";
paths = (
{
closed = 1;
nodes = (
"582 404 OFFCURVE",
"538 481 OFFCURVE",
"434 520 CURVE SMOOTH",
"373 542 OFFCURVE",
"301 549 OFFCURVE",
"233 544 CURVE SMOOTH",
"176 540 OFFCURVE",
"143 538 OFFCURVE",
"107 523 CURVE SMOOTH",
"72 509 OFFCURVE",
"106 479 OFFCURVE",
"126 484 CURVE SMOOTH",
"188 502 OFFCURVE",
"255 515 OFFCURVE",
"317 515 CURVE SMOOTH",
"430 515 OFFCURVE",
"536 470 OFFCURVE",
"536 338 CURVE SMOOTH",
"536 152 OFFCURVE",
"339 10 OFFCURVE",
"180 10 CURVE SMOOTH",
"141 10 OFFCURVE",
"104 19 OFFCURVE",
"73 38 CURVE",
"88 101 OFFCURVE",
"109 156 OFFCURVE",
"134 210 CURVE",
"157 212 OFFCURVE",
"182 214 OFFCURVE",
"200 215 CURVE SMOOTH",
"207 215 OFFCURVE",
"253 217 OFFCURVE",
"251 229 CURVE",
"251 237 OFFCURVE",
"231 242 OFFCURVE",
"199 242 CURVE SMOOTH",
"149 242 LINE",
"183 310 OFFCURVE",
"222 377 OFFCURVE",
"260 453 CURVE SMOOTH",
"265 464 OFFCURVE",
"237 477 OFFCURVE",
"219 477 CURVE SMOOTH",
"214 477 OFFCURVE",
"209 475 OFFCURVE",
"207 473 CURVE SMOOTH",
"193 455 OFFCURVE",
"146 349 OFFCURVE",
"104 242 CURVE",
"54 242 LINE SMOOTH",
"33 242 OFFCURVE",
"0 203 OFFCURVE",
"45 205 CURVE SMOOTH",
"92 207 LINE",
"71 154 OFFCURVE",
"52 102 OFFCURVE",
"41 65 CURVE",
"37 68 OFFCURVE",
"33 73 OFFCURVE",
"29 78 CURVE SMOOTH",
"26 81 OFFCURVE",
"24 83 OFFCURVE",
"22 83 CURVE SMOOTH",
"15 83 OFFCURVE",
"12 69 OFFCURVE",
"17 55 CURVE SMOOTH",
"21 46 OFFCURVE",
"26 39 OFFCURVE",
"33 33 CURVE",
"31 21 OFFCURVE",
"29 12 OFFCURVE",
"29 6 CURVE SMOOTH",
"30 1 OFFCURVE",
"36 -1 OFFCURVE",
"43 -1 CURVE SMOOTH",
"52 -1 OFFCURVE",
"63 2 OFFCURVE",
"67 6 CURVE",
"68 10 LINE",
"99 -4 OFFCURVE",
"139 -11 OFFCURVE",
"178 -11 CURVE SMOOTH",
"362 -13 OFFCURVE",
"582 117 OFFCURVE",
"582 322 CURVE SMOOTH"
);
}
);
width = 554;
}
);
note = Eth;
unicode = 00D0;
},
{
color = 3;
glyphname = Dcaron;
lastChange = "2021-04-21 15:13:23 +0000";
layers = (
{
hints = (
{
horizontal = 1;
place = "{-100, 32}";
type = Stem;
},
{
horizontal = 1;
place = "{667, 43}";
type = Stem;
},
{
place = "{155, 52}";
type = Stem;
}
);
layerId = "BDD3FA2A-F197-48C4-9241-A354346F8EDC";
paths = (
{
closed = 1;
nodes = (
"605 681 OFFCURVE",
"647 625 OFFCURVE",
"666 617 CURVE",
"684 619 OFFCURVE",
"756 689 OFFCURVE",
"773 703 CURVE",
"780 706 OFFCURVE",
"784 715 OFFCURVE",
"784 720 CURVE SMOOTH",
"784 722 OFFCURVE",
"783 723 OFFCURVE",
"781 723 CURVE SMOOTH",
"760 723 OFFCURVE",
"708 671 OFFCURVE",
"678 653 CURVE",
"656 677 OFFCURVE",
"584 727 OFFCURVE",
"588 727 CURVE",
"584 727 OFFCURVE",
"583 725 OFFCURVE",
"583 720 CURVE SMOOTH",
"583 716 OFFCURVE",
"584 711 OFFCURVE",
"587 708 CURVE"
);
},
{
closed = 1;
nodes = (
"112 437 OFFCURVE",
"389 556 OFFCURVE",
"600 551 CURVE SMOOTH",
"863 544 OFFCURVE",
"903 332 OFFCURVE",
"759 157 CURVE SMOOTH",
"690 74 OFFCURVE",
"566 -1 OFFCURVE",
"450 -1 CURVE SMOOTH",
"401 -1 OFFCURVE",
"354 12 OFFCURVE",
"312 43 CURVE",
"354 131 OFFCURVE",
"499 432 OFFCURVE",
"589 432 CURVE SMOOTH",
"597 432 OFFCURVE",
"603 422 OFFCURVE",
"601 434 CURVE SMOOTH",
"597 460 OFFCURVE",
"555 470 OFFCURVE",
"544 470 CURVE SMOOTH",
"493 470 OFFCURVE",
"395 350 OFFCURVE",
"389 318 CURVE",
"392 314 OFFCURVE",
"395 304 OFFCURVE",
"383 278 CURVE SMOOTH",
"356 223 OFFCURVE",
"300 104 OFFCURVE",
"283 62 CURVE",
"279 63 OFFCURVE",
"216 115 OFFCURVE",
"216 137 CURVE SMOOTH",
"216 155 OFFCURVE",
"216 151 OFFCURVE",
"223 168 CURVE SMOOTH",
"229 182 OFFCURVE",
"229 187 OFFCURVE",
"226 189 CURVE SMOOTH",
"218 194 OFFCURVE",
"194 187 OFFCURVE",
"184 179 CURVE SMOOTH",
"179 174 OFFCURVE",
"176 168 OFFCURVE",
"178 160 CURVE SMOOTH",
"182 150 OFFCURVE",
"187 142 OFFCURVE",
"185 133 CURVE SMOOTH",
"181 100 OFFCURVE",
"177 71 OFFCURVE",
"177 28 CURVE SMOOTH",
"177 13 OFFCURVE",
"184 -62 OFFCURVE",
"234 -62 CURVE SMOOTH",
"261 -62 OFFCURVE",
"299 18 OFFCURVE",
"304 26 CURVE",
"349 -9 OFFCURVE",
"414 -24 OFFCURVE",
"481 -24 CURVE SMOOTH",
"678 -24 OFFCURVE",
"886 132 OFFCURVE",
"886 340 CURVE SMOOTH",
"886 530 OFFCURVE",
"699 570 OFFCURVE",
"544 570 CURVE SMOOTH",
"328 570 OFFCURVE",
"77 487 OFFCURVE",
"77 329 CURVE SMOOTH",
"77 325 OFFCURVE",
"79 316 OFFCURVE",
"79 314 CURVE SMOOTH",
"71 254 OFFCURVE",
"154 223 OFFCURVE",
"188 221 CURVE SMOOTH",
"201 220 OFFCURVE",
"207 228 OFFCURVE",
"194 234 CURVE SMOOTH",
"172 245 OFFCURVE",
"112 251 OFFCURVE",
"112 300 CURVE SMOOTH"
);
},
{
closed = 1;
nodes = (
"267 31 OFFCURVE",
"245 -32 OFFCURVE",
"230 -32 CURVE SMOOTH",
"225 -32 OFFCURVE",
"221 -27 OFFCURVE",
"218 -13 CURVE SMOOTH",
"210 32 OFFCURVE",
"211 87 OFFCURVE",
"211 100 CURVE",
"228 84 OFFCURVE",
"256 52 OFFCURVE",
"271 40 CURVE"
);
}
);
width = 848;
}
);
note = Dcaron;
unicode = 010E;
},
{
color = 3;
glyphname = Dcroat;
lastChange = "2021-04-21 15:13:23 +0000";
layers = (
{
hints = (
{
horizontal = 1;
place = "{-100, 32}";
type = Stem;
},
{
horizontal = 1;
place = "{194, 37}";
type = Stem;
},
{
horizontal = 1;
place = "{667, 43}";
type = Stem;
},
{
place = "{155, 52}";
type = Stem;
},
{
place = "{267, 229}";
type = Stem;
}
);
layerId = "BDD3FA2A-F197-48C4-9241-A354346F8EDC";
paths = (
{
closed = 1;
nodes = (
"112 437 OFFCURVE",
"389 556 OFFCURVE",
"600 551 CURVE SMOOTH",
"863 544 OFFCURVE",
"903 332 OFFCURVE",
"759 157 CURVE SMOOTH",
"690 74 OFFCURVE",
"566 -1 OFFCURVE",
"450 -1 CURVE SMOOTH",
"401 -1 OFFCURVE",
"354 12 OFFCURVE",
"312 43 CURVE",
"327 75 OFFCURVE",
"356 136 OFFCURVE",
"391 199 CURVE",
"411 201 OFFCURVE",
"429 202 OFFCURVE",
"444 203 CURVE SMOOTH",
"451 204 OFFCURVE",
"497 206 OFFCURVE",
"497 218 CURVE",
"495 224 OFFCURVE",
"475 231 OFFCURVE",
"443 231 CURVE SMOOTH",
"432 231 OFFCURVE",
"420 231 OFFCURVE",
"409 231 CURVE",
"467 333 OFFCURVE",
"537 432 OFFCURVE",
"589 432 CURVE SMOOTH",
"597 432 OFFCURVE",
"603 422 OFFCURVE",
"601 434 CURVE SMOOTH",
"597 460 OFFCURVE",
"555 470 OFFCURVE",
"544 470 CURVE SMOOTH",
"493 470 OFFCURVE",
"395 350 OFFCURVE",
"389 318 CURVE",
"392 314 OFFCURVE",
"395 304 OFFCURVE",
"383 278 CURVE SMOOTH",
"377 265 OFFCURVE",
"369 250 OFFCURVE",
"361 232 CURVE",
"308 232 OFFCURVE",
"267 228 OFFCURVE",
"267 204 CURVE SMOOTH",
"267 196 OFFCURVE",
"272 194 OFFCURVE",
"289 194 CURVE SMOOTH",
"302 194 OFFCURVE",
"322 195 OFFCURVE",
"344 196 CURVE",
"319 144 OFFCURVE",
"294 88 OFFCURVE",
"283 62 CURVE",
"279 63 OFFCURVE",
"216 115 OFFCURVE",
"216 137 CURVE SMOOTH",
"216 155 OFFCURVE",
"216 151 OFFCURVE",
"223 168 CURVE SMOOTH",
"229 182 OFFCURVE",
"229 187 OFFCURVE",
"226 189 CURVE SMOOTH",
"218 194 OFFCURVE",
"194 187 OFFCURVE",
"184 179 CURVE SMOOTH",
"179 174 OFFCURVE",
"176 168 OFFCURVE",
"178 160 CURVE SMOOTH",
"182 150 OFFCURVE",
"187 142 OFFCURVE",
"185 133 CURVE SMOOTH",
"181 100 OFFCURVE",
"177 71 OFFCURVE",
"177 28 CURVE SMOOTH",
"177 13 OFFCURVE",
"184 -62 OFFCURVE",
"234 -62 CURVE SMOOTH",
"261 -62 OFFCURVE",
"299 18 OFFCURVE",
"304 26 CURVE",
"349 -9 OFFCURVE",
"414 -24 OFFCURVE",
"481 -24 CURVE SMOOTH",
"678 -24 OFFCURVE",
"886 132 OFFCURVE",
"886 340 CURVE SMOOTH",
"886 530 OFFCURVE",
"699 570 OFFCURVE",
"544 570 CURVE SMOOTH",
"328 570 OFFCURVE",
"77 487 OFFCURVE",
"77 329 CURVE SMOOTH",
"77 325 OFFCURVE",
"79 316 OFFCURVE",
"79 314 CURVE SMOOTH",
"71 254 OFFCURVE",
"154 223 OFFCURVE",
"188 221 CURVE SMOOTH",
"201 220 OFFCURVE",
"207 228 OFFCURVE",
"194 234 CURVE SMOOTH",
"172 245 OFFCURVE",
"112 251 OFFCURVE",
"112 300 CURVE SMOOTH"
);
},
{
closed = 1;
nodes = (
"267 31 OFFCURVE",
"245 -32 OFFCURVE",
"230 -32 CURVE SMOOTH",
"225 -32 OFFCURVE",
"221 -27 OFFCURVE",
"218 -13 CURVE SMOOTH",
"210 32 OFFCURVE",
"211 87 OFFCURVE",
"211 100 CURVE",
"228 84 OFFCURVE",
"256 52 OFFCURVE",
"271 40 CURVE"
);
}
);
width = 848;
}
);
note = Dcroat;
unicode = 0110;
},
{
glyphname = E;
layers = (
{
hints = (
{
horizontal = 1;
place = "{-20, 39}";
type = Stem;
},
{
horizontal = 1;
place = "{449, 21}";
target = up;
type = BottomGhost;
},
{
horizontal = 1;
place = "{704, 39}";
type = Stem;
},
{
place = "{9, 56}";
type = Stem;
},
{
place = "{771, 31}";
type = Stem;
}
);
layerId = "BDD3FA2A-F197-48C4-9241-A354346F8EDC";
paths = (
{
closed = 1;
nodes = (
"399 597 OFFCURVE",
"317 576 OFFCURVE",
"293 534 CURVE SMOOTH",
"250 461 OFFCURVE",
"299 344 OFFCURVE",
"353 282 CURVE",
"246 277 OFFCURVE",
"23 251 OFFCURVE",
"23 88 CURVE SMOOTH",
"23 -31 OFFCURVE",
"137 -61 OFFCURVE",
"245 -61 CURVE SMOOTH",
"336 -61 OFFCURVE",
"495 -29 OFFCURVE",
"576 17 CURVE SMOOTH",
"637 51 OFFCURVE",
"744 139 OFFCURVE",
"692 214 CURVE",
"689 217 OFFCURVE",
"680 217 OFFCURVE",
"681 212 CURVE SMOOTH",
"695 151 OFFCURVE",
"577 63 OFFCURVE",
"525 37 CURVE SMOOTH",
"461 4 OFFCURVE",
"316 -37 OFFCURVE",
"211 -37 CURVE SMOOTH",
"101 -37 OFFCURVE",
"65 6 OFFCURVE",
"66 59 CURVE SMOOTH",
"68 176 OFFCURVE",
"265 249 OFFCURVE",
"362 251 CURVE",
"380 247 OFFCURVE",
"411 236 OFFCURVE",
"433 236 CURVE SMOOTH",
"440 236 OFFCURVE",
"446 237 OFFCURVE",
"450 240 CURVE SMOOTH",
"468 251 OFFCURVE",
"468 276 OFFCURVE",
"433 279 CURVE SMOOTH",
"422 281 OFFCURVE",
"388 282 OFFCURVE",
"382 289 CURVE SMOOTH",
"338 346 OFFCURVE",
"295 520 OFFCURVE",
"397 560 CURVE SMOOTH",
"405 564 OFFCURVE",
"413 565 OFFCURVE",
"421 565 CURVE SMOOTH",
"447 565 OFFCURVE",
"468 550 OFFCURVE",
"479 539 CURVE SMOOTH",
"505 517 OFFCURVE",
"522 488 OFFCURVE",
"538 455 CURVE SMOOTH",
"550 429 OFFCURVE",
"553 395 OFFCURVE",
"569 376 CURVE SMOOTH",
"574 370 OFFCURVE",
"578 368 OFFCURVE",
"582 368 CURVE SMOOTH",
"600 368 OFFCURVE",
"604 433 OFFCURVE",
"593 461 CURVE SMOOTH",
"587 476 OFFCURVE",
"580 497 OFFCURVE",
"569 506 CURVE SMOOTH",
"564 510 OFFCURVE",
"555 509 OFFCURVE",
"550 511 CURVE SMOOTH",
"539 515 OFFCURVE",
"529 525 OFFCURVE",
"522 532 CURVE SMOOTH",
"500 553 OFFCURVE",
"476 578 OFFCURVE",
"442 587 CURVE SMOOTH"
);
}
);
width = 700;
}
);
note = E;
unicode = 0045;
},
{
glyphname = Eacute;
layers = (
{
hints = (
{
horizontal = 1;
place = "{-20, 39}";
type = Stem;
},
{
horizontal = 1;
place = "{283, 27}";
type = Stem;
},
{
horizontal = 1;
place = "{449, 21}";
target = up;
type = BottomGhost;
},
{
horizontal = 1;
place = "{622, -20}";
target = down;
type = TopGhost;
},
{
horizontal = 1;
place = "{704, 39}";
type = Stem;
},
{
place = "{9, 56}";
type = Stem;
},
{
place = "{310, 35}";
type = Stem;
},
{
place = "{510, 34}";
type = Stem;
},
{
place = "{771, 31}";
type = Stem;
}
);
layerId = "BDD3FA2A-F197-48C4-9241-A354346F8EDC";
paths = (
{
closed = 1;
nodes = (
"628 715 LINE SMOOTH",
"636 721 OFFCURVE",
"636 738 OFFCURVE",
"622 747 CURVE",
"617 748 OFFCURVE",
"605 755 OFFCURVE",
"594 750 CURVE",
"576 726 OFFCURVE",
"547 710 OFFCURVE",
"521 688 CURVE SMOOTH",
"510 680 OFFCURVE",
"468 653 OFFCURVE",
"467 650 CURVE",
"464 647 OFFCURVE",
"459 639 OFFCURVE",
"471 639 CURVE SMOOTH",
"488 641 OFFCURVE",
"606 697 OFFCURVE",
"627 714 CURVE SMOOTH"
);
},
{
closed = 1;
nodes = (
"399 597 OFFCURVE",
"317 576 OFFCURVE",
"293 534 CURVE SMOOTH",
"250 461 OFFCURVE",
"299 344 OFFCURVE",
"353 282 CURVE",
"246 277 OFFCURVE",
"23 251 OFFCURVE",
"23 88 CURVE SMOOTH",
"23 -31 OFFCURVE",
"137 -61 OFFCURVE",
"245 -61 CURVE SMOOTH",
"336 -61 OFFCURVE",
"495 -29 OFFCURVE",
"576 17 CURVE SMOOTH",
"637 51 OFFCURVE",
"744 139 OFFCURVE",
"692 214 CURVE",
"689 217 OFFCURVE",
"680 217 OFFCURVE",
"681 212 CURVE SMOOTH",
"695 151 OFFCURVE",
"577 63 OFFCURVE",
"525 37 CURVE SMOOTH",
"461 4 OFFCURVE",
"316 -37 OFFCURVE",
"211 -37 CURVE SMOOTH",
"101 -37 OFFCURVE",
"65 6 OFFCURVE",
"66 59 CURVE SMOOTH",
"68 176 OFFCURVE",
"265 249 OFFCURVE",
"362 251 CURVE",
"380 247 OFFCURVE",
"411 236 OFFCURVE",
"433 236 CURVE SMOOTH",
"440 236 OFFCURVE",
"446 237 OFFCURVE",
"450 240 CURVE SMOOTH",
"468 251 OFFCURVE",
"468 276 OFFCURVE",
"433 279 CURVE SMOOTH",
"422 281 OFFCURVE",
"388 282 OFFCURVE",
"382 289 CURVE SMOOTH",
"338 346 OFFCURVE",
"295 520 OFFCURVE",
"397 560 CURVE SMOOTH",
"405 564 OFFCURVE",
"413 565 OFFCURVE",
"421 565 CURVE SMOOTH",
"447 565 OFFCURVE",
"468 550 OFFCURVE",
"479 539 CURVE SMOOTH",
"505 517 OFFCURVE",
"522 488 OFFCURVE",
"538 455 CURVE SMOOTH",
"550 429 OFFCURVE",
"553 395 OFFCURVE",
"569 376 CURVE SMOOTH",
"574 370 OFFCURVE",
"578 368 OFFCURVE",
"582 368 CURVE SMOOTH",
"600 368 OFFCURVE",
"604 433 OFFCURVE",
"593 461 CURVE SMOOTH",
"587 476 OFFCURVE",
"580 497 OFFCURVE",
"569 506 CURVE SMOOTH",
"564 510 OFFCURVE",
"555 509 OFFCURVE",
"550 511 CURVE SMOOTH",
"539 515 OFFCURVE",
"529 525 OFFCURVE",
"522 532 CURVE SMOOTH",
"500 553 OFFCURVE",
"476 578 OFFCURVE",
"442 587 CURVE SMOOTH"
);
}
);
width = 700;
}
);
note = Eacute;
unicode = 00C9;
},
{
color = 3;
glyphname = Ebreve;
lastChange = "2021-04-21 15:13:23 +0000";
layers = (
{
hints = (
{
horizontal = 1;
place = "{-20, 39}";
type = Stem;
},
{
horizontal = 1;
place = "{449, 21}";
target = up;
type = BottomGhost;
},
{
horizontal = 1;
place = "{644, 27}";
type = Stem;
},
{
horizontal = 1;
place = "{704, 39}";
type = Stem;
},
{
place = "{9, 56}";
type = Stem;
},
{
place = "{383, 253}";
type = Stem;
},
{
place = "{771, 31}";
type = Stem;
}
);
layerId = "BDD3FA2A-F197-48C4-9241-A354346F8EDC";
paths = (
{
closed = 1;
nodes = (
"592 750 OFFCURVE",
"590 752 OFFCURVE",
"589 752 CURVE SMOOTH",
"588 752 OFFCURVE",
"587 752 OFFCURVE",
"587 750 CURVE",
"569 697 OFFCURVE",
"531 673 OFFCURVE",
"497 673 CURVE SMOOTH",
"461 673 OFFCURVE",
"433 697 OFFCURVE",
"433 739 CURVE SMOOTH",
"433 745 OFFCURVE",
"426 750 OFFCURVE",
"420 750 CURVE SMOOTH",
"411 750 OFFCURVE",
"405 739 OFFCURVE",
"405 720 CURVE SMOOTH",
"405 673 OFFCURVE",
"438 653 OFFCURVE",
"477 653 CURVE SMOOTH",
"525 653 OFFCURVE",
"583 684 OFFCURVE",
"597 743 CURVE SMOOTH",
"597 744 OFFCURVE",
"595 749 OFFCURVE",
"592 750 CURVE"
);
},
{
closed = 1;
nodes = (
"399 597 OFFCURVE",
"317 576 OFFCURVE",
"293 534 CURVE SMOOTH",
"250 461 OFFCURVE",
"299 344 OFFCURVE",
"353 282 CURVE",
"246 277 OFFCURVE",
"23 251 OFFCURVE",
"23 88 CURVE SMOOTH",
"23 -31 OFFCURVE",
"137 -61 OFFCURVE",
"245 -61 CURVE SMOOTH",
"336 -61 OFFCURVE",
"495 -29 OFFCURVE",
"576 17 CURVE SMOOTH",
"637 51 OFFCURVE",
"744 139 OFFCURVE",
"692 214 CURVE",
"689 217 OFFCURVE",
"680 217 OFFCURVE",
"681 212 CURVE SMOOTH",
"695 151 OFFCURVE",
"577 63 OFFCURVE",
"525 37 CURVE SMOOTH",
"461 4 OFFCURVE",
"316 -37 OFFCURVE",
"211 -37 CURVE SMOOTH",
"101 -37 OFFCURVE",
"65 6 OFFCURVE",
"66 59 CURVE SMOOTH",
"68 176 OFFCURVE",
"265 249 OFFCURVE",
"362 251 CURVE",
"380 247 OFFCURVE",
"411 236 OFFCURVE",
"433 236 CURVE SMOOTH",
"440 236 OFFCURVE",
"446 237 OFFCURVE",
"450 240 CURVE SMOOTH",
"468 251 OFFCURVE",
"468 276 OFFCURVE",
"433 279 CURVE SMOOTH",
"422 281 OFFCURVE",
"388 282 OFFCURVE",
"382 289 CURVE SMOOTH",
"338 346 OFFCURVE",
"295 520 OFFCURVE",
"397 560 CURVE SMOOTH",
"405 564 OFFCURVE",
"413 565 OFFCURVE",
"421 565 CURVE SMOOTH",
"447 565 OFFCURVE",
"468 550 OFFCURVE",
"479 539 CURVE SMOOTH",
"505 517 OFFCURVE",
"522 488 OFFCURVE",
"538 455 CURVE SMOOTH",
"550 429 OFFCURVE",
"553 395 OFFCURVE",
"569 376 CURVE SMOOTH",
"574 370 OFFCURVE",
"578 368 OFFCURVE",
"582 368 CURVE SMOOTH",
"600 368 OFFCURVE",
"604 433 OFFCURVE",
"593 461 CURVE SMOOTH",
"587 476 OFFCURVE",
"580 497 OFFCURVE",
"569 506 CURVE SMOOTH",
"564 510 OFFCURVE",
"555 509 OFFCURVE",
"550 511 CURVE SMOOTH",
"539 515 OFFCURVE",
"529 525 OFFCURVE",
"522 532 CURVE SMOOTH",
"500 553 OFFCURVE",
"476 578 OFFCURVE",
"442 587 CURVE SMOOTH"
);
}
);
width = 512;
}
);
note = Ebreve;
unicode = 0114;
},
{
color = 3;
glyphname = Ecaron;
lastChange = "2021-04-21 15:13:23 +0000";
layers = (
{
hints = (
{
horizontal = 1;
place = "{-20, 39}";
type = Stem;
},
{
horizontal = 1;
place = "{449, 21}";
target = up;
type = BottomGhost;
},
{
horizontal = 1;
place = "{704, 39}";
type = Stem;
},
{
place = "{9, 56}";
type = Stem;
},
{
place = "{771, 31}";
type = Stem;
}
);
layerId = "BDD3FA2A-F197-48C4-9241-A354346F8EDC";
paths = (
{
closed = 1;
nodes = (
"528 639 OFFCURVE",
"600 710 OFFCURVE",
"617 723 CURVE SMOOTH",
"623 727 OFFCURVE",
"628 736 OFFCURVE",
"628 741 CURVE SMOOTH",
"628 743 OFFCURVE",
"627 744 OFFCURVE",
"625 744 CURVE SMOOTH",
"604 744 OFFCURVE",
"551 692 OFFCURVE",
"522 673 CURVE",
"500 698 OFFCURVE",
"428 748 OFFCURVE",
"432 748 CURVE",
"428 748 OFFCURVE",
"427 745 OFFCURVE",
"427 741 CURVE SMOOTH",
"427 721 OFFCURVE",
"494 644 OFFCURVE",
"510 638 CURVE"
);
},
{
closed = 1;
nodes = (
"399 597 OFFCURVE",
"317 576 OFFCURVE",
"293 534 CURVE SMOOTH",
"250 461 OFFCURVE",
"299 344 OFFCURVE",
"353 282 CURVE",
"246 277 OFFCURVE",
"23 251 OFFCURVE",
"23 88 CURVE SMOOTH",
"23 -31 OFFCURVE",
"137 -61 OFFCURVE",
"245 -61 CURVE SMOOTH",
"336 -61 OFFCURVE",
"495 -29 OFFCURVE",
"576 17 CURVE SMOOTH",
"637 51 OFFCURVE",
"744 139 OFFCURVE",
"692 214 CURVE",
"689 217 OFFCURVE",
"680 217 OFFCURVE",
"681 212 CURVE SMOOTH",
"695 151 OFFCURVE",
"577 63 OFFCURVE",
"525 37 CURVE SMOOTH",
"461 4 OFFCURVE",
"316 -37 OFFCURVE",
"211 -37 CURVE SMOOTH",
"101 -37 OFFCURVE",
"65 6 OFFCURVE",
"66 59 CURVE SMOOTH",
"68 176 OFFCURVE",
"265 249 OFFCURVE",
"362 251 CURVE",
"380 247 OFFCURVE",
"411 236 OFFCURVE",
"433 236 CURVE SMOOTH",
"440 236 OFFCURVE",
"446 237 OFFCURVE",
"450 240 CURVE SMOOTH",
"468 251 OFFCURVE",
"468 276 OFFCURVE",
"433 279 CURVE SMOOTH",
"422 281 OFFCURVE",
"388 282 OFFCURVE",
"382 289 CURVE SMOOTH",
"338 346 OFFCURVE",
"295 520 OFFCURVE",
"397 560 CURVE SMOOTH",
"405 564 OFFCURVE",
"413 565 OFFCURVE",
"421 565 CURVE SMOOTH",
"447 565 OFFCURVE",
"468 550 OFFCURVE",
"479 539 CURVE SMOOTH",
"505 517 OFFCURVE",
"522 488 OFFCURVE",
"538 455 CURVE SMOOTH",
"550 429 OFFCURVE",
"553 395 OFFCURVE",
"569 376 CURVE SMOOTH",
"574 370 OFFCURVE",
"578 368 OFFCURVE",
"582 368 CURVE SMOOTH",
"600 368 OFFCURVE",
"604 433 OFFCURVE",
"593 461 CURVE SMOOTH",
"587 476 OFFCURVE",
"580 497 OFFCURVE",
"569 506 CURVE SMOOTH",
"564 510 OFFCURVE",
"555 509 OFFCURVE",
"550 511 CURVE SMOOTH",
"539 515 OFFCURVE",
"529 525 OFFCURVE",
"522 532 CURVE SMOOTH",
"500 553 OFFCURVE",
"476 578 OFFCURVE",
"442 587 CURVE SMOOTH"
);
}
);
width = 700;
}
);
note = Ecaron;
unicode = 011A;
},
{
glyphname = Ecircumflex;
layers = (
{
hints = (
{
horizontal = 1;
place = "{-20, 39}";
type = Stem;
},
{
horizontal = 1;
place = "{449, 21}";
target = up;
type = BottomGhost;
},
{
horizontal = 1;
place = "{704, 39}";
type = Stem;
},
{
place = "{9, 56}";
type = Stem;
},
{
place = "{399, 200}";
type = Stem;
},
{
place = "{771, 31}";
type = Stem;
},
{
horizontal = 1;
place = "{641, 110}";
type = Stem;
}
);
layerId = "BDD3FA2A-F197-48C4-9241-A354346F8EDC";
paths = (
{
closed = 1;
nodes = (
"578 687 OFFCURVE",
"536 743 OFFCURVE",
"517 750 CURVE",
"498 749 OFFCURVE",
"426 678 OFFCURVE",
"409 665 CURVE",
"404 660 OFFCURVE",
"398 651 OFFCURVE",
"398 647 CURVE SMOOTH",
"398 645 OFFCURVE",
"399 643 OFFCURVE",
"401 643 CURVE SMOOTH",
"422 643 OFFCURVE",
"475 697 OFFCURVE",
"505 716 CURVE",
"527 692 OFFCURVE",
"598 641 OFFCURVE",
"594 641 CURVE",
"598 641 OFFCURVE",
"599 644 OFFCURVE",
"599 648 CURVE SMOOTH",
"599 651 OFFCURVE",
"598 656 OFFCURVE",
"595 660 CURVE SMOOTH"
);
},
{
closed = 1;
nodes = (
"399 597 OFFCURVE",
"317 576 OFFCURVE",
"293 534 CURVE SMOOTH",
"250 461 OFFCURVE",
"299 344 OFFCURVE",
"353 282 CURVE",
"246 277 OFFCURVE",
"23 251 OFFCURVE",
"23 88 CURVE SMOOTH",
"23 -31 OFFCURVE",
"137 -61 OFFCURVE",
"245 -61 CURVE SMOOTH",
"336 -61 OFFCURVE",
"495 -29 OFFCURVE",
"576 17 CURVE SMOOTH",
"637 51 OFFCURVE",
"744 139 OFFCURVE",
"692 214 CURVE",
"689 217 OFFCURVE",
"680 217 OFFCURVE",
"681 212 CURVE SMOOTH",
"695 151 OFFCURVE",
"577 63 OFFCURVE",
"525 37 CURVE SMOOTH",
"461 4 OFFCURVE",
"316 -37 OFFCURVE",
"211 -37 CURVE SMOOTH",
"101 -37 OFFCURVE",
"65 6 OFFCURVE",
"66 59 CURVE SMOOTH",
"68 176 OFFCURVE",
"265 249 OFFCURVE",
"362 251 CURVE",
"380 247 OFFCURVE",
"411 236 OFFCURVE",
"433 236 CURVE SMOOTH",
"440 236 OFFCURVE",
"446 237 OFFCURVE",
"450 240 CURVE SMOOTH",
"468 251 OFFCURVE",
"468 276 OFFCURVE",
"433 279 CURVE SMOOTH",
"422 281 OFFCURVE",
"388 282 OFFCURVE",
"382 289 CURVE SMOOTH",
"338 346 OFFCURVE",
"295 520 OFFCURVE",
"397 560 CURVE SMOOTH",
"405 564 OFFCURVE",
"413 565 OFFCURVE",
"421 565 CURVE SMOOTH",
"447 565 OFFCURVE",
"468 550 OFFCURVE",
"479 539 CURVE SMOOTH",
"505 517 OFFCURVE",
"522 488 OFFCURVE",
"538 455 CURVE SMOOTH",
"550 429 OFFCURVE",
"553 395 OFFCURVE",
"569 376 CURVE SMOOTH",
"574 370 OFFCURVE",
"578 368 OFFCURVE",
"582 368 CURVE SMOOTH",
"600 368 OFFCURVE",
"604 433 OFFCURVE",
"593 461 CURVE SMOOTH",
"587 476 OFFCURVE",
"580 497 OFFCURVE",
"569 506 CURVE SMOOTH",
"564 510 OFFCURVE",
"555 509 OFFCURVE",
"550 511 CURVE SMOOTH",
"539 515 OFFCURVE",
"529 525 OFFCURVE",
"522 532 CURVE SMOOTH",
"500 553 OFFCURVE",
"476 578 OFFCURVE",
"442 587 CURVE SMOOTH"
);
}
);
width = 700;
}
);
note = Ecircumflex;
unicode = 00CA;
},
{
glyphname = Edieresis;
layers = (
{
hints = (
{
horizontal = 1;
place = "{-20, 39}";
type = Stem;
},
{
horizontal = 1;
place = "{449, 21}";
target = up;
type = BottomGhost;
},
{
horizontal = 1;
place = "{704, 39}";
type = Stem;
},
{
place = "{9, 56}";
type = Stem;
},
{
place = "{403, 65}";
type = Stem;
},
{
place = "{558, 65}";
type = Stem;
},
{
place = "{771, 31}";
type = Stem;
},
{
horizontal = 1;
place = "{644, 65}";
type = Stem;
},
{
place = "{403, 220}";
type = Stem;
}
);
layerId = "BDD3FA2A-F197-48C4-9241-A354346F8EDC";
paths = (
{
closed = 1;
nodes = (
"616 693 OFFCURVE",
"626 710 OFFCURVE",
"621 710 CURVE SMOOTH",
"618 710 OFFCURVE",
"613 707 OFFCURVE",
"604 699 CURVE SMOOTH",
"599 695 OFFCURVE",
"558 665 OFFCURVE",
"558 660 CURVE SMOOTH",
"558 644 OFFCURVE",
"576 644 OFFCURVE",
"590 644 CURVE SMOOTH",
"598 644 OFFCURVE",
"616 672 OFFCURVE",
"616 682 CURVE SMOOTH"
);
},
{
closed = 1;
nodes = (
"461 693 OFFCURVE",
"471 710 OFFCURVE",
"466 710 CURVE SMOOTH",
"463 710 OFFCURVE",
"458 707 OFFCURVE",
"449 699 CURVE SMOOTH",
"444 695 OFFCURVE",
"403 665 OFFCURVE",
"403 660 CURVE SMOOTH",
"403 644 OFFCURVE",
"422 644 OFFCURVE",
"436 644 CURVE SMOOTH",
"444 644 OFFCURVE",
"461 672 OFFCURVE",
"461 682 CURVE SMOOTH"
);
},
{
closed = 1;
nodes = (
"399 597 OFFCURVE",
"317 576 OFFCURVE",
"293 534 CURVE SMOOTH",
"250 461 OFFCURVE",
"299 344 OFFCURVE",
"353 282 CURVE",
"246 277 OFFCURVE",
"23 251 OFFCURVE",
"23 88 CURVE SMOOTH",
"23 -31 OFFCURVE",
"137 -61 OFFCURVE",
"245 -61 CURVE SMOOTH",
"336 -61 OFFCURVE",
"495 -29 OFFCURVE",
"576 17 CURVE SMOOTH",
"637 51 OFFCURVE",
"744 139 OFFCURVE",
"692 214 CURVE",
"689 217 OFFCURVE",
"680 217 OFFCURVE",
"681 212 CURVE SMOOTH",
"695 151 OFFCURVE",
"577 63 OFFCURVE",
"525 37 CURVE SMOOTH",
"461 4 OFFCURVE",
"316 -37 OFFCURVE",
"211 -37 CURVE SMOOTH",
"101 -37 OFFCURVE",
"65 6 OFFCURVE",
"66 59 CURVE SMOOTH",
"68 176 OFFCURVE",
"265 249 OFFCURVE",
"362 251 CURVE",
"380 247 OFFCURVE",
"411 236 OFFCURVE",
"433 236 CURVE SMOOTH",
"440 236 OFFCURVE",
"446 237 OFFCURVE",
"450 240 CURVE SMOOTH",
"468 251 OFFCURVE",
"468 276 OFFCURVE",
"433 279 CURVE SMOOTH",
"422 281 OFFCURVE",
"388 282 OFFCURVE",
"382 289 CURVE SMOOTH",
"338 346 OFFCURVE",
"295 520 OFFCURVE",
"397 560 CURVE SMOOTH",
"405 564 OFFCURVE",
"413 565 OFFCURVE",
"421 565 CURVE SMOOTH",
"447 565 OFFCURVE",
"468 550 OFFCURVE",
"479 539 CURVE SMOOTH",
"505 517 OFFCURVE",
"522 488 OFFCURVE",
"538 455 CURVE SMOOTH",
"550 429 OFFCURVE",
"553 395 OFFCURVE",
"569 376 CURVE SMOOTH",
"574 370 OFFCURVE",
"578 368 OFFCURVE",
"582 368 CURVE SMOOTH",
"600 368 OFFCURVE",
"604 433 OFFCURVE",
"593 461 CURVE SMOOTH",
"587 476 OFFCURVE",
"580 497 OFFCURVE",
"569 506 CURVE SMOOTH",
"564 510 OFFCURVE",
"555 509 OFFCURVE",
"550 511 CURVE SMOOTH",
"539 515 OFFCURVE",
"529 525 OFFCURVE",
"522 532 CURVE SMOOTH",
"500 553 OFFCURVE",
"476 578 OFFCURVE",
"442 587 CURVE SMOOTH"
);
}
);
width = 700;
}
);
note = Edieresis;
unicode = 00CB;
},
{
color = 3;
glyphname = Edotaccent;
lastChange = "2021-04-21 15:13:23 +0000";
layers = (
{
hints = (
{
horizontal = 1;
place = "{-20, 39}";
type = Stem;
},
{
horizontal = 1;
place = "{449, 21}";
target = up;
type = BottomGhost;
},
{
horizontal = 1;
place = "{651, 61}";
type = Stem;
},
{
horizontal = 1;
place = "{704, 39}";
type = Stem;
},
{
place = "{9, 56}";
type = Stem;
},
{
place = "{482, 60}";
type = Stem;
},
{
place = "{771, 31}";
type = Stem;
}
);
layerId = "BDD3FA2A-F197-48C4-9241-A354346F8EDC";
paths = (
{
closed = 1;
nodes = (
"551 699 OFFCURVE",
"551 703 OFFCURVE",
"551 708 CURVE SMOOTH",
"551 717 OFFCURVE",
"550 725 OFFCURVE",
"543 725 CURVE SMOOTH",
"528 725 OFFCURVE",
"471 673 OFFCURVE",
"471 666 CURVE SMOOTH",
"471 643 OFFCURVE",
"498 643 OFFCURVE",
"515 643 CURVE SMOOTH",
"527 643 OFFCURVE",
"551 682 OFFCURVE",
"551 694 CURVE SMOOTH"
);
},
{
closed = 1;
nodes = (
"399 597 OFFCURVE",
"317 576 OFFCURVE",
"293 534 CURVE SMOOTH",
"250 461 OFFCURVE",
"299 344 OFFCURVE",
"353 282 CURVE",
"246 277 OFFCURVE",
"23 251 OFFCURVE",
"23 88 CURVE SMOOTH",
"23 -31 OFFCURVE",
"137 -61 OFFCURVE",
"245 -61 CURVE SMOOTH",
"336 -61 OFFCURVE",
"495 -29 OFFCURVE",
"576 17 CURVE SMOOTH",
"637 51 OFFCURVE",
"744 139 OFFCURVE",
"692 214 CURVE",
"689 217 OFFCURVE",
"680 217 OFFCURVE",
"681 212 CURVE SMOOTH",
"695 151 OFFCURVE",
"577 63 OFFCURVE",
"525 37 CURVE SMOOTH",
"461 4 OFFCURVE",
"316 -37 OFFCURVE",
"211 -37 CURVE SMOOTH",
"101 -37 OFFCURVE",
"65 6 OFFCURVE",
"66 59 CURVE SMOOTH",
"68 176 OFFCURVE",
"265 249 OFFCURVE",
"362 251 CURVE",
"380 247 OFFCURVE",
"411 236 OFFCURVE",
"433 236 CURVE SMOOTH",
"440 236 OFFCURVE",
"446 237 OFFCURVE",
"450 240 CURVE SMOOTH",
"468 251 OFFCURVE",
"468 276 OFFCURVE",
"433 279 CURVE SMOOTH",
"422 281 OFFCURVE",
"388 282 OFFCURVE",
"382 289 CURVE SMOOTH",
"338 346 OFFCURVE",
"295 520 OFFCURVE",
"397 560 CURVE SMOOTH",
"405 564 OFFCURVE",
"413 565 OFFCURVE",
"421 565 CURVE SMOOTH",
"447 565 OFFCURVE",
"468 550 OFFCURVE",
"479 539 CURVE SMOOTH",
"505 517 OFFCURVE",
"522 488 OFFCURVE",
"538 455 CURVE SMOOTH",
"550 429 OFFCURVE",
"553 395 OFFCURVE",
"569 376 CURVE SMOOTH",
"574 370 OFFCURVE",
"578 368 OFFCURVE",
"582 368 CURVE SMOOTH",
"600 368 OFFCURVE",
"604 433 OFFCURVE",
"593 461 CURVE SMOOTH",
"587 476 OFFCURVE",
"580 497 OFFCURVE",
"569 506 CURVE SMOOTH",
"564 510 OFFCURVE",
"555 509 OFFCURVE",
"550 511 CURVE SMOOTH",
"539 515 OFFCURVE",
"529 525 OFFCURVE",
"522 532 CURVE SMOOTH",
"500 553 OFFCURVE",
"476 578 OFFCURVE",
"442 587 CURVE SMOOTH"
);
}
);
width = 700;
}
);
note = Edotaccent;
unicode = 0116;
},
{
glyphname = Egrave;
layers = (
{
hints = (
{
horizontal = 1;
place = "{-20, 39}";
type = Stem;
},
{
horizontal = 1;
place = "{449, 21}";
target = up;
type = BottomGhost;
},
{
horizontal = 1;
place = "{704, 39}";
type = Stem;
},
{
place = "{9, 56}";
type = Stem;
},
{
place = "{405, 173}";
type = Stem;
},
{
place = "{771, 31}";
type = Stem;
},
{
horizontal = 1;
place = "{636, 109}";
type = Stem;
}
);
layerId = "BDD3FA2A-F197-48C4-9241-A354346F8EDC";
paths = (
{
closed = 1;
nodes = (
"540 671 OFFCURVE",
"508 695 OFFCURVE",
"475 721 CURVE SMOOTH",
"454 736 OFFCURVE",
"436 749 OFFCURVE",
"418 743 CURVE SMOOTH",
"383 731 OFFCURVE",
"426 702 OFFCURVE",
"439 694 CURVE SMOOTH",
"481 671 OFFCURVE",
"556 636 OFFCURVE",
"570 636 CURVE SMOOTH",
"582 636 OFFCURVE",
"578 644 OFFCURVE",
"573 647 CURVE SMOOTH"
);
},
{
closed = 1;
nodes = (
"399 597 OFFCURVE",
"317 576 OFFCURVE",
"293 534 CURVE SMOOTH",
"250 461 OFFCURVE",
"299 344 OFFCURVE",
"353 282 CURVE",
"246 277 OFFCURVE",
"23 251 OFFCURVE",
"23 88 CURVE SMOOTH",
"23 -31 OFFCURVE",
"137 -61 OFFCURVE",
"245 -61 CURVE SMOOTH",
"336 -61 OFFCURVE",
"495 -29 OFFCURVE",
"576 17 CURVE SMOOTH",
"637 51 OFFCURVE",
"744 139 OFFCURVE",
"692 214 CURVE",
"689 217 OFFCURVE",
"680 217 OFFCURVE",
"681 212 CURVE SMOOTH",
"695 151 OFFCURVE",
"577 63 OFFCURVE",
"525 37 CURVE SMOOTH",
"461 4 OFFCURVE",
"316 -37 OFFCURVE",
"211 -37 CURVE SMOOTH",
"101 -37 OFFCURVE",
"65 6 OFFCURVE",
"66 59 CURVE SMOOTH",
"68 176 OFFCURVE",
"265 249 OFFCURVE",
"362 251 CURVE",
"380 247 OFFCURVE",
"411 236 OFFCURVE",
"433 236 CURVE SMOOTH",
"440 236 OFFCURVE",
"446 237 OFFCURVE",
"450 240 CURVE SMOOTH",
"468 251 OFFCURVE",
"468 276 OFFCURVE",
"433 279 CURVE SMOOTH",
"422 281 OFFCURVE",
"388 282 OFFCURVE",
"382 289 CURVE SMOOTH",
"338 346 OFFCURVE",
"295 520 OFFCURVE",
"397 560 CURVE SMOOTH",
"405 564 OFFCURVE",
"413 565 OFFCURVE",
"421 565 CURVE SMOOTH",
"447 565 OFFCURVE",
"468 550 OFFCURVE",
"479 539 CURVE SMOOTH",
"505 517 OFFCURVE",
"522 488 OFFCURVE",
"538 455 CURVE SMOOTH",
"550 429 OFFCURVE",
"553 395 OFFCURVE",
"569 376 CURVE SMOOTH",
"574 370 OFFCURVE",
"578 368 OFFCURVE",
"582 368 CURVE SMOOTH",
"600 368 OFFCURVE",
"604 433 OFFCURVE",
"593 461 CURVE SMOOTH",
"587 476 OFFCURVE",
"580 497 OFFCURVE",
"569 506 CURVE SMOOTH",
"564 510 OFFCURVE",
"555 509 OFFCURVE",
"550 511 CURVE SMOOTH",
"539 515 OFFCURVE",
"529 525 OFFCURVE",
"522 532 CURVE SMOOTH",
"500 553 OFFCURVE",
"476 578 OFFCURVE",
"442 587 CURVE SMOOTH"
);
}
);
width = 700;
}
);
note = Egrave;
unicode = 00C8;
},
{
color = 3;
glyphname = Emacron;
lastChange = "2021-04-21 15:13:23 +0000";
layers = (
{
hints = (
{
horizontal = 1;
place = "{-20, 39}";
type = Stem;
},
{
horizontal = 1;
place = "{449, 21}";
target = up;
type = BottomGhost;
},
{
horizontal = 1;
place = "{661, 37}";
type = Stem;
},
{
horizontal = 1;
place = "{704, 39}";
type = Stem;
},
{
place = "{9, 56}";
type = Stem;
},
{
place = "{403, 229}";
type = Stem;
},
{
place = "{771, 31}";
type = Stem;
}
);
layerId = "BDD3FA2A-F197-48C4-9241-A354346F8EDC";
paths = (
{
closed = 1;
nodes = (
"587 671 OFFCURVE",
"632 673 OFFCURVE",
"632 686 CURVE",
"631 692 OFFCURVE",
"610 698 OFFCURVE",
"578 698 CURVE SMOOTH",
"492 698 OFFCURVE",
"403 708 OFFCURVE",
"403 671 CURVE SMOOTH",
"403 664 OFFCURVE",
"407 661 OFFCURVE",
"425 661 CURVE SMOOTH",
"458 661 OFFCURVE",
"533 667 OFFCURVE",
"580 670 CURVE SMOOTH"
);
},
{
closed = 1;
nodes = (
"399 597 OFFCURVE",
"317 576 OFFCURVE",
"293 534 CURVE SMOOTH",
"250 461 OFFCURVE",
"299 344 OFFCURVE",
"353 282 CURVE",
"246 277 OFFCURVE",
"23 251 OFFCURVE",
"23 88 CURVE SMOOTH",
"23 -31 OFFCURVE",
"137 -61 OFFCURVE",
"245 -61 CURVE SMOOTH",
"336 -61 OFFCURVE",
"495 -29 OFFCURVE",
"576 17 CURVE SMOOTH",
"637 51 OFFCURVE",
"744 139 OFFCURVE",
"692 214 CURVE",
"689 217 OFFCURVE",
"680 217 OFFCURVE",
"681 212 CURVE SMOOTH",
"695 151 OFFCURVE",
"577 63 OFFCURVE",
"525 37 CURVE SMOOTH",
"461 4 OFFCURVE",
"316 -37 OFFCURVE",
"211 -37 CURVE SMOOTH",
"101 -37 OFFCURVE",
"65 6 OFFCURVE",
"66 59 CURVE SMOOTH",
"68 176 OFFCURVE",
"265 249 OFFCURVE",
"362 251 CURVE",
"380 247 OFFCURVE",
"411 236 OFFCURVE",
"433 236 CURVE SMOOTH",
"440 236 OFFCURVE",
"446 237 OFFCURVE",
"450 240 CURVE SMOOTH",
"468 251 OFFCURVE",
"468 276 OFFCURVE",
"433 279 CURVE SMOOTH",
"422 281 OFFCURVE",
"388 282 OFFCURVE",
"382 289 CURVE SMOOTH",
"338 346 OFFCURVE",
"295 520 OFFCURVE",
"397 560 CURVE SMOOTH",
"405 564 OFFCURVE",
"413 565 OFFCURVE",
"421 565 CURVE SMOOTH",
"447 565 OFFCURVE",
"468 550 OFFCURVE",
"479 539 CURVE SMOOTH",
"505 517 OFFCURVE",
"522 488 OFFCURVE",
"538 455 CURVE SMOOTH",
"550 429 OFFCURVE",
"553 395 OFFCURVE",
"569 376 CURVE SMOOTH",
"574 370 OFFCURVE",
"578 368 OFFCURVE",
"582 368 CURVE SMOOTH",
"600 368 OFFCURVE",
"604 433 OFFCURVE",
"593 461 CURVE SMOOTH",
"587 476 OFFCURVE",
"580 497 OFFCURVE",
"569 506 CURVE SMOOTH",
"564 510 OFFCURVE",
"555 509 OFFCURVE",
"550 511 CURVE SMOOTH",
"539 515 OFFCURVE",
"529 525 OFFCURVE",
"522 532 CURVE SMOOTH",
"500 553 OFFCURVE",
"476 578 OFFCURVE",
"442 587 CURVE SMOOTH"
);
}
);
width = 700;
}
);
note = Emacron;
unicode = 0112;
},
{
color = 3;
glyphname = Eogonek;
lastChange = "2021-04-21 15:13:23 +0000";
layers = (
{
hints = (
{
horizontal = 1;
place = "{-20, 39}";
type = Stem;
},
{
horizontal = 1;
place = "{449, 21}";
target = up;
type = BottomGhost;
},
{
horizontal = 1;
place = "{704, 39}";
type = Stem;
},
{
place = "{9, 56}";
type = Stem;
},
{
place = "{771, 31}";
type = Stem;
}
);
layerId = "BDD3FA2A-F197-48C4-9241-A354346F8EDC";
paths = (
{
closed = 1;
nodes = (
"399 597 OFFCURVE",
"317 576 OFFCURVE",
"293 534 CURVE SMOOTH",
"250 461 OFFCURVE",
"299 344 OFFCURVE",
"353 282 CURVE",
"246 277 OFFCURVE",
"23 251 OFFCURVE",
"23 88 CURVE SMOOTH",
"23 -22 OFFCURVE",
"120 -56 OFFCURVE",
"220 -60 CURVE",
"182 -80 OFFCURVE",
"119 -123 OFFCURVE",
"67 -159 CURVE SMOOTH",
"21 -190 OFFCURVE",
"-12 -233 OFFCURVE",
"-12 -272 CURVE SMOOTH",
"-12 -311 OFFCURVE",
"29 -344 OFFCURVE",
"65 -344 CURVE SMOOTH",
"143 -344 OFFCURVE",
"214 -239 OFFCURVE",
"228 -222 CURVE SMOOTH",
"233 -217 OFFCURVE",
"235 -211 OFFCURVE",
"235 -206 CURVE SMOOTH",
"235 -204 OFFCURVE",
"234 -201 OFFCURVE",
"231 -201 CURVE SMOOTH",
"227 -201 OFFCURVE",
"222 -204 OFFCURVE",
"216 -210 CURVE",
"196 -224 OFFCURVE",
"90 -327 OFFCURVE",
"50 -327 CURVE SMOOTH",
"35 -327 OFFCURVE",
"31 -310 OFFCURVE",
"31 -298 CURVE SMOOTH",
"31 -251 OFFCURVE",
"92 -182 OFFCURVE",
"116 -160 CURVE SMOOTH",
"163 -117 OFFCURVE",
"215 -95 OFFCURVE",
"253 -61 CURVE",
"345 -59 OFFCURVE",
"497 -28 OFFCURVE",
"576 17 CURVE SMOOTH",
"637 51 OFFCURVE",
"744 139 OFFCURVE",
"692 214 CURVE",
"689 217 OFFCURVE",
"680 217 OFFCURVE",
"681 212 CURVE SMOOTH",
"695 151 OFFCURVE",
"577 63 OFFCURVE",
"525 37 CURVE SMOOTH",
"461 4 OFFCURVE",
"316 -37 OFFCURVE",
"211 -37 CURVE SMOOTH",
"101 -37 OFFCURVE",
"65 6 OFFCURVE",
"66 59 CURVE SMOOTH",
"68 176 OFFCURVE",
"265 249 OFFCURVE",
"362 251 CURVE",
"380 247 OFFCURVE",
"411 236 OFFCURVE",
"433 236 CURVE SMOOTH",
"440 236 OFFCURVE",
"446 237 OFFCURVE",
"450 240 CURVE SMOOTH",
"468 251 OFFCURVE",
"468 276 OFFCURVE",
"433 279 CURVE SMOOTH",
"422 281 OFFCURVE",
"388 282 OFFCURVE",
"382 289 CURVE SMOOTH",
"338 346 OFFCURVE",
"295 520 OFFCURVE",
"397 560 CURVE SMOOTH",
"405 564 OFFCURVE",
"413 565 OFFCURVE",
"421 565 CURVE SMOOTH",
"447 565 OFFCURVE",
"468 550 OFFCURVE",
"479 539 CURVE SMOOTH",
"505 517 OFFCURVE",
"522 488 OFFCURVE",
"538 455 CURVE SMOOTH",
"550 429 OFFCURVE",
"553 395 OFFCURVE",
"569 376 CURVE SMOOTH",
"574 370 OFFCURVE",
"578 368 OFFCURVE",
"582 368 CURVE SMOOTH",
"600 368 OFFCURVE",
"604 433 OFFCURVE",
"593 461 CURVE SMOOTH",
"587 476 OFFCURVE",
"580 497 OFFCURVE",
"569 506 CURVE SMOOTH",
"564 510 OFFCURVE",
"555 509 OFFCURVE",
"550 511 CURVE SMOOTH",
"539 515 OFFCURVE",
"529 525 OFFCURVE",
"522 532 CURVE SMOOTH",
"500 553 OFFCURVE",
"476 578 OFFCURVE",
"442 587 CURVE SMOOTH"
);
}
);
width = 700;
}
);
note = Eogonek;
unicode = 0118;
},
{
glyphname = F;
layers = (
{
hints = (
{
horizontal = 1;
place = "{355, 193}";
type = Stem;
},
{
horizontal = 1;
place = "{722, 59}";
type = Stem;
},
{
place = "{-110, 74}";
type = Stem;
},
{
place = "{48, 55}";
type = Stem;
}
);
layerId = "BDD3FA2A-F197-48C4-9241-A354346F8EDC";
paths = (
{
closed = 1;
nodes = (
"610 422 OFFCURVE",
"639 465 OFFCURVE",
"671 495 CURVE SMOOTH",
"688 512 OFFCURVE",
"708 523 OFFCURVE",
"717 533 CURVE SMOOTH",
"737 553 OFFCURVE",
"712 569 OFFCURVE",
"691 564 CURVE SMOOTH",
"682 562 OFFCURVE",
"664 553 OFFCURVE",
"647 533 CURVE",
"515 537 OFFCURVE",
"429 577 OFFCURVE",
"279 567 CURVE SMOOTH",
"154 559 OFFCURVE",
"35 512 OFFCURVE",
"15 415 CURVE",
"13 410 OFFCURVE",
"13 400 OFFCURVE",
"13 399 CURVE",
"-7 342 OFFCURVE",
"55 296 OFFCURVE",
"88 287 CURVE SMOOTH",
"100 283 OFFCURVE",
"109 290 OFFCURVE",
"96 299 CURVE SMOOTH",
"77 314 OFFCURVE",
"27 332 OFFCURVE",
"38 379 CURVE SMOOTH",
"64 497 OFFCURVE",
"251 533 OFFCURVE",
"357 533 CURVE SMOOTH",
"450 533 OFFCURVE",
"540 515 OFFCURVE",
"634 519 CURVE",
"630 512 OFFCURVE",
"626 505 OFFCURVE",
"621 498 CURVE",
"600 459 OFFCURVE",
"603 398 OFFCURVE",
"614 386 CURVE SMOOTH",
"618 381 OFFCURVE",
"623 379 OFFCURVE",
"626 379 CURVE SMOOTH",
"632 379 OFFCURVE",
"635 385 OFFCURVE",
"632 389 CURVE SMOOTH"
);
},
{
closed = 1;
nodes = (
"209 9 OFFCURVE",
"176 5 OFFCURVE",
"199 61 CURVE SMOOTH",
"212 93 OFFCURVE",
"240 151 OFFCURVE",
"273 212 CURVE",
"356 221 OFFCURVE",
"471 238 OFFCURVE",
"503 249 CURVE SMOOTH",
"543 264 OFFCURVE",
"517 270 OFFCURVE",
"504 270 CURVE SMOOTH",
"458 270 OFFCURVE",
"407 262 OFFCURVE",
"360 255 CURVE SMOOTH",
"337 251 OFFCURVE",
"316 249 OFFCURVE",
"293 246 CURVE",
"351 348 OFFCURVE",
"423 445 OFFCURVE",
"476 445 CURVE SMOOTH",
"479 445 OFFCURVE",
"484 443 OFFCURVE",
"488 440 CURVE",
"492 471 OFFCURVE",
"443 484 OFFCURVE",
"431 484 CURVE SMOOTH",
"379 484 OFFCURVE",
"311 400 OFFCURVE",
"305 368 CURVE",
"307 362 OFFCURVE",
"311 353 OFFCURVE",
"299 328 CURVE SMOOTH",
"290 311 OFFCURVE",
"275 282 OFFCURVE",
"255 245 CURVE",
"251 245 LINE SMOOTH",
"244 245 OFFCURVE",
"240 264 OFFCURVE",
"224 264 CURVE SMOOTH",
"211 264 OFFCURVE",
"170 251 OFFCURVE",
"170 232 CURVE SMOOTH",
"170 216 OFFCURVE",
"184 206 OFFCURVE",
"195 206 CURVE SMOOTH",
"204 206 OFFCURVE",
"217 207 OFFCURVE",
"235 209 CURVE",
"190 124 OFFCURVE",
"143 26 OFFCURVE",
"148 -13 CURVE SMOOTH",
"149 -21 OFFCURVE",
"179 -26 OFFCURVE",
"185 -26 CURVE SMOOTH",
"212 -26 OFFCURVE",
"238 22 OFFCURVE",
"254 43 CURVE SMOOTH",
"255 44 OFFCURVE",
"272 63 OFFCURVE",
"266 68 CURVE",
"257 70 OFFCURVE",
"244 52 OFFCURVE",
"231 35 CURVE SMOOTH"
);
}
);
width = 517;
}
);
note = F;
unicode = 0046;
},
{
glyphname = G;
layers = (
{
hints = (
{
horizontal = 1;
place = "{107, 60}";
type = Stem;
},
{
place = "{167, 62}";
type = Stem;
},
{
place = "{734, 50}";
type = Stem;
}
);
layerId = "BDD3FA2A-F197-48C4-9241-A354346F8EDC";
paths = (
{
closed = 1;
nodes = (
"161 -273 OFFCURVE",
"193 -362 OFFCURVE",
"276 -362 CURVE SMOOTH",
"365 -362 OFFCURVE",
"514 -260 OFFCURVE",
"626 23 CURVE SMOOTH",
"634 46 OFFCURVE",
"710 61 OFFCURVE",
"725 54 CURVE SMOOTH",
"732 50 OFFCURVE",
"736 62 OFFCURVE",
"728 67 CURVE SMOOTH",
"717 73 OFFCURVE",
"683 68 OFFCURVE",
"638 57 CURVE",
"656 105 OFFCURVE",
"672 153 OFFCURVE",
"688 199 CURVE SMOOTH",
"706 254 OFFCURVE",
"737 300 OFFCURVE",
"777 298 CURVE",
"789 296 OFFCURVE",
"795 309 OFFCURVE",
"781 311 CURVE SMOOTH",
"775 311 OFFCURVE",
"760 315 OFFCURVE",
"742 315 CURVE SMOOTH",
"710 315 OFFCURVE",
"667 304 OFFCURVE",
"643 244 CURVE",
"560 165 OFFCURVE",
"504 106 OFFCURVE",
"394 73 CURVE SMOOTH",
"344 58 OFFCURVE",
"296 50 OFFCURVE",
"253 50 CURVE SMOOTH",
"162 50 OFFCURVE",
"96 87 OFFCURVE",
"96 177 CURVE SMOOTH",
"96 373 OFFCURVE",
"450 566 OFFCURVE",
"593 566 CURVE SMOOTH",
"637 566 OFFCURVE",
"688 554 OFFCURVE",
"692 501 CURVE SMOOTH",
"692 491 OFFCURVE",
"697 486 OFFCURVE",
"702 486 CURVE SMOOTH",
"710 486 OFFCURVE",
"718 498 OFFCURVE",
"714 522 CURVE SMOOTH",
"705 578 OFFCURVE",
"604 588 OFFCURVE",
"573 588 CURVE SMOOTH",
"436 588 OFFCURVE",
"311 548 OFFCURVE",
"207 454 CURVE SMOOTH",
"118 373 OFFCURVE",
"72 281 OFFCURVE",
"72 181 CURVE SMOOTH",
"72 58 OFFCURVE",
"169 3 OFFCURVE",
"271 3 CURVE SMOOTH",
"409 3 OFFCURVE",
"537 107 OFFCURVE",
"632 196 CURVE",
"617 144 OFFCURVE",
"601 93 OFFCURVE",
"584 43 CURVE",
"458 2 OFFCURVE",
"348 -60 OFFCURVE",
"260 -161 CURVE SMOOTH"
);
},
{
closed = 1;
nodes = (
"545 -68 OFFCURVE",
"423 -336 OFFCURVE",
"303 -336 CURVE SMOOTH",
"244 -336 OFFCURVE",
"223 -260 OFFCURVE",
"307 -156 CURVE SMOOTH",
"378 -68 OFFCURVE",
"471 -11 OFFCURVE",
"578 24 CURVE"
);
}
);
width = 780;
}
);
note = G;
unicode = 0047;
},
{
color = 3;
glyphname = Gbreve;
lastChange = "2021-04-21 15:13:23 +0000";
layers = (
{
hints = (
{
horizontal = 1;
place = "{107, 60}";
type = Stem;
},
{
horizontal = 1;
place = "{653, 27}";
type = Stem;
},
{
place = "{167, 62}";
type = Stem;
},
{
place = "{505, 253}";
type = Stem;
},
{
place = "{734, 50}";
type = Stem;
}
);
layerId = "BDD3FA2A-F197-48C4-9241-A354346F8EDC";
paths = (
{
closed = 1;
nodes = (
"714 759 OFFCURVE",
"712 760 OFFCURVE",
"711 760 CURVE SMOOTH",
"710 760 OFFCURVE",
"709 760 OFFCURVE",
"709 759 CURVE",
"691 705 OFFCURVE",
"653 682 OFFCURVE",
"619 682 CURVE SMOOTH",
"583 682 OFFCURVE",
"555 705 OFFCURVE",
"555 748 CURVE SMOOTH",
"555 754 OFFCURVE",
"548 759 OFFCURVE",
"542 759 CURVE SMOOTH",
"533 759 OFFCURVE",
"527 748 OFFCURVE",
"527 728 CURVE SMOOTH",
"527 682 OFFCURVE",
"560 661 OFFCURVE",
"599 661 CURVE SMOOTH",
"647 661 OFFCURVE",
"705 693 OFFCURVE",
"719 752 CURVE SMOOTH",
"719 753 OFFCURVE",
"717 758 OFFCURVE",
"714 759 CURVE"
);
},
{
closed = 1;
nodes = (
"161 -273 OFFCURVE",
"193 -362 OFFCURVE",
"276 -362 CURVE SMOOTH",
"365 -362 OFFCURVE",
"514 -260 OFFCURVE",
"626 23 CURVE SMOOTH",
"634 46 OFFCURVE",
"710 61 OFFCURVE",
"725 54 CURVE SMOOTH",
"732 50 OFFCURVE",
"736 62 OFFCURVE",
"728 67 CURVE SMOOTH",
"717 73 OFFCURVE",
"683 68 OFFCURVE",
"638 57 CURVE",
"656 105 OFFCURVE",
"672 153 OFFCURVE",
"688 199 CURVE SMOOTH",
"706 254 OFFCURVE",
"737 300 OFFCURVE",
"777 298 CURVE",
"789 296 OFFCURVE",
"795 309 OFFCURVE",
"781 311 CURVE SMOOTH",
"775 311 OFFCURVE",
"760 315 OFFCURVE",
"742 315 CURVE SMOOTH",
"710 315 OFFCURVE",
"667 304 OFFCURVE",
"643 244 CURVE",
"560 165 OFFCURVE",
"504 106 OFFCURVE",
"394 73 CURVE SMOOTH",
"344 58 OFFCURVE",
"296 50 OFFCURVE",
"253 50 CURVE SMOOTH",
"162 50 OFFCURVE",
"96 87 OFFCURVE",
"96 177 CURVE SMOOTH",
"96 373 OFFCURVE",
"450 566 OFFCURVE",
"593 566 CURVE SMOOTH",
"637 566 OFFCURVE",
"688 554 OFFCURVE",
"692 501 CURVE SMOOTH",
"692 491 OFFCURVE",
"697 486 OFFCURVE",
"702 486 CURVE SMOOTH",
"710 486 OFFCURVE",
"718 498 OFFCURVE",
"714 522 CURVE SMOOTH",
"705 578 OFFCURVE",
"604 588 OFFCURVE",
"573 588 CURVE SMOOTH",
"436 588 OFFCURVE",
"311 548 OFFCURVE",
"207 454 CURVE SMOOTH",
"118 373 OFFCURVE",
"72 281 OFFCURVE",
"72 181 CURVE SMOOTH",
"72 58 OFFCURVE",
"169 3 OFFCURVE",
"271 3 CURVE SMOOTH",
"409 3 OFFCURVE",
"537 107 OFFCURVE",
"632 196 CURVE",
"617 144 OFFCURVE",
"601 93 OFFCURVE",
"584 43 CURVE",
"458 2 OFFCURVE",
"348 -60 OFFCURVE",
"260 -161 CURVE SMOOTH"
);
},
{
closed = 1;
nodes = (
"545 -68 OFFCURVE",
"423 -336 OFFCURVE",
"303 -336 CURVE SMOOTH",
"244 -336 OFFCURVE",
"223 -260 OFFCURVE",
"307 -156 CURVE SMOOTH",
"378 -68 OFFCURVE",
"471 -11 OFFCURVE",
"578 24 CURVE"
);
}
);
width = 780;
}
);
note = Gbreve;
unicode = 011E;
},
{
color = 3;
glyphname = Gdotaccent;
lastChange = "2021-04-21 15:13:23 +0000";
layers = (
{
hints = (
{
horizontal = 1;
place = "{107, 60}";
type = Stem;
},
{
horizontal = 1;
place = "{670, 61}";
type = Stem;
},
{
place = "{167, 62}";
type = Stem;
},
{
place = "{621, 60}";
type = Stem;
},
{
place = "{734, 50}";
type = Stem;
}
);
layerId = "BDD3FA2A-F197-48C4-9241-A354346F8EDC";
paths = (
{
closed = 1;
nodes = (
"691 717 OFFCURVE",
"691 721 OFFCURVE",
"691 726 CURVE SMOOTH",
"691 736 OFFCURVE",
"689 743 OFFCURVE",
"682 743 CURVE SMOOTH",
"667 743 OFFCURVE",
"610 691 OFFCURVE",
"610 684 CURVE SMOOTH",
"610 661 OFFCURVE",
"637 661 OFFCURVE",
"654 661 CURVE SMOOTH",
"666 661 OFFCURVE",
"691 700 OFFCURVE",
"691 712 CURVE SMOOTH"
);
},
{
closed = 1;
nodes = (
"161 -273 OFFCURVE",
"193 -362 OFFCURVE",
"276 -362 CURVE SMOOTH",
"365 -362 OFFCURVE",
"514 -260 OFFCURVE",
"626 23 CURVE SMOOTH",
"634 46 OFFCURVE",
"710 61 OFFCURVE",
"725 54 CURVE SMOOTH",
"732 50 OFFCURVE",
"736 62 OFFCURVE",
"728 67 CURVE SMOOTH",
"717 73 OFFCURVE",
"683 68 OFFCURVE",
"638 57 CURVE",
"656 105 OFFCURVE",
"672 153 OFFCURVE",
"688 199 CURVE SMOOTH",
"706 254 OFFCURVE",
"737 300 OFFCURVE",
"777 298 CURVE",
"789 296 OFFCURVE",
"795 309 OFFCURVE",
"781 311 CURVE SMOOTH",
"775 311 OFFCURVE",
"760 315 OFFCURVE",
"742 315 CURVE SMOOTH",
"710 315 OFFCURVE",
"667 304 OFFCURVE",
"643 244 CURVE",
"560 165 OFFCURVE",
"504 106 OFFCURVE",
"394 73 CURVE SMOOTH",
"344 58 OFFCURVE",
"296 50 OFFCURVE",
"253 50 CURVE SMOOTH",
"162 50 OFFCURVE",
"96 87 OFFCURVE",
"96 177 CURVE SMOOTH",
"96 373 OFFCURVE",
"450 566 OFFCURVE",
"593 566 CURVE SMOOTH",
"637 566 OFFCURVE",
"688 554 OFFCURVE",
"692 501 CURVE SMOOTH",
"692 491 OFFCURVE",
"697 486 OFFCURVE",
"702 486 CURVE SMOOTH",
"710 486 OFFCURVE",
"718 498 OFFCURVE",
"714 522 CURVE SMOOTH",
"705 578 OFFCURVE",
"604 588 OFFCURVE",
"573 588 CURVE SMOOTH",
"436 588 OFFCURVE",
"311 548 OFFCURVE",
"207 454 CURVE SMOOTH",
"118 373 OFFCURVE",
"72 281 OFFCURVE",
"72 181 CURVE SMOOTH",
"72 58 OFFCURVE",
"169 3 OFFCURVE",
"271 3 CURVE SMOOTH",
"409 3 OFFCURVE",
"537 107 OFFCURVE",
"632 196 CURVE",
"617 144 OFFCURVE",
"601 93 OFFCURVE",
"584 43 CURVE",
"458 2 OFFCURVE",
"348 -60 OFFCURVE",
"260 -161 CURVE SMOOTH"
);
},
{
closed = 1;
nodes = (
"545 -68 OFFCURVE",
"423 -336 OFFCURVE",
"303 -336 CURVE SMOOTH",
"244 -336 OFFCURVE",
"223 -260 OFFCURVE",
"307 -156 CURVE SMOOTH",
"378 -68 OFFCURVE",
"471 -11 OFFCURVE",
"578 24 CURVE"
);
}
);
width = 780;
}
);
note = Gdotaccent;
unicode = 0120;
},
{
glyphname = H;
layers = (
{
hints = (
{
horizontal = 1;
place = "{189, 38}";
type = Stem;
},
{
horizontal = 1;
place = "{736, -20}";
target = down;
type = TopGhost;
},
{
place = "{-100, 54}";
type = Stem;
},
{
place = "{570, 49}";
type = Stem;
},
{
place = "{620, 44}";
type = Stem;
}
);
layerId = "BDD3FA2A-F197-48C4-9241-A354346F8EDC";
paths = (
{
closed = 1;
nodes = (
"226 427 OFFCURVE",
"224 411 OFFCURVE",
"239 412 CURVE SMOOTH",
"279 416 OFFCURVE",
"328 432 OFFCURVE",
"366 466 CURVE",
"350 416 OFFCURVE",
"332 357 OFFCURVE",
"310 298 CURVE",
"267 304 OFFCURVE",
"224 311 OFFCURVE",
"181 311 CURVE SMOOTH",
"109 311 OFFCURVE",
"48 290 OFFCURVE",
"40 200 CURVE SMOOTH",
"38 177 OFFCURVE",
"43 154 OFFCURVE",
"50 140 CURVE SMOOTH",
"53 135 OFFCURVE",
"57 133 OFFCURVE",
"61 133 CURVE SMOOTH",
"68 133 OFFCURVE",
"73 140 OFFCURVE",
"67 149 CURVE SMOOTH",
"61 159 OFFCURVE",
"61 172 OFFCURVE",
"67 187 CURVE SMOOTH",
"94 261 OFFCURVE",
"177 270 OFFCURVE",
"245 266 CURVE SMOOTH",
"262 265 OFFCURVE",
"279 264 OFFCURVE",
"296 262 CURVE",
"254 153 OFFCURVE",
"141 -104 OFFCURVE",
"-1 -104 CURVE SMOOTH",
"-31 -104 OFFCURVE",
"-61 -98 OFFCURVE",
"-72 -65 CURVE SMOOTH",
"-76 -51 OFFCURVE",
"-80 -46 OFFCURVE",
"-83 -46 CURVE SMOOTH",
"-89 -46 OFFCURVE",
"-92 -59 OFFCURVE",
"-89 -70 CURVE SMOOTH",
"-78 -111 OFFCURVE",
"-43 -131 OFFCURVE",
"-3 -131 CURVE SMOOTH",
"157 -131 OFFCURVE",
"280 135 OFFCURVE",
"334 257 CURVE",
"415 248 OFFCURVE",
"494 233 OFFCURVE",
"576 226 CURVE",
"569 209 OFFCURVE",
"561 193 OFFCURVE",
"555 176 CURVE SMOOTH",
"538 127 OFFCURVE",
"493 -12 OFFCURVE",
"587 -12 CURVE SMOOTH",
"644 -12 OFFCURVE",
"697 26 OFFCURVE",
"733 68 CURVE SMOOTH",
"772 109 OFFCURVE",
"795 144 OFFCURVE",
"798 149 CURVE SMOOTH",
"803 160 OFFCURVE",
"789 161 OFFCURVE",
"786 157 CURVE SMOOTH",
"754 116 OFFCURVE",
"655 7 OFFCURVE",
"599 7 CURVE SMOOTH",
"540 7 OFFCURVE",
"587 152 OFFCURVE",
"617 223 CURVE",
"657 223 OFFCURVE",
"722 227 OFFCURVE",
"747 265 CURVE SMOOTH",
"754 276 OFFCURVE",
"743 285 OFFCURVE",
"737 276 CURVE SMOOTH",
"717 246 OFFCURVE",
"658 240 OFFCURVE",
"625 240 CURVE",
"653 304 OFFCURVE",
"759 532 OFFCURVE",
"830 532 CURVE SMOOTH",
"833 532 OFFCURVE",
"838 528 OFFCURVE",
"842 527 CURVE",
"844 558 OFFCURVE",
"794 570 OFFCURVE",
"782 570 CURVE SMOOTH",
"731 570 OFFCURVE",
"667 486 OFFCURVE",
"665 454 CURVE",
"667 448 OFFCURVE",
"671 439 OFFCURVE",
"660 414 CURVE SMOOTH",
"637 356 OFFCURVE",
"609 300 OFFCURVE",
"583 244 CURVE",
"508 253 OFFCURVE",
"427 275 OFFCURVE",
"348 290 CURVE",
"394 398 OFFCURVE",
"431 501 OFFCURVE",
"456 564 CURVE",
"458 572 OFFCURVE",
"445 576 OFFCURVE",
"431 576 CURVE SMOOTH",
"415 576 OFFCURVE",
"396 571 OFFCURVE",
"394 564 CURVE",
"364 494 OFFCURVE",
"296 434 OFFCURVE",
"240 428 CURVE SMOOTH"
);
}
);
width = 733;
}
);
note = H;
unicode = 0048;
},
{
color = 3;
glyphname = Hbar;
lastChange = "2021-04-21 15:13:23 +0000";
layers = (
{
hints = (
{
horizontal = 1;
place = "{189, 38}";
type = Stem;
},
{
horizontal = 1;
place = "{467, 45}";
type = Stem;
},
{
horizontal = 1;
place = "{736, -20}";
target = down;
type = TopGhost;
},
{
place = "{-100, 54}";
type = Stem;
},
{
place = "{570, 49}";
type = Stem;
},
{
place = "{620, 44}";
type = Stem;
},
{
place = "{305, 490}";
type = Stem;
}
);
layerId = "BDD3FA2A-F197-48C4-9241-A354346F8EDC";
paths = (
{
closed = 1;
nodes = (
"226 427 OFFCURVE",
"224 411 OFFCURVE",
"239 412 CURVE SMOOTH",
"279 416 OFFCURVE",
"328 432 OFFCURVE",
"366 466 CURVE",
"350 416 OFFCURVE",
"332 357 OFFCURVE",
"310 298 CURVE",
"267 304 OFFCURVE",
"224 311 OFFCURVE",
"181 311 CURVE SMOOTH",
"109 311 OFFCURVE",
"48 290 OFFCURVE",
"40 200 CURVE SMOOTH",
"38 177 OFFCURVE",
"43 154 OFFCURVE",
"50 140 CURVE SMOOTH",
"53 135 OFFCURVE",
"57 133 OFFCURVE",
"61 133 CURVE SMOOTH",
"68 133 OFFCURVE",
"73 140 OFFCURVE",
"67 149 CURVE SMOOTH",
"61 159 OFFCURVE",
"61 172 OFFCURVE",
"67 187 CURVE SMOOTH",
"94 261 OFFCURVE",
"177 270 OFFCURVE",
"245 266 CURVE SMOOTH",
"262 265 OFFCURVE",
"279 264 OFFCURVE",
"296 262 CURVE",
"254 153 OFFCURVE",
"141 -104 OFFCURVE",
"-1 -104 CURVE SMOOTH",
"-31 -104 OFFCURVE",
"-61 -98 OFFCURVE",
"-72 -65 CURVE SMOOTH",
"-76 -51 OFFCURVE",
"-80 -46 OFFCURVE",
"-83 -46 CURVE SMOOTH",
"-89 -46 OFFCURVE",
"-92 -59 OFFCURVE",
"-89 -70 CURVE SMOOTH",
"-78 -111 OFFCURVE",
"-43 -131 OFFCURVE",
"-3 -131 CURVE SMOOTH",
"157 -131 OFFCURVE",
"280 135 OFFCURVE",
"334 257 CURVE",
"415 248 OFFCURVE",
"494 233 OFFCURVE",
"576 226 CURVE",
"569 209 OFFCURVE",
"561 193 OFFCURVE",
"555 176 CURVE SMOOTH",
"538 127 OFFCURVE",
"493 -12 OFFCURVE",
"587 -12 CURVE SMOOTH",
"644 -12 OFFCURVE",
"697 26 OFFCURVE",
"733 68 CURVE SMOOTH",
"772 109 OFFCURVE",
"795 144 OFFCURVE",
"798 149 CURVE SMOOTH",
"803 160 OFFCURVE",
"789 161 OFFCURVE",
"786 157 CURVE SMOOTH",
"754 116 OFFCURVE",
"655 7 OFFCURVE",
"599 7 CURVE SMOOTH",
"540 7 OFFCURVE",
"587 152 OFFCURVE",
"617 223 CURVE",
"657 223 OFFCURVE",
"722 227 OFFCURVE",
"747 265 CURVE SMOOTH",
"754 276 OFFCURVE",
"743 285 OFFCURVE",
"737 276 CURVE SMOOTH",
"717 246 OFFCURVE",
"658 240 OFFCURVE",
"625 240 CURVE",
"645 286 OFFCURVE",
"705 414 OFFCURVE",
"763 485 CURVE",
"781 488 OFFCURVE",
"795 492 OFFCURVE",
"795 498 CURVE",
"794 500 OFFCURVE",
"789 502 OFFCURVE",
"781 504 CURVE",
"798 522 OFFCURVE",
"815 532 OFFCURVE",
"830 532 CURVE SMOOTH",
"833 532 OFFCURVE",
"838 528 OFFCURVE",
"842 527 CURVE",
"844 558 OFFCURVE",
"794 570 OFFCURVE",
"782 570 CURVE SMOOTH",
"752 570 OFFCURVE",
"719 542 OFFCURVE",
"695 512 CURVE",
"690 512 OFFCURVE",
"686 512 OFFCURVE",
"681 512 CURVE SMOOTH",
"594 512 OFFCURVE",
"505 515 OFFCURVE",
"436 513 CURVE",
"444 532 OFFCURVE",
"450 549 OFFCURVE",
"456 564 CURVE",
"458 572 OFFCURVE",
"445 576 OFFCURVE",
"431 576 CURVE SMOOTH",
"415 576 OFFCURVE",
"396 571 OFFCURVE",
"394 564 CURVE",
"385 544 OFFCURVE",
"374 525 OFFCURVE",
"360 508 CURVE",
"326 503 OFFCURVE",
"305 494 OFFCURVE",
"305 479 CURVE SMOOTH",
"305 473 OFFCURVE",
"310 470 OFFCURVE",
"322 468 CURVE",
"296 446 OFFCURVE",
"267 431 OFFCURVE",
"240 428 CURVE SMOOTH"
);
},
{
closed = 1;
nodes = (
"375 354 OFFCURVE",
"399 416 OFFCURVE",
"420 469 CURVE",
"495 470 OFFCURVE",
"598 475 OFFCURVE",
"672 477 CURVE",
"668 468 OFFCURVE",
"665 460 OFFCURVE",
"665 454 CURVE",
"667 448 OFFCURVE",
"671 439 OFFCURVE",
"660 414 CURVE SMOOTH",
"637 356 OFFCURVE",
"609 300 OFFCURVE",
"583 244 CURVE",
"508 253 OFFCURVE",
"427 275 OFFCURVE",
"348 290 CURVE"
);
}
);
width = 516;
}
);
note = Hbar;
unicode = 0126;
},
{
color = 3;
glyphname = Hcircumflex;
lastChange = "2021-04-21 15:13:23 +0000";
layers = (
{
hints = (
{
horizontal = 1;
place = "{189, 38}";
type = Stem;
},
{
horizontal = 1;
place = "{622, 110}";
type = Stem;
},
{
horizontal = 1;
place = "{736, -20}";
target = down;
type = TopGhost;
},
{
place = "{-100, 54}";
type = Stem;
},
{
place = "{570, 49}";
type = Stem;
},
{
place = "{620, 44}";
type = Stem;
},
{
place = "{543, 200}";
type = Stem;
}
);
layerId = "BDD3FA2A-F197-48C4-9241-A354346F8EDC";
paths = (
{
closed = 1;
nodes = (
"722 669 OFFCURVE",
"680 725 OFFCURVE",
"661 732 CURVE",
"642 731 OFFCURVE",
"570 660 OFFCURVE",
"553 647 CURVE",
"548 642 OFFCURVE",
"542 633 OFFCURVE",
"542 628 CURVE SMOOTH",
"542 627 OFFCURVE",
"543 625 OFFCURVE",
"545 625 CURVE SMOOTH",
"566 625 OFFCURVE",
"619 678 OFFCURVE",
"649 698 CURVE",
"671 673 OFFCURVE",
"742 622 OFFCURVE",
"738 622 CURVE",
"742 622 OFFCURVE",
"743 626 OFFCURVE",
"743 630 CURVE SMOOTH",
"743 633 OFFCURVE",
"742 638 OFFCURVE",
"739 642 CURVE SMOOTH"
);
},
{
closed = 1;
nodes = (
"226 427 OFFCURVE",
"224 411 OFFCURVE",
"239 412 CURVE SMOOTH",
"279 416 OFFCURVE",
"328 432 OFFCURVE",
"366 466 CURVE",
"350 416 OFFCURVE",
"332 357 OFFCURVE",
"310 298 CURVE",
"267 304 OFFCURVE",
"224 311 OFFCURVE",
"181 311 CURVE SMOOTH",
"109 311 OFFCURVE",
"48 290 OFFCURVE",
"40 200 CURVE SMOOTH",
"38 177 OFFCURVE",
"43 154 OFFCURVE",
"50 140 CURVE SMOOTH",
"53 135 OFFCURVE",
"57 133 OFFCURVE",
"61 133 CURVE SMOOTH",
"68 133 OFFCURVE",
"73 140 OFFCURVE",
"67 149 CURVE SMOOTH",
"61 159 OFFCURVE",
"61 172 OFFCURVE",
"67 187 CURVE SMOOTH",
"94 261 OFFCURVE",
"177 270 OFFCURVE",
"245 266 CURVE SMOOTH",
"262 265 OFFCURVE",
"279 264 OFFCURVE",
"296 262 CURVE",
"254 153 OFFCURVE",
"141 -104 OFFCURVE",
"-1 -104 CURVE SMOOTH",
"-31 -104 OFFCURVE",
"-61 -98 OFFCURVE",
"-72 -65 CURVE SMOOTH",
"-76 -51 OFFCURVE",
"-80 -46 OFFCURVE",
"-83 -46 CURVE SMOOTH",
"-89 -46 OFFCURVE",
"-92 -59 OFFCURVE",
"-89 -70 CURVE SMOOTH",
"-78 -111 OFFCURVE",
"-43 -131 OFFCURVE",
"-3 -131 CURVE SMOOTH",
"157 -131 OFFCURVE",
"280 135 OFFCURVE",
"334 257 CURVE",
"415 248 OFFCURVE",
"494 233 OFFCURVE",
"576 226 CURVE",
"569 209 OFFCURVE",
"561 193 OFFCURVE",
"555 176 CURVE SMOOTH",
"538 127 OFFCURVE",
"493 -12 OFFCURVE",
"587 -12 CURVE SMOOTH",
"644 -12 OFFCURVE",
"697 26 OFFCURVE",
"733 68 CURVE SMOOTH",
"772 109 OFFCURVE",
"795 144 OFFCURVE",
"798 149 CURVE SMOOTH",
"803 160 OFFCURVE",
"789 161 OFFCURVE",
"786 157 CURVE SMOOTH",
"754 116 OFFCURVE",
"655 7 OFFCURVE",
"599 7 CURVE SMOOTH",
"540 7 OFFCURVE",
"587 152 OFFCURVE",
"617 223 CURVE",
"657 223 OFFCURVE",
"722 227 OFFCURVE",
"747 265 CURVE SMOOTH",
"754 276 OFFCURVE",
"743 285 OFFCURVE",
"737 276 CURVE SMOOTH",
"717 246 OFFCURVE",
"658 240 OFFCURVE",
"625 240 CURVE",
"653 304 OFFCURVE",
"759 532 OFFCURVE",
"830 532 CURVE SMOOTH",
"833 532 OFFCURVE",
"838 528 OFFCURVE",
"842 527 CURVE",
"844 558 OFFCURVE",
"794 570 OFFCURVE",
"782 570 CURVE SMOOTH",
"731 570 OFFCURVE",
"667 486 OFFCURVE",
"665 454 CURVE",
"667 448 OFFCURVE",
"671 439 OFFCURVE",
"660 414 CURVE SMOOTH",
"637 356 OFFCURVE",
"609 300 OFFCURVE",
"583 244 CURVE",
"508 253 OFFCURVE",
"427 275 OFFCURVE",
"348 290 CURVE",
"394 398 OFFCURVE",
"431 501 OFFCURVE",
"456 564 CURVE",
"458 572 OFFCURVE",
"445 576 OFFCURVE",
"431 576 CURVE SMOOTH",
"415 576 OFFCURVE",
"396 571 OFFCURVE",
"394 564 CURVE",
"364 494 OFFCURVE",
"296 434 OFFCURVE",
"240 428 CURVE SMOOTH"
);
}
);
width = 733;
}
);
note = Hcircumflex;
unicode = 0124;
},
{
glyphname = I;
layers = (
{
hints = (
{
horizontal = 1;
place = "{259, 40}";
type = Stem;
},
{
place = "{-63, 72}";
type = Stem;
},
{
place = "{486, 48}";
type = Stem;
}
);
layerId = "BDD3FA2A-F197-48C4-9241-A354346F8EDC";
paths = (
{
closed = 1;
nodes = (
"204 38 OFFCURVE",
"171 25 OFFCURVE",
"140 25 CURVE SMOOTH",
"112 25 OFFCURVE",
"87 36 OFFCURVE",
"68 50 CURVE SMOOTH",
"64 53 OFFCURVE",
"58 55 OFFCURVE",
"51 55 CURVE SMOOTH",
"37 55 OFFCURVE",
"20 48 OFFCURVE",
"13 33 CURVE SMOOTH",
"0 0 OFFCURVE",
"11 -7 OFFCURVE",
"37 -9 CURVE SMOOTH",
"82 -10 OFFCURVE",
"373 -4 OFFCURVE",
"390 5 CURVE SMOOTH",
"397 9 OFFCURVE",
"422 31 OFFCURVE",
"389 28 CURVE SMOOTH",
"349 26 OFFCURVE",
"287 23 OFFCURVE",
"216 24 CURVE",
"228 34 OFFCURVE",
"240 48 OFFCURVE",
"253 62 CURVE",
"339 172 OFFCURVE",
"411 404 OFFCURVE",
"449 523 CURVE",
"494 523 OFFCURVE",
"536 519 OFFCURVE",
"561 510 CURVE SMOOTH",
"572 506 OFFCURVE",
"580 505 OFFCURVE",
"585 505 CURVE SMOOTH",
"606 505 OFFCURVE",
"579 532 OFFCURVE",
"567 538 CURVE SMOOTH",
"542 550 OFFCURVE",
"505 560 OFFCURVE",
"462 564 CURVE",
"465 569 OFFCURVE",
"466 572 OFFCURVE",
"467 576 CURVE SMOOTH",
"468 584 OFFCURVE",
"458 587 OFFCURVE",
"445 587 CURVE SMOOTH",
"431 587 OFFCURVE",
"416 583 OFFCURVE",
"414 576 CURVE SMOOTH",
"411 566 LINE",
"293 567 OFFCURVE",
"163 529 OFFCURVE",
"168 431 CURVE SMOOTH",
"168 427 OFFCURVE",
"171 420 OFFCURVE",
"171 418 CURVE SMOOTH",
"172 373 OFFCURVE",
"224 342 OFFCURVE",
"248 337 CURVE",
"257 334 OFFCURVE",
"261 339 OFFCURVE",
"250 346 CURVE SMOOTH",
"234 356 OFFCURVE",
"194 368 OFFCURVE",
"192 405 CURVE SMOOTH",
"188 478 OFFCURVE",
"295 514 OFFCURVE",
"400 522 CURVE",
"370 404 OFFCURVE",
"311 181 OFFCURVE",
"234 78 CURVE SMOOTH"
);
}
);
width = 420;
}
);
note = I;
unicode = 0049;
},
{
glyphname = IJ;
layers = (
{
hints = (
{
horizontal = 1;
place = "{-93, 63}";
type = Stem;
},
{
horizontal = 1;
place = "{259, 40}";
type = Stem;
},
{
place = "{-63, 72}";
type = Stem;
},
{
place = "{278, 55}";
type = Stem;
},
{
place = "{486, 48}";
type = Stem;
}
);
layerId = "BDD3FA2A-F197-48C4-9241-A354346F8EDC";
paths = (
{
closed = 1;
nodes = (
"861 587 OFFCURVE",
"844 576 OFFCURVE",
"830 559 CURVE",
"802 564 OFFCURVE",
"771 566 OFFCURVE",
"739 566 CURVE SMOOTH",
"680 566 OFFCURVE",
"619 556 OFFCURVE",
"572 536 CURVE",
"567 538 LINE SMOOTH",
"542 550 OFFCURVE",
"505 560 OFFCURVE",
"462 564 CURVE",
"467 576 LINE",
"467 584 OFFCURVE",
"459 587 OFFCURVE",
"445 587 CURVE SMOOTH",
"431 587 OFFCURVE",
"415 583 OFFCURVE",
"414 576 CURVE SMOOTH",
"411 566 LINE",
"289 566 OFFCURVE",
"168 531 OFFCURVE",
"168 431 CURVE SMOOTH",
"168 378 OFFCURVE",
"224 336 OFFCURVE",
"253 336 CURVE SMOOTH",
"255 336 OFFCURVE",
"256 337 OFFCURVE",
"256 339 CURVE SMOOTH",
"256 351 OFFCURVE",
"192 359 OFFCURVE",
"192 409 CURVE SMOOTH",
"192 479 OFFCURVE",
"296 514 OFFCURVE",
"400 522 CURVE",
"359 360 OFFCURVE",
"276 24 OFFCURVE",
"140 24 CURVE SMOOTH",
"102 24 OFFCURVE",
"74 55 OFFCURVE",
"51 55 CURVE SMOOTH",
"27 55 OFFCURVE",
"7 35 OFFCURVE",
"7 10 CURVE SMOOTH",
"7 -9 OFFCURVE",
"27 -9 OFFCURVE",
"57 -9 CURVE SMOOTH",
"116 -9 OFFCURVE",
"262 -6 OFFCURVE",
"340 -1 CURVE",
"338 -10 OFFCURVE",
"338 -18 OFFCURVE",
"338 -26 CURVE SMOOTH",
"338 -73 OFFCURVE",
"371 -102 OFFCURVE",
"420 -102 CURVE SMOOTH",
"511 -102 OFFCURVE",
"660 -1 OFFCURVE",
"764 284 CURVE SMOOTH",
"771 304 OFFCURVE",
"822 317 OFFCURVE",
"849 317 CURVE SMOOTH",
"858 317 OFFCURVE",
"863 314 OFFCURVE",
"865 314 CURVE SMOOTH",
"869 314 OFFCURVE",
"870 317 OFFCURVE",
"870 321 CURVE SMOOTH",
"870 328 OFFCURVE",
"864 331 OFFCURVE",
"849 331 CURVE SMOOTH",
"832 331 OFFCURVE",
"804 326 OFFCURVE",
"772 318 CURVE",
"791 379 OFFCURVE",
"810 465 OFFCURVE",
"833 521 CURVE",
"874 516 OFFCURVE",
"904 505 OFFCURVE",
"914 505 CURVE SMOOTH",
"920 505 OFFCURVE",
"922 506 OFFCURVE",
"922 510 CURVE SMOOTH",
"922 533 OFFCURVE",
"881 545 OFFCURVE",
"852 554 CURVE",
"871 573 OFFCURVE",
"891 570 OFFCURVE",
"891 581 CURVE SMOOTH",
"891 583 OFFCURVE",
"887 587 OFFCURVE",
"880 587 CURVE SMOOTH"
);
},
{
closed = 1;
nodes = (
"323 24 OFFCURVE",
"293 23 OFFCURVE",
"259 23 CURVE SMOOTH",
"245 23 OFFCURVE",
"231 24 OFFCURVE",
"216 24 CURVE",
"318 106 OFFCURVE",
"406 387 OFFCURVE",
"449 523 CURVE",
"483 523 OFFCURVE",
"515 521 OFFCURVE",
"539 516 CURVE",
"514 497 OFFCURVE",
"498 471 OFFCURVE",
"498 438 CURVE SMOOTH",
"498 382 OFFCURVE",
"548 336 OFFCURVE",
"582 336 CURVE SMOOTH",
"584 336 OFFCURVE",
"586 337 OFFCURVE",
"586 339 CURVE SMOOTH",
"586 351 OFFCURVE",
"521 359 OFFCURVE",
"521 409 CURVE SMOOTH",
"521 514 OFFCURVE",
"733 523 OFFCURVE",
"804 523 CURVE",
"765 455 OFFCURVE",
"739 350 OFFCURVE",
"722 304 CURVE",
"580 259 OFFCURVE",
"407 165 OFFCURVE",
"349 26 CURVE"
);
},
{
closed = 1;
nodes = (
"660 133 OFFCURVE",
"539 -76 OFFCURVE",
"440 -76 CURVE SMOOTH",
"410 -76 OFFCURVE",
"389 -54 OFFCURVE",
"389 -20 CURVE SMOOTH",
"389 5 OFFCURVE",
"405 12 OFFCURVE",
"405 23 CURVE SMOOTH",
"405 26 OFFCURVE",
"404 27 OFFCURVE",
"399 28 CURVE",
"444 149 OFFCURVE",
"589 244 OFFCURVE",
"716 285 CURVE"
);
}
);
width = 680;
}
);
note = IJ;
unicode = 0132;
},
{
glyphname = Iacute;
layers = (
{
hints = (
{
horizontal = 1;
place = "{259, 40}";
type = Stem;
},
{
horizontal = 1;
place = "{312, 27}";
type = Stem;
},
{
horizontal = 1;
place = "{651, -20}";
target = down;
type = TopGhost;
},
{
place = "{-63, 72}";
type = Stem;
},
{
place = "{304, 35}";
type = Stem;
},
{
place = "{486, 48}";
type = Stem;
},
{
place = "{504, 34}";
type = Stem;
}
);
layerId = "BDD3FA2A-F197-48C4-9241-A354346F8EDC";
paths = (
{
closed = 1;
nodes = (
"622 744 LINE SMOOTH",
"630 750 OFFCURVE",
"630 767 OFFCURVE",
"616 776 CURVE",
"611 777 OFFCURVE",
"599 784 OFFCURVE",
"588 780 CURVE",
"570 755 OFFCURVE",
"540 739 OFFCURVE",
"515 717 CURVE SMOOTH",
"504 709 OFFCURVE",
"462 682 OFFCURVE",
"461 680 CURVE SMOOTH",
"458 676 OFFCURVE",
"453 669 OFFCURVE",
"465 669 CURVE SMOOTH",
"482 670 OFFCURVE",
"600 726 OFFCURVE",
"621 743 CURVE SMOOTH"
);
},
{
closed = 1;
nodes = (
"204 38 OFFCURVE",
"171 25 OFFCURVE",
"140 25 CURVE SMOOTH",
"112 25 OFFCURVE",
"87 36 OFFCURVE",
"68 50 CURVE SMOOTH",
"64 53 OFFCURVE",
"58 55 OFFCURVE",
"51 55 CURVE SMOOTH",
"37 55 OFFCURVE",
"20 48 OFFCURVE",
"13 33 CURVE SMOOTH",
"0 0 OFFCURVE",
"11 -7 OFFCURVE",
"37 -9 CURVE SMOOTH",
"82 -10 OFFCURVE",
"373 -4 OFFCURVE",
"390 5 CURVE SMOOTH",
"397 9 OFFCURVE",
"422 31 OFFCURVE",
"389 28 CURVE SMOOTH",
"349 26 OFFCURVE",
"287 23 OFFCURVE",
"216 24 CURVE",
"228 34 OFFCURVE",
"240 48 OFFCURVE",
"253 62 CURVE",
"339 172 OFFCURVE",
"411 404 OFFCURVE",
"449 523 CURVE",
"494 523 OFFCURVE",
"536 519 OFFCURVE",
"561 510 CURVE SMOOTH",
"572 506 OFFCURVE",
"580 505 OFFCURVE",
"585 505 CURVE SMOOTH",
"606 505 OFFCURVE",
"579 532 OFFCURVE",
"567 538 CURVE SMOOTH",
"542 550 OFFCURVE",
"505 560 OFFCURVE",
"462 564 CURVE",
"465 569 OFFCURVE",
"466 572 OFFCURVE",
"467 576 CURVE SMOOTH",
"468 584 OFFCURVE",
"458 587 OFFCURVE",
"445 587 CURVE SMOOTH",
"431 587 OFFCURVE",
"416 583 OFFCURVE",
"414 576 CURVE SMOOTH",
"411 566 LINE",
"293 567 OFFCURVE",
"163 529 OFFCURVE",
"168 431 CURVE SMOOTH",
"168 427 OFFCURVE",
"171 420 OFFCURVE",
"171 418 CURVE SMOOTH",
"172 373 OFFCURVE",
"224 342 OFFCURVE",
"248 337 CURVE",
"257 334 OFFCURVE",
"261 339 OFFCURVE",
"250 346 CURVE SMOOTH",
"234 356 OFFCURVE",
"194 368 OFFCURVE",
"192 405 CURVE SMOOTH",
"188 478 OFFCURVE",
"295 514 OFFCURVE",
"400 522 CURVE",
"370 404 OFFCURVE",
"311 181 OFFCURVE",
"234 78 CURVE SMOOTH"
);
}
);
width = 420;
}
);
note = Iacute;
unicode = 00CD;
},
{
color = 3;
glyphname = Ibreve;
lastChange = "2021-04-21 15:13:23 +0000";
layers = (
{
hints = (
{
horizontal = 1;
place = "{259, 40}";
type = Stem;
},
{
horizontal = 1;
place = "{650, 27}";
type = Stem;
},
{
place = "{-63, 72}";
type = Stem;
},
{
place = "{379, 253}";
type = Stem;
},
{
place = "{486, 48}";
type = Stem;
}
);
layerId = "BDD3FA2A-F197-48C4-9241-A354346F8EDC";
paths = (
{
closed = 1;
nodes = (
"588 756 OFFCURVE",
"587 758 OFFCURVE",
"586 758 CURVE SMOOTH",
"584 758 OFFCURVE",
"583 758 OFFCURVE",
"583 756 CURVE",
"565 703 OFFCURVE",
"527 680 OFFCURVE",
"493 680 CURVE SMOOTH",
"458 680 OFFCURVE",
"429 703 OFFCURVE",
"429 745 CURVE SMOOTH",
"429 752 OFFCURVE",
"422 756 OFFCURVE",
"416 756 CURVE SMOOTH",
"407 756 OFFCURVE",
"401 745 OFFCURVE",
"401 726 CURVE SMOOTH",
"401 680 OFFCURVE",
"434 659 OFFCURVE",
"473 659 CURVE SMOOTH",
"521 659 OFFCURVE",
"580 691 OFFCURVE",
"593 749 CURVE SMOOTH",
"593 750 OFFCURVE",
"592 755 OFFCURVE",
"588 756 CURVE"
);
},
{
closed = 1;
nodes = (
"204 38 OFFCURVE",
"171 25 OFFCURVE",
"140 25 CURVE SMOOTH",
"112 25 OFFCURVE",
"87 36 OFFCURVE",
"68 50 CURVE SMOOTH",
"64 53 OFFCURVE",
"58 55 OFFCURVE",
"51 55 CURVE SMOOTH",
"37 55 OFFCURVE",
"20 48 OFFCURVE",
"13 33 CURVE SMOOTH",
"0 0 OFFCURVE",
"11 -7 OFFCURVE",
"37 -9 CURVE SMOOTH",
"82 -10 OFFCURVE",
"373 -4 OFFCURVE",
"390 5 CURVE SMOOTH",
"397 9 OFFCURVE",
"422 31 OFFCURVE",
"389 28 CURVE SMOOTH",
"349 26 OFFCURVE",
"287 23 OFFCURVE",
"216 24 CURVE",
"228 34 OFFCURVE",
"240 48 OFFCURVE",
"253 62 CURVE",
"339 172 OFFCURVE",
"411 404 OFFCURVE",
"449 523 CURVE",
"494 523 OFFCURVE",
"536 519 OFFCURVE",
"561 510 CURVE SMOOTH",
"572 506 OFFCURVE",
"580 505 OFFCURVE",
"585 505 CURVE SMOOTH",
"606 505 OFFCURVE",
"579 532 OFFCURVE",
"567 538 CURVE SMOOTH",
"542 550 OFFCURVE",
"505 560 OFFCURVE",
"462 564 CURVE",
"465 569 OFFCURVE",
"466 572 OFFCURVE",
"467 576 CURVE SMOOTH",
"468 584 OFFCURVE",
"458 587 OFFCURVE",
"445 587 CURVE SMOOTH",
"431 587 OFFCURVE",
"416 583 OFFCURVE",
"414 576 CURVE SMOOTH",
"411 566 LINE",
"293 567 OFFCURVE",
"163 529 OFFCURVE",
"168 431 CURVE SMOOTH",
"168 427 OFFCURVE",
"171 420 OFFCURVE",
"171 418 CURVE SMOOTH",
"172 373 OFFCURVE",
"224 342 OFFCURVE",
"248 337 CURVE",
"257 334 OFFCURVE",
"261 339 OFFCURVE",
"250 346 CURVE SMOOTH",
"234 356 OFFCURVE",
"194 368 OFFCURVE",
"192 405 CURVE SMOOTH",
"188 478 OFFCURVE",
"295 514 OFFCURVE",
"400 522 CURVE",
"370 404 OFFCURVE",
"311 181 OFFCURVE",
"234 78 CURVE SMOOTH"
);
}
);
width = 305;
}
);
note = Ibreve;
unicode = 012C;
},
{
glyphname = Icircumflex;
layers = (
{
hints = (
{
horizontal = 1;
place = "{259, 40}";
type = Stem;
},
{
horizontal = 1;
place = "{651, 110}";
type = Stem;
},
{
place = "{-63, 72}";
type = Stem;
},
{
place = "{486, 48}";
type = Stem;
},
{
place = "{364, 200}";
type = Stem;
}
);
layerId = "BDD3FA2A-F197-48C4-9241-A354346F8EDC";
paths = (
{
closed = 1;
nodes = (
"543 698 OFFCURVE",
"500 754 OFFCURVE",
"482 761 CURVE",
"462 760 OFFCURVE",
"390 689 OFFCURVE",
"373 676 CURVE",
"368 671 OFFCURVE",
"362 662 OFFCURVE",
"362 658 CURVE SMOOTH",
"362 656 OFFCURVE",
"364 654 OFFCURVE",
"366 654 CURVE SMOOTH",
"387 654 OFFCURVE",
"439 708 OFFCURVE",
"470 727 CURVE",
"492 703 OFFCURVE",
"562 651 OFFCURVE",
"559 651 CURVE",
"562 651 OFFCURVE",
"564 655 OFFCURVE",
"564 659 CURVE SMOOTH",
"564 662 OFFCURVE",
"562 667 OFFCURVE",
"560 671 CURVE SMOOTH"
);
},
{
closed = 1;
nodes = (
"204 38 OFFCURVE",
"171 25 OFFCURVE",
"140 25 CURVE SMOOTH",
"112 25 OFFCURVE",
"87 36 OFFCURVE",
"68 50 CURVE SMOOTH",
"64 53 OFFCURVE",
"58 55 OFFCURVE",
"51 55 CURVE SMOOTH",
"37 55 OFFCURVE",
"20 48 OFFCURVE",
"13 33 CURVE SMOOTH",
"0 0 OFFCURVE",
"11 -7 OFFCURVE",
"37 -9 CURVE SMOOTH",
"82 -10 OFFCURVE",
"373 -4 OFFCURVE",
"390 5 CURVE SMOOTH",
"397 9 OFFCURVE",
"422 31 OFFCURVE",
"389 28 CURVE SMOOTH",
"349 26 OFFCURVE",
"287 23 OFFCURVE",
"216 24 CURVE",
"228 34 OFFCURVE",
"240 48 OFFCURVE",
"253 62 CURVE",
"339 172 OFFCURVE",
"411 404 OFFCURVE",
"449 523 CURVE",
"494 523 OFFCURVE",
"536 519 OFFCURVE",
"561 510 CURVE SMOOTH",
"572 506 OFFCURVE",
"580 505 OFFCURVE",
"585 505 CURVE SMOOTH",
"606 505 OFFCURVE",
"579 532 OFFCURVE",
"567 538 CURVE SMOOTH",
"542 550 OFFCURVE",
"505 560 OFFCURVE",
"462 564 CURVE",
"465 569 OFFCURVE",
"466 572 OFFCURVE",
"467 576 CURVE SMOOTH",
"468 584 OFFCURVE",
"458 587 OFFCURVE",
"445 587 CURVE SMOOTH",
"431 587 OFFCURVE",
"416 583 OFFCURVE",
"414 576 CURVE SMOOTH",
"411 566 LINE",
"293 567 OFFCURVE",
"163 529 OFFCURVE",
"168 431 CURVE SMOOTH",
"168 427 OFFCURVE",
"171 420 OFFCURVE",
"171 418 CURVE SMOOTH",
"172 373 OFFCURVE",
"224 342 OFFCURVE",
"248 337 CURVE",
"257 334 OFFCURVE",
"261 339 OFFCURVE",
"250 346 CURVE SMOOTH",
"234 356 OFFCURVE",
"194 368 OFFCURVE",
"192 405 CURVE SMOOTH",
"188 478 OFFCURVE",
"295 514 OFFCURVE",
"400 522 CURVE",
"370 404 OFFCURVE",
"311 181 OFFCURVE",
"234 78 CURVE SMOOTH"
);
}
);
width = 420;
}
);
note = Icircumflex;
unicode = 00CE;
},
{
glyphname = Idieresis;
layers = (
{
hints = (
{
horizontal = 1;
place = "{259, 40}";
type = Stem;
},
{
horizontal = 1;
place = "{658, 65}";
type = Stem;
},
{
place = "{-63, 72}";
type = Stem;
},
{
place = "{353, 65}";
type = Stem;
},
{
place = "{486, 48}";
type = Stem;
},
{
place = "{508, 65}";
type = Stem;
},
{
place = "{353, 220}";
type = Stem;
}
);
layerId = "BDD3FA2A-F197-48C4-9241-A354346F8EDC";
paths = (
{
closed = 1;
nodes = (
"566 706 OFFCURVE",
"576 723 OFFCURVE",
"571 723 CURVE SMOOTH",
"568 723 OFFCURVE",
"563 720 OFFCURVE",
"554 712 CURVE",
"549 709 OFFCURVE",
"508 678 OFFCURVE",
"508 673 CURVE SMOOTH",
"508 658 OFFCURVE",
"526 658 OFFCURVE",
"540 658 CURVE SMOOTH",
"548 658 OFFCURVE",
"566 686 OFFCURVE",
"566 695 CURVE SMOOTH"
);
},
{
closed = 1;
nodes = (
"411 706 OFFCURVE",
"421 723 OFFCURVE",
"416 723 CURVE SMOOTH",
"413 723 OFFCURVE",
"408 720 OFFCURVE",
"399 712 CURVE",
"394 709 OFFCURVE",
"353 678 OFFCURVE",
"353 673 CURVE SMOOTH",
"353 658 OFFCURVE",
"372 658 OFFCURVE",
"386 658 CURVE SMOOTH",
"394 658 OFFCURVE",
"411 686 OFFCURVE",
"411 695 CURVE SMOOTH"
);
},
{
closed = 1;
nodes = (
"204 38 OFFCURVE",
"171 25 OFFCURVE",
"140 25 CURVE SMOOTH",
"112 25 OFFCURVE",
"87 36 OFFCURVE",
"68 50 CURVE SMOOTH",
"64 53 OFFCURVE",
"58 55 OFFCURVE",
"51 55 CURVE SMOOTH",
"37 55 OFFCURVE",
"20 48 OFFCURVE",
"13 33 CURVE SMOOTH",
"0 0 OFFCURVE",
"11 -7 OFFCURVE",
"37 -9 CURVE SMOOTH",
"82 -10 OFFCURVE",
"373 -4 OFFCURVE",
"390 5 CURVE SMOOTH",
"397 9 OFFCURVE",
"422 31 OFFCURVE",
"389 28 CURVE SMOOTH",
"349 26 OFFCURVE",
"287 23 OFFCURVE",
"216 24 CURVE",
"228 34 OFFCURVE",
"240 48 OFFCURVE",
"253 62 CURVE",
"339 172 OFFCURVE",
"411 404 OFFCURVE",
"449 523 CURVE",
"494 523 OFFCURVE",
"536 519 OFFCURVE",
"561 510 CURVE SMOOTH",
"572 506 OFFCURVE",
"580 505 OFFCURVE",
"585 505 CURVE SMOOTH",
"606 505 OFFCURVE",
"579 532 OFFCURVE",
"567 538 CURVE SMOOTH",
"542 550 OFFCURVE",
"505 560 OFFCURVE",
"462 564 CURVE",
"465 569 OFFCURVE",
"466 572 OFFCURVE",
"467 576 CURVE SMOOTH",
"468 584 OFFCURVE",
"458 587 OFFCURVE",
"445 587 CURVE SMOOTH",
"431 587 OFFCURVE",
"416 583 OFFCURVE",
"414 576 CURVE SMOOTH",
"411 566 LINE",
"293 567 OFFCURVE",
"163 529 OFFCURVE",
"168 431 CURVE SMOOTH",
"168 427 OFFCURVE",
"171 420 OFFCURVE",
"171 418 CURVE SMOOTH",
"172 373 OFFCURVE",
"224 342 OFFCURVE",
"248 337 CURVE",
"257 334 OFFCURVE",
"261 339 OFFCURVE",
"250 346 CURVE SMOOTH",
"234 356 OFFCURVE",
"194 368 OFFCURVE",
"192 405 CURVE SMOOTH",
"188 478 OFFCURVE",
"295 514 OFFCURVE",
"400 522 CURVE",
"370 404 OFFCURVE",
"311 181 OFFCURVE",
"234 78 CURVE SMOOTH"
);
}
);
width = 420;
}
);
note = Idieresis;
unicode = 00CF;
},
{
color = 3;
glyphname = Idotaccent;
lastChange = "2021-04-21 15:13:23 +0000";
layers = (
{
hints = (
{
horizontal = 1;
place = "{259, 40}";
type = Stem;
},
{
horizontal = 1;
place = "{658, 61}";
type = Stem;
},
{
place = "{-63, 72}";
type = Stem;
},
{
place = "{447, 60}";
type = Stem;
},
{
place = "{486, 48}";
type = Stem;
}
);
layerId = "BDD3FA2A-F197-48C4-9241-A354346F8EDC";
paths = (
{
closed = 1;
nodes = (
"516 705 OFFCURVE",
"516 709 OFFCURVE",
"516 714 CURVE SMOOTH",
"516 723 OFFCURVE",
"515 731 OFFCURVE",
"508 731 CURVE SMOOTH",
"503 731 OFFCURVE",
"493 726 OFFCURVE",
"478 715 CURVE SMOOTH",
"472 710 OFFCURVE",
"436 677 OFFCURVE",
"436 672 CURVE SMOOTH",
"436 649 OFFCURVE",
"462 649 OFFCURVE",
"479 649 CURVE SMOOTH",
"492 649 OFFCURVE",
"516 688 OFFCURVE",
"516 700 CURVE SMOOTH"
);
},
{
closed = 1;
nodes = (
"204 38 OFFCURVE",
"171 25 OFFCURVE",
"140 25 CURVE SMOOTH",
"112 25 OFFCURVE",
"87 36 OFFCURVE",
"68 50 CURVE SMOOTH",
"64 53 OFFCURVE",
"58 55 OFFCURVE",
"51 55 CURVE SMOOTH",
"37 55 OFFCURVE",
"20 48 OFFCURVE",
"13 33 CURVE SMOOTH",
"0 0 OFFCURVE",
"11 -7 OFFCURVE",
"37 -9 CURVE SMOOTH",
"82 -10 OFFCURVE",
"373 -4 OFFCURVE",
"390 5 CURVE SMOOTH",
"397 9 OFFCURVE",
"422 31 OFFCURVE",
"389 28 CURVE SMOOTH",
"349 26 OFFCURVE",
"287 23 OFFCURVE",
"216 24 CURVE",
"228 34 OFFCURVE",
"240 48 OFFCURVE",
"253 62 CURVE",
"339 172 OFFCURVE",
"411 404 OFFCURVE",
"449 523 CURVE",
"494 523 OFFCURVE",
"536 519 OFFCURVE",
"561 510 CURVE SMOOTH",
"572 506 OFFCURVE",
"580 505 OFFCURVE",
"585 505 CURVE SMOOTH",
"606 505 OFFCURVE",
"579 532 OFFCURVE",
"567 538 CURVE SMOOTH",
"542 550 OFFCURVE",
"505 560 OFFCURVE",
"462 564 CURVE",
"465 569 OFFCURVE",
"466 572 OFFCURVE",
"467 576 CURVE SMOOTH",
"468 584 OFFCURVE",
"458 587 OFFCURVE",
"445 587 CURVE SMOOTH",
"431 587 OFFCURVE",
"416 583 OFFCURVE",
"414 576 CURVE SMOOTH",
"411 566 LINE",
"293 567 OFFCURVE",
"163 529 OFFCURVE",
"168 431 CURVE SMOOTH",
"168 427 OFFCURVE",
"171 420 OFFCURVE",
"171 418 CURVE SMOOTH",
"172 373 OFFCURVE",
"224 342 OFFCURVE",
"248 337 CURVE",
"257 334 OFFCURVE",
"261 339 OFFCURVE",
"250 346 CURVE SMOOTH",
"234 356 OFFCURVE",
"194 368 OFFCURVE",
"192 405 CURVE SMOOTH",
"188 478 OFFCURVE",
"295 514 OFFCURVE",
"400 522 CURVE",
"370 404 OFFCURVE",
"311 181 OFFCURVE",
"234 78 CURVE SMOOTH"
);
}
);
width = 420;
}
);
note = Idotaccent;
unicode = 0130;
},
{
glyphname = Igrave;
layers = (
{
hints = (
{
horizontal = 1;
place = "{259, 40}";
type = Stem;
},
{
horizontal = 1;
place = "{649, 109}";
type = Stem;
},
{
place = "{-63, 72}";
type = Stem;
},
{
place = "{486, 48}";
type = Stem;
},
{
place = "{355, 173}";
type = Stem;
}
);
layerId = "BDD3FA2A-F197-48C4-9241-A354346F8EDC";
paths = (
{
closed = 1;
nodes = (
"490 684 OFFCURVE",
"458 709 OFFCURVE",
"425 734 CURVE SMOOTH",
"404 749 OFFCURVE",
"386 763 OFFCURVE",
"368 756 CURVE SMOOTH",
"333 744 OFFCURVE",
"376 715 OFFCURVE",
"389 708 CURVE SMOOTH",
"431 684 OFFCURVE",
"506 649 OFFCURVE",
"520 649 CURVE SMOOTH",
"532 649 OFFCURVE",
"528 658 OFFCURVE",
"523 660 CURVE"
);
},
{
closed = 1;
nodes = (
"204 38 OFFCURVE",
"171 25 OFFCURVE",
"140 25 CURVE SMOOTH",
"112 25 OFFCURVE",
"87 36 OFFCURVE",
"68 50 CURVE SMOOTH",
"64 53 OFFCURVE",
"58 55 OFFCURVE",
"51 55 CURVE SMOOTH",
"37 55 OFFCURVE",
"20 48 OFFCURVE",
"13 33 CURVE SMOOTH",
"0 0 OFFCURVE",
"11 -7 OFFCURVE",
"37 -9 CURVE SMOOTH",
"82 -10 OFFCURVE",
"373 -4 OFFCURVE",
"390 5 CURVE SMOOTH",
"397 9 OFFCURVE",
"422 31 OFFCURVE",
"389 28 CURVE SMOOTH",
"349 26 OFFCURVE",
"287 23 OFFCURVE",
"216 24 CURVE",
"228 34 OFFCURVE",
"240 48 OFFCURVE",
"253 62 CURVE",
"339 172 OFFCURVE",
"411 404 OFFCURVE",
"449 523 CURVE",
"494 523 OFFCURVE",
"536 519 OFFCURVE",
"561 510 CURVE SMOOTH",
"572 506 OFFCURVE",
"580 505 OFFCURVE",
"585 505 CURVE SMOOTH",
"606 505 OFFCURVE",
"579 532 OFFCURVE",
"567 538 CURVE SMOOTH",
"542 550 OFFCURVE",
"505 560 OFFCURVE",
"462 564 CURVE",
"465 569 OFFCURVE",
"466 572 OFFCURVE",
"467 576 CURVE SMOOTH",
"468 584 OFFCURVE",
"458 587 OFFCURVE",
"445 587 CURVE SMOOTH",
"431 587 OFFCURVE",
"416 583 OFFCURVE",
"414 576 CURVE SMOOTH",
"411 566 LINE",
"293 567 OFFCURVE",
"163 529 OFFCURVE",
"168 431 CURVE SMOOTH",
"168 427 OFFCURVE",
"171 420 OFFCURVE",
"171 418 CURVE SMOOTH",
"172 373 OFFCURVE",
"224 342 OFFCURVE",
"248 337 CURVE",
"257 334 OFFCURVE",
"261 339 OFFCURVE",
"250 346 CURVE SMOOTH",
"234 356 OFFCURVE",
"194 368 OFFCURVE",
"192 405 CURVE SMOOTH",
"188 478 OFFCURVE",
"295 514 OFFCURVE",
"400 522 CURVE",
"370 404 OFFCURVE",
"311 181 OFFCURVE",
"234 78 CURVE SMOOTH"
);
}
);
width = 420;
}
);
note = Igrave;
unicode = 00CC;
},
{
color = 3;
glyphname = Imacron;
lastChange = "2021-04-21 15:13:23 +0000";
layers = (
{
hints = (
{
horizontal = 1;
place = "{259, 40}";
type = Stem;
},
{
horizontal = 1;
place = "{683, 37}";
type = Stem;
},
{
place = "{-63, 72}";
type = Stem;
},
{
place = "{486, 48}";
type = Stem;
},
{
place = "{371, 229}";
type = Stem;
}
);
layerId = "BDD3FA2A-F197-48C4-9241-A354346F8EDC";
paths = (
{
closed = 1;
nodes = (
"555 693 OFFCURVE",
"600 695 OFFCURVE",
"600 708 CURVE",
"599 714 OFFCURVE",
"578 720 OFFCURVE",
"547 720 CURVE SMOOTH",
"460 720 OFFCURVE",
"371 730 OFFCURVE",
"371 693 CURVE SMOOTH",
"371 686 OFFCURVE",
"376 683 OFFCURVE",
"393 683 CURVE SMOOTH",
"426 683 OFFCURVE",
"501 689 OFFCURVE",
"548 692 CURVE SMOOTH"
);
},
{
closed = 1;
nodes = (
"204 38 OFFCURVE",
"171 25 OFFCURVE",
"140 25 CURVE SMOOTH",
"112 25 OFFCURVE",
"87 36 OFFCURVE",
"68 50 CURVE SMOOTH",
"64 53 OFFCURVE",
"58 55 OFFCURVE",
"51 55 CURVE SMOOTH",
"37 55 OFFCURVE",
"20 48 OFFCURVE",
"13 33 CURVE SMOOTH",
"0 0 OFFCURVE",
"11 -7 OFFCURVE",
"37 -9 CURVE SMOOTH",
"82 -10 OFFCURVE",
"373 -4 OFFCURVE",
"390 5 CURVE SMOOTH",
"397 9 OFFCURVE",
"422 31 OFFCURVE",
"389 28 CURVE SMOOTH",
"349 26 OFFCURVE",
"287 23 OFFCURVE",
"216 24 CURVE",
"228 34 OFFCURVE",
"240 48 OFFCURVE",
"253 62 CURVE",
"339 172 OFFCURVE",
"411 404 OFFCURVE",
"449 523 CURVE",
"494 523 OFFCURVE",
"536 519 OFFCURVE",
"561 510 CURVE SMOOTH",
"572 506 OFFCURVE",
"580 505 OFFCURVE",
"585 505 CURVE SMOOTH",
"606 505 OFFCURVE",
"579 532 OFFCURVE",
"567 538 CURVE SMOOTH",
"542 550 OFFCURVE",
"505 560 OFFCURVE",
"462 564 CURVE",
"465 569 OFFCURVE",
"466 572 OFFCURVE",
"467 576 CURVE SMOOTH",
"468 584 OFFCURVE",
"458 587 OFFCURVE",
"445 587 CURVE SMOOTH",
"431 587 OFFCURVE",
"416 583 OFFCURVE",
"414 576 CURVE SMOOTH",
"411 566 LINE",
"293 567 OFFCURVE",
"163 529 OFFCURVE",
"168 431 CURVE SMOOTH",
"168 427 OFFCURVE",
"171 420 OFFCURVE",
"171 418 CURVE SMOOTH",
"172 373 OFFCURVE",
"224 342 OFFCURVE",
"248 337 CURVE",
"257 334 OFFCURVE",
"261 339 OFFCURVE",
"250 346 CURVE SMOOTH",
"234 356 OFFCURVE",
"194 368 OFFCURVE",
"192 405 CURVE SMOOTH",
"188 478 OFFCURVE",
"295 514 OFFCURVE",
"400 522 CURVE",
"370 404 OFFCURVE",
"311 181 OFFCURVE",
"234 78 CURVE SMOOTH"
);
}
);
width = 420;
}
);
note = Imacron;
unicode = 012A;
},
{
color = 3;
glyphname = Iogonek;
lastChange = "2021-04-21 15:13:23 +0000";
layers = (
{
hints = (
{
horizontal = 1;
place = "{259, 40}";
type = Stem;
},
{
place = "{-63, 72}";
type = Stem;
},
{
place = "{486, 48}";
type = Stem;
}
);
layerId = "BDD3FA2A-F197-48C4-9241-A354346F8EDC";
paths = (
{
closed = 1;
nodes = (
"204 38 OFFCURVE",
"171 25 OFFCURVE",
"140 25 CURVE SMOOTH",
"112 25 OFFCURVE",
"87 36 OFFCURVE",
"68 50 CURVE SMOOTH",
"64 53 OFFCURVE",
"58 55 OFFCURVE",
"51 55 CURVE SMOOTH",
"37 55 OFFCURVE",
"20 48 OFFCURVE",
"13 33 CURVE SMOOTH",
"0 0 OFFCURVE",
"11 -7 OFFCURVE",
"37 -9 CURVE SMOOTH",
"57 -9 OFFCURVE",
"127 -8 OFFCURVE",
"199 -6 CURVE",
"161 -28 OFFCURVE",
"105 -66 OFFCURVE",
"57 -99 CURVE SMOOTH",
"11 -131 OFFCURVE",
"-22 -173 OFFCURVE",
"-22 -212 CURVE SMOOTH",
"-22 -251 OFFCURVE",
"20 -284 OFFCURVE",
"55 -284 CURVE SMOOTH",
"133 -284 OFFCURVE",
"204 -179 OFFCURVE",
"218 -162 CURVE SMOOTH",
"223 -157 OFFCURVE",
"226 -151 OFFCURVE",
"226 -146 CURVE SMOOTH",
"226 -144 OFFCURVE",
"224 -142 OFFCURVE",
"221 -142 CURVE SMOOTH",
"217 -142 OFFCURVE",
"212 -144 OFFCURVE",
"206 -150 CURVE",
"187 -165 OFFCURVE",
"81 -267 OFFCURVE",
"40 -267 CURVE SMOOTH",
"26 -267 OFFCURVE",
"21 -250 OFFCURVE",
"21 -238 CURVE SMOOTH",
"21 -192 OFFCURVE",
"82 -122 OFFCURVE",
"106 -100 CURVE SMOOTH",
"151 -59 OFFCURVE",
"201 -37 OFFCURVE",
"238 -5 CURVE",
"313 -3 OFFCURVE",
"382 1 OFFCURVE",
"390 5 CURVE SMOOTH",
"397 9 OFFCURVE",
"422 31 OFFCURVE",
"389 28 CURVE SMOOTH",
"349 26 OFFCURVE",
"287 23 OFFCURVE",
"216 24 CURVE",
"228 34 OFFCURVE",
"240 48 OFFCURVE",
"253 62 CURVE",
"339 172 OFFCURVE",
"411 404 OFFCURVE",
"449 523 CURVE",
"494 523 OFFCURVE",
"536 519 OFFCURVE",
"561 510 CURVE SMOOTH",
"572 506 OFFCURVE",
"580 505 OFFCURVE",
"585 505 CURVE SMOOTH",
"606 505 OFFCURVE",
"579 532 OFFCURVE",
"567 538 CURVE SMOOTH",
"542 550 OFFCURVE",
"505 560 OFFCURVE",
"462 564 CURVE",
"465 569 OFFCURVE",
"466 572 OFFCURVE",
"467 576 CURVE SMOOTH",
"468 584 OFFCURVE",
"458 587 OFFCURVE",
"445 587 CURVE SMOOTH",
"431 587 OFFCURVE",
"416 583 OFFCURVE",
"414 576 CURVE SMOOTH",
"411 566 LINE",
"293 567 OFFCURVE",
"163 529 OFFCURVE",
"168 431 CURVE SMOOTH",
"168 427 OFFCURVE",
"171 420 OFFCURVE",
"171 418 CURVE SMOOTH",
"172 373 OFFCURVE",
"224 342 OFFCURVE",
"248 337 CURVE",
"257 334 OFFCURVE",
"261 339 OFFCURVE",
"250 346 CURVE SMOOTH",
"234 356 OFFCURVE",
"194 368 OFFCURVE",
"192 405 CURVE SMOOTH",
"188 478 OFFCURVE",
"295 514 OFFCURVE",
"400 522 CURVE",
"370 404 OFFCURVE",
"311 181 OFFCURVE",
"234 78 CURVE SMOOTH"
);
}
);
width = 420;
}
);
note = Iogonek;
unicode = 012E;
},
{
color = 3;
glyphname = Itilde;
lastChange = "2021-04-21 15:13:23 +0000";
layers = (
{
hints = (
{
horizontal = 1;
place = "{259, 40}";
type = Stem;
},
{
horizontal = 1;
place = "{686, 44}";
type = Stem;
},
{
place = "{-63, 72}";
type = Stem;
},
{
place = "{336, 262}";
type = Stem;
},
{
place = "{486, 48}";
type = Stem;
}
);
layerId = "BDD3FA2A-F197-48C4-9241-A354346F8EDC";
paths = (
{
closed = 1;
nodes = (
"598 720 OFFCURVE",
"593 721 OFFCURVE",
"588 721 CURVE SMOOTH",
"575 721 OFFCURVE",
"566 686 OFFCURVE",
"542 686 CURVE SMOOTH",
"504 686 OFFCURVE",
"448 730 OFFCURVE",
"425 730 CURVE SMOOTH",
"388 730 OFFCURVE",
"361 691 OFFCURVE",
"336 655 CURVE",
"336 654 LINE SMOOTH",
"336 651 OFFCURVE",
"340 649 OFFCURVE",
"345 649 CURVE SMOOTH",
"351 649 OFFCURVE",
"389 687 OFFCURVE",
"414 687 CURVE SMOOTH",
"450 687 OFFCURVE",
"487 655 OFFCURVE",
"523 655 CURVE SMOOTH",
"554 655 OFFCURVE",
"583 683 OFFCURVE",
"598 717 CURVE"
);
},
{
closed = 1;
nodes = (
"204 38 OFFCURVE",
"171 25 OFFCURVE",
"140 25 CURVE SMOOTH",
"112 25 OFFCURVE",
"87 36 OFFCURVE",
"68 50 CURVE SMOOTH",
"64 53 OFFCURVE",
"58 55 OFFCURVE",
"51 55 CURVE SMOOTH",
"37 55 OFFCURVE",
"20 48 OFFCURVE",
"13 33 CURVE SMOOTH",
"0 0 OFFCURVE",
"11 -7 OFFCURVE",
"37 -9 CURVE SMOOTH",
"82 -10 OFFCURVE",
"373 -4 OFFCURVE",
"390 5 CURVE SMOOTH",
"397 9 OFFCURVE",
"422 31 OFFCURVE",
"389 28 CURVE SMOOTH",
"349 26 OFFCURVE",
"287 23 OFFCURVE",
"216 24 CURVE",
"228 34 OFFCURVE",
"240 48 OFFCURVE",
"253 62 CURVE",
"339 172 OFFCURVE",
"411 404 OFFCURVE",
"449 523 CURVE",
"494 523 OFFCURVE",
"536 519 OFFCURVE",
"561 510 CURVE SMOOTH",
"572 506 OFFCURVE",
"580 505 OFFCURVE",
"585 505 CURVE SMOOTH",
"606 505 OFFCURVE",
"579 532 OFFCURVE",
"567 538 CURVE SMOOTH",
"542 550 OFFCURVE",
"505 560 OFFCURVE",
"462 564 CURVE",
"465 569 OFFCURVE",
"466 572 OFFCURVE",
"467 576 CURVE SMOOTH",
"468 584 OFFCURVE",
"458 587 OFFCURVE",
"445 587 CURVE SMOOTH",
"431 587 OFFCURVE",
"416 583 OFFCURVE",
"414 576 CURVE SMOOTH",
"411 566 LINE",
"293 567 OFFCURVE",
"163 529 OFFCURVE",
"168 431 CURVE SMOOTH",
"168 427 OFFCURVE",
"171 420 OFFCURVE",
"171 418 CURVE SMOOTH",
"172 373 OFFCURVE",
"224 342 OFFCURVE",
"248 337 CURVE",
"257 334 OFFCURVE",
"261 339 OFFCURVE",
"250 346 CURVE SMOOTH",
"234 356 OFFCURVE",
"194 368 OFFCURVE",
"192 405 CURVE SMOOTH",
"188 478 OFFCURVE",
"295 514 OFFCURVE",
"400 522 CURVE",
"370 404 OFFCURVE",
"311 181 OFFCURVE",
"234 78 CURVE SMOOTH"
);
}
);
width = 420;
}
);
note = Itilde;
unicode = 0128;
},
{
glyphname = J;
layers = (
{
hints = (
{
horizontal = 1;
place = "{-93, 63}";
type = Stem;
},
{
place = "{-27, 55}";
type = Stem;
}
);
layerId = "BDD3FA2A-F197-48C4-9241-A354346F8EDC";
paths = (
{
closed = 1;
nodes = (
"556 587 OFFCURVE",
"539 576 OFFCURVE",
"525 559 CURVE",
"498 564 OFFCURVE",
"467 566 OFFCURVE",
"435 566 CURVE SMOOTH",
"316 566 OFFCURVE",
"187 529 OFFCURVE",
"193 431 CURVE",
"193 387 OFFCURVE",
"229 346 OFFCURVE",
"272 337 CURVE SMOOTH",
"282 334 OFFCURVE",
"285 339 OFFCURVE",
"275 346 CURVE SMOOTH",
"259 356 OFFCURVE",
"218 368 OFFCURVE",
"216 405 CURVE SMOOTH",
"211 497 OFFCURVE",
"379 528 OFFCURVE",
"499 523 CURVE",
"460 455 OFFCURVE",
"434 350 OFFCURVE",
"417 304 CURVE",
"290 264 OFFCURVE",
"181 203 OFFCURVE",
"93 101 CURVE SMOOTH",
"-6 -12 OFFCURVE",
"29 -103 OFFCURVE",
"115 -103 CURVE SMOOTH",
"206 -103 OFFCURVE",
"355 -1 OFFCURVE",
"459 284 CURVE SMOOTH",
"467 309 OFFCURVE",
"543 322 OFFCURVE",
"558 315 CURVE SMOOTH",
"565 311 OFFCURVE",
"569 323 OFFCURVE",
"561 328 CURVE SMOOTH",
"550 334 OFFCURVE",
"512 329 OFFCURVE",
"467 318 CURVE",
"486 379 OFFCURVE",
"505 465 OFFCURVE",
"528 521 CURVE",
"551 519 OFFCURVE",
"571 515 OFFCURVE",
"586 510 CURVE SMOOTH",
"597 506 OFFCURVE",
"605 505 OFFCURVE",
"610 505 CURVE SMOOTH",
"630 505 OFFCURVE",
"603 532 OFFCURVE",
"592 538 CURVE SMOOTH",
"580 544 OFFCURVE",
"564 549 OFFCURVE",
"547 554 CURVE",
"556 564 OFFCURVE",
"567 570 OFFCURVE",
"575 571 CURVE SMOOTH",
"587 573 OFFCURVE",
"590 587 OFFCURVE",
"575 587 CURVE SMOOTH"
);
},
{
closed = 1;
nodes = (
"378 193 OFFCURVE",
"256 -75 OFFCURVE",
"135 -75 CURVE SMOOTH",
"76 -75 OFFCURVE",
"57 2 OFFCURVE",
"140 105 CURVE SMOOTH",
"211 193 OFFCURVE",
"304 250 OFFCURVE",
"411 285 CURVE"
);
}
);
width = 560;
}
);
note = J;
unicode = 004A;
},
{
color = 3;
glyphname = Jcircumflex;
lastChange = "2021-04-21 15:13:23 +0000";
layers = (
{
hints = (
{
horizontal = 1;
place = "{-93, 63}";
type = Stem;
},
{
horizontal = 1;
place = "{636, 110}";
type = Stem;
},
{
place = "{-27, 55}";
type = Stem;
},
{
place = "{464, 200}";
type = Stem;
}
);
layerId = "BDD3FA2A-F197-48C4-9241-A354346F8EDC";
paths = (
{
closed = 1;
nodes = (
"643 682 OFFCURVE",
"600 738 OFFCURVE",
"582 745 CURVE",
"562 744 OFFCURVE",
"490 673 OFFCURVE",
"473 660 CURVE",
"468 655 OFFCURVE",
"462 647 OFFCURVE",
"462 642 CURVE SMOOTH",
"462 641 OFFCURVE",
"464 638 OFFCURVE",
"466 638 CURVE SMOOTH",
"487 638 OFFCURVE",
"539 692 OFFCURVE",
"570 711 CURVE",
"592 687 OFFCURVE",
"662 636 OFFCURVE",
"659 636 CURVE",
"662 636 OFFCURVE",
"664 639 OFFCURVE",
"664 643 CURVE SMOOTH",
"664 647 OFFCURVE",
"662 651 OFFCURVE",
"660 655 CURVE SMOOTH"
);
},
{
closed = 1;
nodes = (
"556 587 OFFCURVE",
"539 576 OFFCURVE",
"525 559 CURVE",
"498 564 OFFCURVE",
"467 566 OFFCURVE",
"435 566 CURVE SMOOTH",
"316 566 OFFCURVE",
"187 529 OFFCURVE",
"193 431 CURVE",
"193 387 OFFCURVE",
"229 346 OFFCURVE",
"272 337 CURVE SMOOTH",
"282 334 OFFCURVE",
"285 339 OFFCURVE",
"275 346 CURVE SMOOTH",
"259 356 OFFCURVE",
"218 368 OFFCURVE",
"216 405 CURVE SMOOTH",
"211 497 OFFCURVE",
"379 528 OFFCURVE",
"499 523 CURVE",
"460 455 OFFCURVE",
"434 350 OFFCURVE",
"417 304 CURVE",
"290 264 OFFCURVE",
"181 203 OFFCURVE",
"93 101 CURVE SMOOTH",
"-6 -12 OFFCURVE",
"29 -103 OFFCURVE",
"115 -103 CURVE SMOOTH",
"206 -103 OFFCURVE",
"355 -1 OFFCURVE",
"459 284 CURVE SMOOTH",
"467 309 OFFCURVE",
"543 322 OFFCURVE",
"558 315 CURVE SMOOTH",
"565 311 OFFCURVE",
"569 323 OFFCURVE",
"561 328 CURVE SMOOTH",
"550 334 OFFCURVE",
"512 329 OFFCURVE",
"467 318 CURVE",
"486 379 OFFCURVE",
"505 465 OFFCURVE",
"528 521 CURVE",
"551 519 OFFCURVE",
"571 515 OFFCURVE",
"586 510 CURVE SMOOTH",
"597 506 OFFCURVE",
"605 505 OFFCURVE",
"610 505 CURVE SMOOTH",
"630 505 OFFCURVE",
"603 532 OFFCURVE",
"592 538 CURVE SMOOTH",
"580 544 OFFCURVE",
"564 549 OFFCURVE",
"547 554 CURVE",
"556 564 OFFCURVE",
"567 570 OFFCURVE",
"575 571 CURVE SMOOTH",
"587 573 OFFCURVE",
"590 587 OFFCURVE",
"575 587 CURVE SMOOTH"
);
},
{
closed = 1;
nodes = (
"378 193 OFFCURVE",
"256 -75 OFFCURVE",
"135 -75 CURVE SMOOTH",
"76 -75 OFFCURVE",
"57 2 OFFCURVE",
"140 105 CURVE SMOOTH",
"211 193 OFFCURVE",
"304 250 OFFCURVE",
"411 285 CURVE"
);
}
);
width = 560;
}
);
note = Jcircumflex;
unicode = 0134;
},
{
glyphname = K;
layers = (
{
hints = (
{
horizontal = 1;
place = "{-66, 72}";
type = Stem;
},
{
horizontal = 1;
place = "{494, 56}";
type = Stem;
},
{
horizontal = 1;
place = "{738, -20}";
target = down;
type = TopGhost;
},
{
place = "{-144, 40}";
type = Stem;
},
{
place = "{323, 43}";
type = Stem;
}
);
layerId = "BDD3FA2A-F197-48C4-9241-A354346F8EDC";
paths = (
{
closed = 1;
nodes = (
"189 309 OFFCURVE",
"75 -46 OFFCURVE",
"-100 -100 CURVE SMOOTH",
"-109 -103 OFFCURVE",
"-120 -104 OFFCURVE",
"-130 -104 CURVE SMOOTH",
"-162 -104 OFFCURVE",
"-191 -98 OFFCURVE",
"-203 -65 CURVE",
"-206 -51 OFFCURVE",
"-210 -46 OFFCURVE",
"-214 -46 CURVE SMOOTH",
"-219 -46 OFFCURVE",
"-222 -59 OFFCURVE",
"-220 -70 CURVE",
"-207 -111 OFFCURVE",
"-175 -131 OFFCURVE",
"-134 -131 CURVE SMOOTH",
"-25 -131 OFFCURVE",
"59 -12 OFFCURVE",
"109 71 CURVE",
"143 117 OFFCURVE",
"203 189 OFFCURVE",
"259 254 CURVE",
"282 126 OFFCURVE",
"339 -32 OFFCURVE",
"462 -32 CURVE SMOOTH",
"487 -32 OFFCURVE",
"537 -13 OFFCURVE",
"538 27 CURVE SMOOTH",
"538 44 OFFCURVE",
"523 71 OFFCURVE",
"516 78 CURVE SMOOTH",
"505 89 OFFCURVE",
"484 93 OFFCURVE",
"498 72 CURVE SMOOTH",
"514 49 OFFCURVE",
"537 -6 OFFCURVE",
"489 -6 CURVE SMOOTH",
"464 -6 OFFCURVE",
"431 17 OFFCURVE",
"401 52 CURVE SMOOTH",
"334 135 OFFCURVE",
"314 184 OFFCURVE",
"285 287 CURVE",
"357 366 OFFCURVE",
"560 497 OFFCURVE",
"659 543 CURVE SMOOTH",
"691 559 OFFCURVE",
"689 593 OFFCURVE",
"651 593 CURVE SMOOTH",
"639 593 OFFCURVE",
"623 589 OFFCURVE",
"603 580 CURVE SMOOTH",
"572 565 OFFCURVE",
"311 346 OFFCURVE",
"281 311 CURVE SMOOTH",
"279 309 LINE",
"278 314 OFFCURVE",
"277 318 OFFCURVE",
"277 323 CURVE",
"275 332 OFFCURVE",
"272 335 OFFCURVE",
"270 335 CURVE SMOOTH",
"264 335 OFFCURVE",
"258 324 OFFCURVE",
"256 317 CURVE",
"255 306 OFFCURVE",
"254 294 OFFCURVE",
"255 279 CURVE",
"220 242 OFFCURVE",
"193 211 OFFCURVE",
"167 179 CURVE",
"228 305 OFFCURVE",
"273 437 OFFCURVE",
"326 564 CURVE",
"327 572 OFFCURVE",
"315 576 OFFCURVE",
"300 576 CURVE SMOOTH",
"284 576 OFFCURVE",
"266 571 OFFCURVE",
"264 564 CURVE",
"233 494 OFFCURVE",
"165 434 OFFCURVE",
"109 428 CURVE SMOOTH",
"94 427 OFFCURVE",
"94 411 OFFCURVE",
"109 412 CURVE SMOOTH",
"149 416 OFFCURVE",
"198 432 OFFCURVE",
"235 466 CURVE"
);
}
);
width = 545;
}
);
note = K;
unicode = 004B;
},
{
color = 3;
glyphname = Kcommaaccent;
lastChange = "2021-04-21 15:13:23 +0000";
layers = (
{
hints = (
{
horizontal = 1;
place = "{-243, 171}";
type = Stem;
},
{
horizontal = 1;
place = "{-66, 72}";
type = Stem;
},
{
horizontal = 1;
place = "{494, 56}";
type = Stem;
},
{
horizontal = 1;
place = "{738, -20}";
target = down;
type = TopGhost;
},
{
place = "{-144, 40}";
type = Stem;
},
{
place = "{82, 115}";
type = Stem;
},
{
place = "{323, 43}";
type = Stem;
}
);
layerId = "BDD3FA2A-F197-48C4-9241-A354346F8EDC";
paths = (
{
closed = 1;
nodes = (
"189 309 OFFCURVE",
"75 -46 OFFCURVE",
"-100 -100 CURVE SMOOTH",
"-109 -103 OFFCURVE",
"-120 -104 OFFCURVE",
"-130 -104 CURVE SMOOTH",
"-162 -104 OFFCURVE",
"-191 -98 OFFCURVE",
"-203 -65 CURVE",
"-206 -51 OFFCURVE",
"-210 -46 OFFCURVE",
"-214 -46 CURVE SMOOTH",
"-219 -46 OFFCURVE",
"-222 -59 OFFCURVE",
"-220 -70 CURVE",
"-207 -111 OFFCURVE",
"-175 -131 OFFCURVE",
"-134 -131 CURVE SMOOTH",
"-25 -131 OFFCURVE",
"59 -12 OFFCURVE",
"109 71 CURVE",
"143 117 OFFCURVE",
"203 189 OFFCURVE",
"259 254 CURVE",
"282 126 OFFCURVE",
"339 -32 OFFCURVE",
"462 -32 CURVE SMOOTH",
"487 -32 OFFCURVE",
"537 -13 OFFCURVE",
"538 27 CURVE SMOOTH",
"538 44 OFFCURVE",
"523 71 OFFCURVE",
"516 78 CURVE SMOOTH",
"505 89 OFFCURVE",
"484 93 OFFCURVE",
"498 72 CURVE SMOOTH",
"514 49 OFFCURVE",
"537 -6 OFFCURVE",
"489 -6 CURVE SMOOTH",
"464 -6 OFFCURVE",
"431 17 OFFCURVE",
"401 52 CURVE SMOOTH",
"334 135 OFFCURVE",
"314 184 OFFCURVE",
"285 287 CURVE",
"357 366 OFFCURVE",
"560 497 OFFCURVE",
"659 543 CURVE SMOOTH",
"691 559 OFFCURVE",
"689 593 OFFCURVE",
"651 593 CURVE SMOOTH",
"639 593 OFFCURVE",
"623 589 OFFCURVE",
"603 580 CURVE SMOOTH",
"572 565 OFFCURVE",
"311 346 OFFCURVE",
"281 311 CURVE SMOOTH",
"279 309 LINE",
"278 314 OFFCURVE",
"277 318 OFFCURVE",
"277 323 CURVE",
"275 332 OFFCURVE",
"272 335 OFFCURVE",
"270 335 CURVE SMOOTH",
"264 335 OFFCURVE",
"258 324 OFFCURVE",
"256 317 CURVE",
"255 306 OFFCURVE",
"254 294 OFFCURVE",
"255 279 CURVE",
"220 242 OFFCURVE",
"193 211 OFFCURVE",
"167 179 CURVE",
"228 305 OFFCURVE",
"273 437 OFFCURVE",
"326 564 CURVE",
"327 572 OFFCURVE",
"315 576 OFFCURVE",
"300 576 CURVE SMOOTH",
"284 576 OFFCURVE",
"266 571 OFFCURVE",
"264 564 CURVE",
"233 494 OFFCURVE",
"165 434 OFFCURVE",
"109 428 CURVE SMOOTH",
"94 427 OFFCURVE",
"94 411 OFFCURVE",
"109 412 CURVE SMOOTH",
"149 416 OFFCURVE",
"198 432 OFFCURVE",
"235 466 CURVE"
);
},
{
closed = 1;
nodes = (
"196 -93 OFFCURVE",
"187 -72 OFFCURVE",
"171 -72 CURVE SMOOTH",
"166 -72 OFFCURVE",
"148 -70 OFFCURVE",
"144 -82 CURVE SMOOTH",
"137 -105 OFFCURVE",
"159 -100 OFFCURVE",
"148 -133 CURVE SMOOTH",
"139 -162 OFFCURVE",
"122 -185 OFFCURVE",
"104 -207 CURVE SMOOTH",
"92 -221 OFFCURVE",
"82 -233 OFFCURVE",
"82 -234 CURVE SMOOTH",
"82 -238 OFFCURVE",
"82 -248 OFFCURVE",
"93 -240 CURVE SMOOTH",
"115 -224 OFFCURVE",
"196 -130 OFFCURVE",
"196 -104 CURVE SMOOTH"
);
}
);
width = 516;
}
);
note = Kcommaaccent;
},
{
glyphname = L;
layers = (
{
hints = (
{
horizontal = 1;
place = "{35, 50}";
type = Stem;
},
{
horizontal = 1;
place = "{166, 52}";
type = Stem;
},
{
place = "{321, 67}";
type = Stem;
},
{
place = "{680, 40}";
type = Stem;
}
);
layerId = "BDD3FA2A-F197-48C4-9241-A354346F8EDC";
paths = (
{
closed = 1;
nodes = (
"143 133 OFFCURVE",
"133 115 OFFCURVE",
"123 98 CURVE SMOOTH",
"111 76 OFFCURVE",
"81 28 OFFCURVE",
"52 2 CURVE",
"37 1 OFFCURVE",
"22 1 OFFCURVE",
"13 -4 CURVE SMOOTH",
"-9 -17 OFFCURVE",
"4 -33 OFFCURVE",
"28 -28 CURVE SMOOTH",
"37 -27 OFFCURVE",
"45 -22 OFFCURVE",
"54 -16 CURVE",
"81 -16 OFFCURVE",
"123 -23 OFFCURVE",
"188 -40 CURVE SMOOTH",
"212 -46 OFFCURVE",
"279 -73 OFFCURVE",
"348 -98 CURVE SMOOTH",
"404 -118 OFFCURVE",
"498 -160 OFFCURVE",
"581 -160 CURVE SMOOTH",
"616 -160 OFFCURVE",
"649 -152 OFFCURVE",
"676 -133 CURVE SMOOTH",
"695 -120 OFFCURVE",
"708 -68 OFFCURVE",
"672 -44 CURVE SMOOTH",
"661 -37 OFFCURVE",
"655 -48 OFFCURVE",
"666 -55 CURVE SMOOTH",
"683 -67 OFFCURVE",
"678 -88 OFFCURVE",
"662 -99 CURVE SMOOTH",
"650 -107 OFFCURVE",
"630 -111 OFFCURVE",
"608 -111 CURVE SMOOTH",
"559 -111 OFFCURVE",
"497 -96 OFFCURVE",
"466 -88 CURVE SMOOTH",
"359 -61 OFFCURVE",
"250 -22 OFFCURVE",
"142 -5 CURVE SMOOTH",
"117 -1 OFFCURVE",
"95 1 OFFCURVE",
"77 2 CURVE",
"104 28 OFFCURVE",
"131 63 OFFCURVE",
"144 82 CURVE SMOOTH",
"165 109 OFFCURVE",
"184 138 OFFCURVE",
"201 166 CURVE",
"359 203 OFFCURVE",
"550 333 OFFCURVE",
"584 497 CURVE SMOOTH",
"594 545 OFFCURVE",
"581 586 OFFCURVE",
"521 595 CURVE SMOOTH",
"479 603 OFFCURVE",
"414 589 OFFCURVE",
"356 533 CURVE SMOOTH",
"316 493 OFFCURVE",
"260 384 OFFCURVE",
"212 278 CURVE SMOOTH",
"196 242 OFFCURVE",
"181 206 OFFCURVE",
"162 170 CURVE",
"133 162 OFFCURVE",
"99 160 OFFCURVE",
"73 165 CURVE SMOOTH",
"24 173 OFFCURVE",
"48 235 OFFCURVE",
"73 235 CURVE SMOOTH",
"87 235 OFFCURVE",
"83 250 OFFCURVE",
"70 250 CURVE SMOOTH",
"43 250 OFFCURVE",
"13 220 OFFCURVE",
"15 192 CURVE SMOOTH",
"16 153 OFFCURVE",
"48 140 OFFCURVE",
"83 140 CURVE SMOOTH",
"105 139 OFFCURVE",
"131 144 OFFCURVE",
"153 151 CURVE"
);
},
{
closed = 1;
nodes = (
"245 235 OFFCURVE",
"268 278 OFFCURVE",
"279 299 CURVE SMOOTH",
"309 354 OFFCURVE",
"373 501 OFFCURVE",
"451 559 CURVE SMOOTH",
"471 573 OFFCURVE",
"492 582 OFFCURVE",
"512 582 CURVE SMOOTH",
"525 583 OFFCURVE",
"534 580 OFFCURVE",
"540 573 CURVE",
"560 555 OFFCURVE",
"554 520 OFFCURVE",
"537 481 CURVE SMOOTH",
"473 333 OFFCURVE",
"361 251 OFFCURVE",
"216 189 CURVE"
);
}
);
width = 403;
}
);
note = L;
unicode = 004C;
},
{
color = 3;
glyphname = Lacute;
lastChange = "2021-04-21 15:13:23 +0000";
layers = (
{
hints = (
{
horizontal = 1;
place = "{35, 50}";
type = Stem;
},
{
horizontal = 1;
place = "{166, 52}";
type = Stem;
},
{
horizontal = 1;
place = "{306, 27}";
type = Stem;
},
{
horizontal = 1;
place = "{645, -20}";
target = down;
type = TopGhost;
},
{
place = "{321, 67}";
type = Stem;
},
{
place = "{580, 34}";
type = Stem;
},
{
place = "{680, 40}";
type = Stem;
},
{
place = "{379, 35}";
type = Stem;
}
);
layerId = "BDD3FA2A-F197-48C4-9241-A354346F8EDC";
paths = (
{
closed = 1;
nodes = (
"698 738 LINE SMOOTH",
"705 744 OFFCURVE",
"705 761 OFFCURVE",
"692 770 CURVE",
"687 771 OFFCURVE",
"675 778 OFFCURVE",
"664 773 CURVE",
"645 749 OFFCURVE",
"616 733 OFFCURVE",
"590 711 CURVE SMOOTH",
"580 703 OFFCURVE",
"538 676 OFFCURVE",
"537 673 CURVE",
"533 670 OFFCURVE",
"528 662 OFFCURVE",
"540 662 CURVE SMOOTH",
"558 664 OFFCURVE",
"676 720 OFFCURVE",
"697 737 CURVE SMOOTH"
);
},
{
closed = 1;
nodes = (
"143 133 OFFCURVE",
"133 115 OFFCURVE",
"123 98 CURVE SMOOTH",
"111 76 OFFCURVE",
"81 28 OFFCURVE",
"52 2 CURVE",
"37 1 OFFCURVE",
"22 1 OFFCURVE",
"13 -4 CURVE SMOOTH",
"-9 -17 OFFCURVE",
"4 -33 OFFCURVE",
"28 -28 CURVE SMOOTH",
"37 -27 OFFCURVE",
"45 -22 OFFCURVE",
"54 -16 CURVE",
"81 -16 OFFCURVE",
"123 -23 OFFCURVE",
"188 -40 CURVE SMOOTH",
"212 -46 OFFCURVE",
"279 -73 OFFCURVE",
"348 -98 CURVE SMOOTH",
"404 -118 OFFCURVE",
"498 -160 OFFCURVE",
"581 -160 CURVE SMOOTH",
"616 -160 OFFCURVE",
"649 -152 OFFCURVE",
"676 -133 CURVE SMOOTH",
"695 -120 OFFCURVE",
"708 -68 OFFCURVE",
"672 -44 CURVE SMOOTH",
"661 -37 OFFCURVE",
"655 -48 OFFCURVE",
"666 -55 CURVE SMOOTH",
"683 -67 OFFCURVE",
"678 -88 OFFCURVE",
"662 -99 CURVE SMOOTH",
"650 -107 OFFCURVE",
"630 -111 OFFCURVE",
"608 -111 CURVE SMOOTH",
"559 -111 OFFCURVE",
"497 -96 OFFCURVE",
"466 -88 CURVE SMOOTH",
"359 -61 OFFCURVE",
"250 -22 OFFCURVE",
"142 -5 CURVE SMOOTH",
"117 -1 OFFCURVE",
"95 1 OFFCURVE",
"77 2 CURVE",
"104 28 OFFCURVE",
"131 63 OFFCURVE",
"144 82 CURVE SMOOTH",
"165 109 OFFCURVE",
"184 138 OFFCURVE",
"201 166 CURVE",
"359 203 OFFCURVE",
"550 333 OFFCURVE",
"584 497 CURVE SMOOTH",
"594 545 OFFCURVE",
"581 586 OFFCURVE",
"521 595 CURVE SMOOTH",
"479 603 OFFCURVE",
"414 589 OFFCURVE",
"356 533 CURVE SMOOTH",
"316 493 OFFCURVE",
"260 384 OFFCURVE",
"212 278 CURVE SMOOTH",
"196 242 OFFCURVE",
"181 206 OFFCURVE",
"162 170 CURVE",
"133 162 OFFCURVE",
"99 160 OFFCURVE",
"73 165 CURVE SMOOTH",
"24 173 OFFCURVE",
"48 235 OFFCURVE",
"73 235 CURVE SMOOTH",
"87 235 OFFCURVE",
"83 250 OFFCURVE",
"70 250 CURVE SMOOTH",
"43 250 OFFCURVE",
"13 220 OFFCURVE",
"15 192 CURVE SMOOTH",
"16 153 OFFCURVE",
"48 140 OFFCURVE",
"83 140 CURVE SMOOTH",
"105 139 OFFCURVE",
"131 144 OFFCURVE",
"153 151 CURVE"
);
},
{
closed = 1;
nodes = (
"245 235 OFFCURVE",
"268 278 OFFCURVE",
"279 299 CURVE SMOOTH",
"309 354 OFFCURVE",
"373 501 OFFCURVE",
"451 559 CURVE SMOOTH",
"471 573 OFFCURVE",
"492 582 OFFCURVE",
"512 582 CURVE SMOOTH",
"525 583 OFFCURVE",
"534 580 OFFCURVE",
"540 573 CURVE",
"560 555 OFFCURVE",
"554 520 OFFCURVE",
"537 481 CURVE SMOOTH",
"473 333 OFFCURVE",
"361 251 OFFCURVE",
"216 189 CURVE"
);
}
);
width = 501;
}
);
note = Lacute;
unicode = 0139;
},
{
color = 3;
glyphname = Lcaron;
lastChange = "2021-04-21 15:13:23 +0000";
layers = (
{
hints = (
{
horizontal = 1;
place = "{35, 50}";
type = Stem;
},
{
horizontal = 1;
place = "{166, 52}";
type = Stem;
},
{
place = "{321, 67}";
type = Stem;
},
{
place = "{680, 40}";
type = Stem;
}
);
layerId = "BDD3FA2A-F197-48C4-9241-A354346F8EDC";
paths = (
{
closed = 1;
nodes = (
"583 634 OFFCURVE",
"655 705 OFFCURVE",
"672 719 CURVE",
"678 722 OFFCURVE",
"683 731 OFFCURVE",
"683 736 CURVE SMOOTH",
"683 738 OFFCURVE",
"682 739 OFFCURVE",
"680 739 CURVE SMOOTH",
"659 739 OFFCURVE",
"606 687 OFFCURVE",
"577 669 CURVE",
"555 693 OFFCURVE",
"483 743 OFFCURVE",
"487 743 CURVE",
"483 743 OFFCURVE",
"482 741 OFFCURVE",
"482 736 CURVE SMOOTH",
"482 716 OFFCURVE",
"549 639 OFFCURVE",
"565 633 CURVE"
);
},
{
closed = 1;
nodes = (
"143 133 OFFCURVE",
"133 115 OFFCURVE",
"123 98 CURVE SMOOTH",
"111 76 OFFCURVE",
"81 28 OFFCURVE",
"52 2 CURVE",
"37 1 OFFCURVE",
"22 1 OFFCURVE",
"13 -4 CURVE SMOOTH",
"-9 -17 OFFCURVE",
"4 -33 OFFCURVE",
"28 -28 CURVE SMOOTH",
"37 -27 OFFCURVE",
"45 -22 OFFCURVE",
"54 -16 CURVE",
"81 -16 OFFCURVE",
"123 -23 OFFCURVE",
"188 -40 CURVE SMOOTH",
"212 -46 OFFCURVE",
"279 -73 OFFCURVE",
"348 -98 CURVE SMOOTH",
"404 -118 OFFCURVE",
"498 -160 OFFCURVE",
"581 -160 CURVE SMOOTH",
"616 -160 OFFCURVE",
"649 -152 OFFCURVE",
"676 -133 CURVE SMOOTH",
"695 -120 OFFCURVE",
"708 -68 OFFCURVE",
"672 -44 CURVE SMOOTH",
"661 -37 OFFCURVE",
"655 -48 OFFCURVE",
"666 -55 CURVE SMOOTH",
"683 -67 OFFCURVE",
"678 -88 OFFCURVE",
"662 -99 CURVE SMOOTH",
"650 -107 OFFCURVE",
"630 -111 OFFCURVE",
"608 -111 CURVE SMOOTH",
"559 -111 OFFCURVE",
"497 -96 OFFCURVE",
"466 -88 CURVE SMOOTH",
"359 -61 OFFCURVE",
"250 -22 OFFCURVE",
"142 -5 CURVE SMOOTH",
"117 -1 OFFCURVE",
"95 1 OFFCURVE",
"77 2 CURVE",
"104 28 OFFCURVE",
"131 63 OFFCURVE",
"144 82 CURVE SMOOTH",
"165 109 OFFCURVE",
"184 138 OFFCURVE",
"201 166 CURVE",
"359 203 OFFCURVE",
"550 333 OFFCURVE",
"584 497 CURVE SMOOTH",
"594 545 OFFCURVE",
"581 586 OFFCURVE",
"521 595 CURVE SMOOTH",
"479 603 OFFCURVE",
"414 589 OFFCURVE",
"356 533 CURVE SMOOTH",
"316 493 OFFCURVE",
"260 384 OFFCURVE",
"212 278 CURVE SMOOTH",
"196 242 OFFCURVE",
"181 206 OFFCURVE",
"162 170 CURVE",
"133 162 OFFCURVE",
"99 160 OFFCURVE",
"73 165 CURVE SMOOTH",
"24 173 OFFCURVE",
"48 235 OFFCURVE",
"73 235 CURVE SMOOTH",
"87 235 OFFCURVE",
"83 250 OFFCURVE",
"70 250 CURVE SMOOTH",
"43 250 OFFCURVE",
"13 220 OFFCURVE",
"15 192 CURVE SMOOTH",
"16 153 OFFCURVE",
"48 140 OFFCURVE",
"83 140 CURVE SMOOTH",
"105 139 OFFCURVE",
"131 144 OFFCURVE",
"153 151 CURVE"
);
},
{
closed = 1;
nodes = (
"245 235 OFFCURVE",
"268 278 OFFCURVE",
"279 299 CURVE SMOOTH",
"309 354 OFFCURVE",
"373 501 OFFCURVE",
"451 559 CURVE SMOOTH",
"471 573 OFFCURVE",
"492 582 OFFCURVE",
"512 582 CURVE SMOOTH",
"525 583 OFFCURVE",
"534 580 OFFCURVE",
"540 573 CURVE",
"560 555 OFFCURVE",
"554 520 OFFCURVE",
"537 481 CURVE SMOOTH",
"473 333 OFFCURVE",
"361 251 OFFCURVE",
"216 189 CURVE"
);
}
);
width = 501;
}
);
note = Lcaron;
unicode = 013D;
},
{
color = 3;
glyphname = Lcommaaccent;
lastChange = "2021-04-21 15:13:23 +0000";
layers = (
{
hints = (
{
horizontal = 1;
place = "{-264, 171}";
type = Stem;
},
{
horizontal = 1;
place = "{35, 50}";
type = Stem;
},
{
horizontal = 1;
place = "{166, 52}";
type = Stem;
},
{
place = "{51, 115}";
type = Stem;
},
{
place = "{321, 67}";
type = Stem;
},
{
place = "{680, 40}";
type = Stem;
}
);
layerId = "BDD3FA2A-F197-48C4-9241-A354346F8EDC";
paths = (
{
closed = 1;
nodes = (
"143 133 OFFCURVE",
"133 115 OFFCURVE",
"123 98 CURVE SMOOTH",
"111 76 OFFCURVE",
"81 28 OFFCURVE",
"52 2 CURVE",
"37 1 OFFCURVE",
"22 1 OFFCURVE",
"13 -4 CURVE SMOOTH",
"-9 -17 OFFCURVE",
"4 -33 OFFCURVE",
"28 -28 CURVE SMOOTH",
"37 -27 OFFCURVE",
"45 -22 OFFCURVE",
"54 -16 CURVE",
"81 -16 OFFCURVE",
"123 -23 OFFCURVE",
"188 -40 CURVE SMOOTH",
"212 -46 OFFCURVE",
"279 -73 OFFCURVE",
"348 -98 CURVE SMOOTH",
"404 -118 OFFCURVE",
"498 -160 OFFCURVE",
"581 -160 CURVE SMOOTH",
"616 -160 OFFCURVE",
"649 -152 OFFCURVE",
"676 -133 CURVE SMOOTH",
"695 -120 OFFCURVE",
"708 -68 OFFCURVE",
"672 -44 CURVE SMOOTH",
"661 -37 OFFCURVE",
"655 -48 OFFCURVE",
"666 -55 CURVE SMOOTH",
"683 -67 OFFCURVE",
"678 -88 OFFCURVE",
"662 -99 CURVE SMOOTH",
"650 -107 OFFCURVE",
"630 -111 OFFCURVE",
"608 -111 CURVE SMOOTH",
"559 -111 OFFCURVE",
"497 -96 OFFCURVE",
"466 -88 CURVE SMOOTH",
"359 -61 OFFCURVE",
"250 -22 OFFCURVE",
"142 -5 CURVE SMOOTH",
"117 -1 OFFCURVE",
"95 1 OFFCURVE",
"77 2 CURVE",
"104 28 OFFCURVE",
"131 63 OFFCURVE",
"144 82 CURVE SMOOTH",
"165 109 OFFCURVE",
"184 138 OFFCURVE",
"201 166 CURVE",
"359 203 OFFCURVE",
"550 333 OFFCURVE",
"584 497 CURVE SMOOTH",
"594 545 OFFCURVE",
"581 586 OFFCURVE",
"521 595 CURVE SMOOTH",
"479 603 OFFCURVE",
"414 589 OFFCURVE",
"356 533 CURVE SMOOTH",
"316 493 OFFCURVE",
"260 384 OFFCURVE",
"212 278 CURVE SMOOTH",
"196 242 OFFCURVE",
"181 206 OFFCURVE",
"162 170 CURVE",
"133 162 OFFCURVE",
"99 160 OFFCURVE",
"73 165 CURVE SMOOTH",
"24 173 OFFCURVE",
"48 235 OFFCURVE",
"73 235 CURVE SMOOTH",
"87 235 OFFCURVE",
"83 250 OFFCURVE",
"70 250 CURVE SMOOTH",
"43 250 OFFCURVE",
"13 220 OFFCURVE",
"15 192 CURVE SMOOTH",
"16 153 OFFCURVE",
"48 140 OFFCURVE",
"83 140 CURVE SMOOTH",
"105 139 OFFCURVE",
"131 144 OFFCURVE",
"153 151 CURVE"
);
},
{
closed = 1;
nodes = (
"245 235 OFFCURVE",
"268 278 OFFCURVE",
"279 299 CURVE SMOOTH",
"309 354 OFFCURVE",
"373 501 OFFCURVE",
"451 559 CURVE SMOOTH",
"471 573 OFFCURVE",
"492 582 OFFCURVE",
"512 582 CURVE SMOOTH",
"525 583 OFFCURVE",
"534 580 OFFCURVE",
"540 573 CURVE",
"560 555 OFFCURVE",
"554 520 OFFCURVE",
"537 481 CURVE SMOOTH",
"473 333 OFFCURVE",
"361 251 OFFCURVE",
"216 189 CURVE"
);
},
{
closed = 1;
nodes = (
"166 -113 OFFCURVE",
"156 -93 OFFCURVE",
"140 -93 CURVE SMOOTH",
"135 -93 OFFCURVE",
"117 -90 OFFCURVE",
"113 -102 CURVE SMOOTH",
"106 -126 OFFCURVE",
"128 -121 OFFCURVE",
"117 -154 CURVE SMOOTH",
"109 -183 OFFCURVE",
"92 -206 OFFCURVE",
"73 -228 CURVE SMOOTH",
"61 -242 OFFCURVE",
"51 -254 OFFCURVE",
"51 -255 CURVE SMOOTH",
"51 -259 OFFCURVE",
"51 -268 OFFCURVE",
"62 -261 CURVE SMOOTH",
"84 -247 OFFCURVE",
"166 -149 OFFCURVE",
"166 -124 CURVE SMOOTH"
);
}
);
width = 434;
}
);
note = Lcommaaccent;
},
{
color = 3;
glyphname = Ldot;
lastChange = "2021-04-21 15:13:23 +0000";
layers = (
{
hints = (
{
horizontal = 1;
place = "{35, 50}";
type = Stem;
},
{
horizontal = 1;
place = "{166, 52}";
type = Stem;
},
{
place = "{321, 67}";
type = Stem;
},
{
place = "{399, 59}";
type = Stem;
},
{
place = "{680, 40}";
type = Stem;
},
{
horizontal = 1;
place = "{174, 60}";
type = Stem;
}
);
layerId = "BDD3FA2A-F197-48C4-9241-A354346F8EDC";
paths = (
{
closed = 1;
nodes = (
"143 133 OFFCURVE",
"133 115 OFFCURVE",
"123 98 CURVE SMOOTH",
"111 76 OFFCURVE",
"81 28 OFFCURVE",
"52 2 CURVE",
"37 1 OFFCURVE",
"22 1 OFFCURVE",
"13 -4 CURVE SMOOTH",
"-9 -17 OFFCURVE",
"4 -33 OFFCURVE",
"28 -28 CURVE SMOOTH",
"37 -27 OFFCURVE",
"45 -22 OFFCURVE",
"54 -16 CURVE",
"81 -16 OFFCURVE",
"123 -23 OFFCURVE",
"188 -40 CURVE SMOOTH",
"212 -46 OFFCURVE",
"279 -73 OFFCURVE",
"348 -98 CURVE SMOOTH",
"404 -118 OFFCURVE",
"498 -160 OFFCURVE",
"581 -160 CURVE SMOOTH",
"616 -160 OFFCURVE",
"649 -152 OFFCURVE",
"676 -133 CURVE SMOOTH",
"695 -120 OFFCURVE",
"708 -68 OFFCURVE",
"672 -44 CURVE SMOOTH",
"661 -37 OFFCURVE",
"655 -48 OFFCURVE",
"666 -55 CURVE SMOOTH",
"683 -67 OFFCURVE",
"678 -88 OFFCURVE",
"662 -99 CURVE SMOOTH",
"650 -107 OFFCURVE",
"630 -111 OFFCURVE",
"608 -111 CURVE SMOOTH",
"559 -111 OFFCURVE",
"497 -96 OFFCURVE",
"466 -88 CURVE SMOOTH",
"359 -61 OFFCURVE",
"250 -22 OFFCURVE",
"142 -5 CURVE SMOOTH",
"117 -1 OFFCURVE",
"95 1 OFFCURVE",
"77 2 CURVE",
"104 28 OFFCURVE",
"131 63 OFFCURVE",
"144 82 CURVE SMOOTH",
"165 109 OFFCURVE",
"184 138 OFFCURVE",
"201 166 CURVE",
"359 203 OFFCURVE",
"550 333 OFFCURVE",
"584 497 CURVE SMOOTH",
"594 545 OFFCURVE",
"581 586 OFFCURVE",
"521 595 CURVE SMOOTH",
"479 603 OFFCURVE",
"414 589 OFFCURVE",
"356 533 CURVE SMOOTH",
"316 493 OFFCURVE",
"260 384 OFFCURVE",
"212 278 CURVE SMOOTH",
"196 242 OFFCURVE",
"181 206 OFFCURVE",
"162 170 CURVE",
"133 162 OFFCURVE",
"99 160 OFFCURVE",
"73 165 CURVE SMOOTH",
"24 173 OFFCURVE",
"48 235 OFFCURVE",
"73 235 CURVE SMOOTH",
"87 235 OFFCURVE",
"83 250 OFFCURVE",
"70 250 CURVE SMOOTH",
"43 250 OFFCURVE",
"13 220 OFFCURVE",
"15 192 CURVE SMOOTH",
"16 153 OFFCURVE",
"48 140 OFFCURVE",
"83 140 CURVE SMOOTH",
"105 139 OFFCURVE",
"131 144 OFFCURVE",
"153 151 CURVE"
);
},
{
closed = 1;
nodes = (
"245 235 OFFCURVE",
"268 278 OFFCURVE",
"279 299 CURVE SMOOTH",
"309 354 OFFCURVE",
"373 501 OFFCURVE",
"451 559 CURVE SMOOTH",
"471 573 OFFCURVE",
"492 582 OFFCURVE",
"512 582 CURVE SMOOTH",
"525 583 OFFCURVE",
"534 580 OFFCURVE",
"540 573 CURVE",
"560 555 OFFCURVE",
"554 520 OFFCURVE",
"537 481 CURVE SMOOTH",
"473 333 OFFCURVE",
"361 251 OFFCURVE",
"216 189 CURVE"
);
},
{
closed = 1;
nodes = (
"458 222 OFFCURVE",
"460 235 OFFCURVE",
"452 235 CURVE SMOOTH",
"448 235 OFFCURVE",
"441 231 OFFCURVE",
"431 223 CURVE SMOOTH",
"413 207 LINE SMOOTH",
"406 200 OFFCURVE",
"399 193 OFFCURVE",
"399 190 CURVE SMOOTH",
"399 174 OFFCURVE",
"418 174 OFFCURVE",
"432 174 CURVE SMOOTH",
"440 174 OFFCURVE",
"458 203 OFFCURVE",
"458 212 CURVE SMOOTH"
);
}
);
width = 434;
}
);
note = Ldot;
unicode = 013F;
},
{
color = 3;
glyphname = Lslash;
lastChange = "2021-04-21 15:13:23 +0000";
layers = (
{
hints = (
{
horizontal = 1;
place = "{-15, 24}";
type = Stem;
},
{
horizontal = 1;
place = "{307, 15}";
type = Stem;
},
{
horizontal = 1;
place = "{359, 110}";
type = Stem;
},
{
place = "{7, 43}";
type = Stem;
},
{
place = "{214, 50}";
type = Stem;
},
{
place = "{445, 54}";
type = Stem;
},
{
place = "{257, 200}";
type = Stem;
}
);
layerId = "BDD3FA2A-F197-48C4-9241-A354346F8EDC";
paths = (
{
closed = 1;
nodes = (
"437 405 OFFCURVE",
"394 461 OFFCURVE",
"376 468 CURVE",
"356 467 OFFCURVE",
"284 397 OFFCURVE",
"267 383 CURVE SMOOTH",
"260 377 OFFCURVE",
"252 362 OFFCURVE",
"260 362 CURVE SMOOTH",
"263 362 OFFCURVE",
"268 363 OFFCURVE",
"276 368 CURVE SMOOTH",
"306 389 OFFCURVE",
"332 415 OFFCURVE",
"364 434 CURVE",
"367 431 OFFCURVE",
"372 426 OFFCURVE",
"380 420 CURVE SMOOTH",
"428 378 LINE SMOOTH",
"436 372 OFFCURVE",
"441 367 OFFCURVE",
"444 364 CURVE SMOOTH",
"460 350 OFFCURVE",
"460 370 OFFCURVE",
"454 378 CURVE SMOOTH"
);
},
{
closed = 1;
nodes = (
"512 157 OFFCURVE",
"432 66 OFFCURVE",
"359 28 CURVE SMOOTH",
"344 20 OFFCURVE",
"333 17 OFFCURVE",
"324 17 CURVE SMOOTH",
"283 17 OFFCURVE",
"297 89 OFFCURVE",
"306 122 CURVE SMOOTH",
"316 156 OFFCURVE",
"329 189 OFFCURVE",
"349 221 CURVE SMOOTH",
"358 234 OFFCURVE",
"328 245 OFFCURVE",
"307 245 CURVE SMOOTH",
"299 245 OFFCURVE",
"292 243 OFFCURVE",
"290 239 CURVE SMOOTH",
"255 177 OFFCURVE",
"205 94 OFFCURVE",
"151 51 CURVE SMOOTH",
"126 31 OFFCURVE",
"106 21 OFFCURVE",
"92 21 CURVE SMOOTH",
"69 21 OFFCURVE",
"63 50 OFFCURVE",
"83 102 CURVE SMOOTH",
"107 168 OFFCURVE",
"176 245 OFFCURVE",
"198 264 CURVE SMOOTH",
"205 270 OFFCURVE",
"205 278 OFFCURVE",
"194 282 CURVE SMOOTH",
"187 285 OFFCURVE",
"178 287 OFFCURVE",
"168 287 CURVE SMOOTH",
"159 287 OFFCURVE",
"150 285 OFFCURVE",
"142 283 CURVE SMOOTH",
"132 279 OFFCURVE",
"89 218 OFFCURVE",
"76 198 CURVE SMOOTH",
"39 144 OFFCURVE",
"-10 1 OFFCURVE",
"102 1 CURVE SMOOTH",
"182 1 OFFCURVE",
"243 131 OFFCURVE",
"257 153 CURVE",
"244 118 OFFCURVE",
"246 60 OFFCURVE",
"255 34 CURVE SMOOTH",
"264 7 OFFCURVE",
"287 -3 OFFCURVE",
"312 -3 CURVE SMOOTH",
"341 -3 OFFCURVE",
"372 10 OFFCURVE",
"389 22 CURVE SMOOTH",
"418 43 OFFCURVE",
"465 82 OFFCURVE",
"500 124 CURVE SMOOTH",
"554 189 OFFCURVE",
"590 266 OFFCURVE",
"566 318 CURVE SMOOTH",
"556 340 OFFCURVE",
"529 346 OFFCURVE",
"505 346 CURVE SMOOTH",
"494 346 OFFCURVE",
"483 345 OFFCURVE",
"475 343 CURVE SMOOTH",
"467 340 OFFCURVE",
"470 328 OFFCURVE",
"477 331 CURVE",
"487 332 OFFCURVE",
"497 332 OFFCURVE",
"504 329 CURVE SMOOTH",
"536 317 OFFCURVE",
"537 267 OFFCURVE",
"531 239 CURVE SMOOTH"
);
}
);
width = 537;
}
);
note = Lslash;
unicode = 0141;
},
{
glyphname = M;
layers = (
{
hints = (
{
horizontal = 1;
place = "{-145, 40}";
type = Stem;
},
{
horizontal = 1;
place = "{-78, 43}";
type = Stem;
},
{
horizontal = 1;
place = "{43, 92}";
type = Stem;
},
{
place = "{28, 59}";
type = Stem;
},
{
place = "{816, 51}";
type = Stem;
},
{
place = "{1127, 61}";
type = Stem;
}
);
layerId = "BDD3FA2A-F197-48C4-9241-A354346F8EDC";
paths = (
{
closed = 1;
nodes = (
"843 426 OFFCURVE",
"778 339 OFFCURVE",
"726 259 CURVE SMOOTH",
"691 204 OFFCURVE",
"662 153 OFFCURVE",
"630 101 CURVE SMOOTH",
"624 92 OFFCURVE",
"621 88 OFFCURVE",
"620 88 CURVE SMOOTH",
"616 88 OFFCURVE",
"624 110 OFFCURVE",
"627 117 CURVE SMOOTH",
"649 184 OFFCURVE",
"671 268 OFFCURVE",
"677 327 CURVE SMOOTH",
"688 418 OFFCURVE",
"662 522 OFFCURVE",
"534 515 CURVE SMOOTH",
"492 512 OFFCURVE",
"420 464 OFFCURVE",
"344 399 CURVE",
"365 451 OFFCURVE",
"387 506 OFFCURVE",
"411 566 CURVE",
"413 575 OFFCURVE",
"400 578 OFFCURVE",
"385 578 CURVE SMOOTH",
"369 578 OFFCURVE",
"351 574 OFFCURVE",
"348 566 CURVE SMOOTH",
"320 497 OFFCURVE",
"250 437 OFFCURVE",
"194 431 CURVE SMOOTH",
"179 429 OFFCURVE",
"178 414 OFFCURVE",
"193 415 CURVE SMOOTH",
"233 418 OFFCURVE",
"283 434 OFFCURVE",
"320 468 CURVE",
"306 423 OFFCURVE",
"294 382 OFFCURVE",
"282 343 CURVE",
"224 290 OFFCURVE",
"74 138 OFFCURVE",
"15 44 CURVE SMOOTH",
"-29 -26 OFFCURVE",
"-5 -75 OFFCURVE",
"40 -75 CURVE SMOOTH",
"69 -75 OFFCURVE",
"107 -56 OFFCURVE",
"142 -11 CURVE SMOOTH",
"221 89 OFFCURVE",
"292 271 OFFCURVE",
"316 328 CURVE",
"411 415 OFFCURVE",
"506 488 OFFCURVE",
"558 488 CURVE SMOOTH",
"670 488 OFFCURVE",
"626 182 OFFCURVE",
"581 66 CURVE",
"577 58 OFFCURVE",
"590 24 OFFCURVE",
"605 24 CURVE SMOOTH",
"610 24 OFFCURVE",
"616 28 OFFCURVE",
"621 39 CURVE SMOOTH",
"676 156 OFFCURVE",
"828 378 OFFCURVE",
"922 460 CURVE SMOOTH",
"935 472 OFFCURVE",
"947 477 OFFCURVE",
"956 477 CURVE SMOOTH",
"973 477 OFFCURVE",
"979 458 OFFCURVE",
"967 431 CURVE SMOOTH",
"939 357 OFFCURVE",
"844 139 OFFCURVE",
"872 38 CURVE SMOOTH",
"881 3 OFFCURVE",
"907 -10 OFFCURVE",
"935 -10 CURVE SMOOTH",
"960 -10 OFFCURVE",
"987 0 OFFCURVE",
"1007 15 CURVE SMOOTH",
"1046 43 OFFCURVE",
"1109 109 OFFCURVE",
"1135 149 CURVE",
"1141 156 OFFCURVE",
"1127 163 OFFCURVE",
"1122 156 CURVE SMOOTH",
"1096 120 OFFCURVE",
"1002 17 OFFCURVE",
"952 17 CURVE SMOOTH",
"926 17 OFFCURVE",
"912 44 OFFCURVE",
"919 111 CURVE SMOOTH",
"932 245 OFFCURVE",
"992 320 OFFCURVE",
"1022 444 CURVE SMOOTH",
"1037 502 OFFCURVE",
"1014 531 OFFCURVE",
"981 531 CURVE SMOOTH",
"958 531 OFFCURVE",
"930 518 OFFCURVE",
"905 492 CURVE SMOOTH"
);
},
{
closed = 1;
nodes = (
"92 99 OFFCURVE",
"189 211 OFFCURVE",
"262 281 CURVE",
"240 218 OFFCURVE",
"128 -41 OFFCURVE",
"45 -41 CURVE SMOOTH",
"18 -41 OFFCURVE",
"16 -3 OFFCURVE",
"56 50 CURVE SMOOTH"
);
}
);
width = 1070;
}
);
note = M;
unicode = 004D;
},
{
glyphname = N;
layers = (
{
hints = (
{
horizontal = 1;
place = "{63, 34}";
type = Stem;
},
{
horizontal = 1;
place = "{245, 23}";
type = Stem;
},
{
place = "{-51, 34}";
type = Stem;
},
{
place = "{423, 51}";
type = Stem;
},
{
place = "{487, 46}";
type = Stem;
}
);
layerId = "BDD3FA2A-F197-48C4-9241-A354346F8EDC";
paths = (
{
closed = 1;
nodes = (
"223 321 OFFCURVE",
"188 209 OFFCURVE",
"131 100 CURVE SMOOTH",
"91 27 OFFCURVE",
"10 -100 OFFCURVE",
"-86 -100 CURVE SMOOTH",
"-97 -100 OFFCURVE",
"-109 -99 OFFCURVE",
"-117 -96 CURVE",
"-135 -92 OFFCURVE",
"-146 -81 OFFCURVE",
"-151 -63 CURVE SMOOTH",
"-155 -50 OFFCURVE",
"-159 -45 OFFCURVE",
"-162 -45 CURVE SMOOTH",
"-167 -45 OFFCURVE",
"-170 -57 OFFCURVE",
"-167 -67 CURVE SMOOTH",
"-160 -96 OFFCURVE",
"-143 -113 OFFCURVE",
"-117 -122 CURVE SMOOTH",
"-107 -125 OFFCURVE",
"-97 -126 OFFCURVE",
"-86 -126 CURVE SMOOTH",
"26 -126 OFFCURVE",
"112 10 OFFCURVE",
"160 95 CURVE SMOOTH",
"212 190 OFFCURVE",
"249 281 OFFCURVE",
"289 386 CURVE",
"289 212 OFFCURVE",
"326 -54 OFFCURVE",
"481 -54 CURVE SMOOTH",
"619 -54 OFFCURVE",
"745 295 OFFCURVE",
"733 468 CURVE",
"746 457 OFFCURVE",
"777 434 OFFCURVE",
"795 434 CURVE",
"805 436 OFFCURVE",
"817 443 OFFCURVE",
"817 454 CURVE",
"815 463 OFFCURVE",
"812 464 OFFCURVE",
"803 464 CURVE",
"797 461 LINE",
"784 461 OFFCURVE",
"780 463 OFFCURVE",
"770 472 CURVE SMOOTH",
"737 503 OFFCURVE",
"716 590 OFFCURVE",
"675 590 CURVE",
"670 589 OFFCURVE",
"654 577 OFFCURVE",
"656 572 CURVE SMOOTH",
"666 544 OFFCURVE",
"676 522 OFFCURVE",
"682 487 CURVE SMOOTH",
"703 367 OFFCURVE",
"614 -21 OFFCURVE",
"488 -21 CURVE SMOOTH",
"360 -21 OFFCURVE",
"327 381 OFFCURVE",
"340 472 CURVE SMOOTH",
"343 490 OFFCURVE",
"345 527 OFFCURVE",
"351 542 CURVE",
"353 550 OFFCURVE",
"340 554 OFFCURVE",
"326 554 CURVE SMOOTH",
"310 554 OFFCURVE",
"291 549 OFFCURVE",
"288 542 CURVE SMOOTH",
"260 472 OFFCURVE",
"190 414 OFFCURVE",
"134 406 CURVE SMOOTH",
"120 405 OFFCURVE",
"118 388 OFFCURVE",
"133 389 CURVE SMOOTH",
"173 393 OFFCURVE",
"222 409 OFFCURVE",
"260 443 CURVE"
);
}
);
width = 766;
}
);
note = N;
unicode = 004E;
},
{
color = 3;
glyphname = Nacute;
lastChange = "2021-04-21 15:13:23 +0000";
layers = (
{
hints = (
{
horizontal = 1;
place = "{63, 34}";
type = Stem;
},
{
horizontal = 1;
place = "{245, 23}";
type = Stem;
},
{
horizontal = 1;
place = "{265, 27}";
type = Stem;
},
{
horizontal = 1;
place = "{604, -20}";
target = down;
type = TopGhost;
},
{
place = "{-51, 34}";
type = Stem;
},
{
place = "{333, 35}";
type = Stem;
},
{
place = "{423, 51}";
type = Stem;
},
{
place = "{487, 46}";
type = Stem;
},
{
place = "{533, 34}";
type = Stem;
}
);
layerId = "BDD3FA2A-F197-48C4-9241-A354346F8EDC";
paths = (
{
closed = 1;
nodes = (
"651 697 LINE",
"659 703 OFFCURVE",
"659 720 OFFCURVE",
"645 728 CURVE SMOOTH",
"641 730 OFFCURVE",
"628 737 OFFCURVE",
"617 732 CURVE",
"599 708 OFFCURVE",
"570 692 OFFCURVE",
"544 670 CURVE SMOOTH",
"533 661 OFFCURVE",
"492 634 OFFCURVE",
"490 632 CURVE SMOOTH",
"487 628 OFFCURVE",
"482 621 OFFCURVE",
"494 621 CURVE SMOOTH",
"511 622 OFFCURVE",
"630 678 OFFCURVE",
"650 695 CURVE"
);
},
{
closed = 1;
nodes = (
"223 321 OFFCURVE",
"188 209 OFFCURVE",
"131 100 CURVE SMOOTH",
"91 27 OFFCURVE",
"10 -100 OFFCURVE",
"-86 -100 CURVE SMOOTH",
"-97 -100 OFFCURVE",
"-109 -99 OFFCURVE",
"-117 -96 CURVE",
"-135 -92 OFFCURVE",
"-146 -81 OFFCURVE",
"-151 -63 CURVE SMOOTH",
"-155 -50 OFFCURVE",
"-159 -45 OFFCURVE",
"-162 -45 CURVE SMOOTH",
"-167 -45 OFFCURVE",
"-170 -57 OFFCURVE",
"-167 -67 CURVE SMOOTH",
"-160 -96 OFFCURVE",
"-143 -113 OFFCURVE",
"-117 -122 CURVE SMOOTH",
"-107 -125 OFFCURVE",
"-97 -126 OFFCURVE",
"-86 -126 CURVE SMOOTH",
"26 -126 OFFCURVE",
"112 10 OFFCURVE",
"160 95 CURVE SMOOTH",
"212 190 OFFCURVE",
"249 281 OFFCURVE",
"289 386 CURVE",
"289 212 OFFCURVE",
"326 -54 OFFCURVE",
"481 -54 CURVE SMOOTH",
"619 -54 OFFCURVE",
"745 295 OFFCURVE",
"733 468 CURVE",
"746 457 OFFCURVE",
"777 434 OFFCURVE",
"795 434 CURVE",
"805 436 OFFCURVE",
"817 443 OFFCURVE",
"817 454 CURVE",
"815 463 OFFCURVE",
"812 464 OFFCURVE",
"803 464 CURVE",
"797 461 LINE",
"784 461 OFFCURVE",
"780 463 OFFCURVE",
"770 472 CURVE SMOOTH",
"737 503 OFFCURVE",
"716 590 OFFCURVE",
"675 590 CURVE",
"670 589 OFFCURVE",
"654 577 OFFCURVE",
"656 572 CURVE SMOOTH",
"666 544 OFFCURVE",
"676 522 OFFCURVE",
"682 487 CURVE SMOOTH",
"703 367 OFFCURVE",
"614 -21 OFFCURVE",
"488 -21 CURVE SMOOTH",
"360 -21 OFFCURVE",
"327 381 OFFCURVE",
"340 472 CURVE SMOOTH",
"343 490 OFFCURVE",
"345 527 OFFCURVE",
"351 542 CURVE",
"353 550 OFFCURVE",
"340 554 OFFCURVE",
"326 554 CURVE SMOOTH",
"310 554 OFFCURVE",
"291 549 OFFCURVE",
"288 542 CURVE SMOOTH",
"260 472 OFFCURVE",
"190 414 OFFCURVE",
"134 406 CURVE SMOOTH",
"120 405 OFFCURVE",
"118 388 OFFCURVE",
"133 389 CURVE SMOOTH",
"173 393 OFFCURVE",
"222 409 OFFCURVE",
"260 443 CURVE"
);
}
);
width = 766;
}
);
note = Nacute;
unicode = 0143;
},
{
color = 3;
glyphname = Ncaron;
lastChange = "2021-04-21 15:13:23 +0000";
layers = (
{
hints = (
{
horizontal = 1;
place = "{63, 34}";
type = Stem;
},
{
horizontal = 1;
place = "{245, 23}";
type = Stem;
},
{
place = "{-51, 34}";
type = Stem;
},
{
place = "{423, 51}";
type = Stem;
},
{
place = "{487, 46}";
type = Stem;
}
);
layerId = "BDD3FA2A-F197-48C4-9241-A354346F8EDC";
paths = (
{
closed = 1;
nodes = (
"562 617 OFFCURVE",
"634 688 OFFCURVE",
"651 702 CURVE",
"658 705 OFFCURVE",
"662 714 OFFCURVE",
"662 719 CURVE SMOOTH",
"662 721 OFFCURVE",
"661 722 OFFCURVE",
"659 722 CURVE SMOOTH",
"638 722 OFFCURVE",
"586 670 OFFCURVE",
"556 651 CURVE",
"534 676 OFFCURVE",
"462 726 OFFCURVE",
"466 726 CURVE",
"462 726 OFFCURVE",
"461 723 OFFCURVE",
"461 719 CURVE SMOOTH",
"461 700 OFFCURVE",
"528 622 OFFCURVE",
"544 616 CURVE"
);
},
{
closed = 1;
nodes = (
"223 321 OFFCURVE",
"188 209 OFFCURVE",
"131 100 CURVE SMOOTH",
"91 27 OFFCURVE",
"10 -100 OFFCURVE",
"-86 -100 CURVE SMOOTH",
"-97 -100 OFFCURVE",
"-109 -99 OFFCURVE",
"-117 -96 CURVE",
"-135 -92 OFFCURVE",
"-146 -81 OFFCURVE",
"-151 -63 CURVE SMOOTH",
"-155 -50 OFFCURVE",
"-159 -45 OFFCURVE",
"-162 -45 CURVE SMOOTH",
"-167 -45 OFFCURVE",
"-170 -57 OFFCURVE",
"-167 -67 CURVE SMOOTH",
"-160 -96 OFFCURVE",
"-143 -113 OFFCURVE",
"-117 -122 CURVE SMOOTH",
"-107 -125 OFFCURVE",
"-97 -126 OFFCURVE",
"-86 -126 CURVE SMOOTH",
"26 -126 OFFCURVE",
"112 10 OFFCURVE",
"160 95 CURVE SMOOTH",
"212 190 OFFCURVE",
"249 281 OFFCURVE",
"289 386 CURVE",
"289 212 OFFCURVE",
"326 -54 OFFCURVE",
"481 -54 CURVE SMOOTH",
"619 -54 OFFCURVE",
"745 295 OFFCURVE",
"733 468 CURVE",
"746 457 OFFCURVE",
"777 434 OFFCURVE",
"795 434 CURVE",
"805 436 OFFCURVE",
"817 443 OFFCURVE",
"817 454 CURVE",
"815 463 OFFCURVE",
"812 464 OFFCURVE",
"803 464 CURVE",
"797 461 LINE",
"784 461 OFFCURVE",
"780 463 OFFCURVE",
"770 472 CURVE SMOOTH",
"737 503 OFFCURVE",
"716 590 OFFCURVE",
"675 590 CURVE",
"670 589 OFFCURVE",
"654 577 OFFCURVE",
"656 572 CURVE SMOOTH",
"666 544 OFFCURVE",
"676 522 OFFCURVE",
"682 487 CURVE SMOOTH",
"703 367 OFFCURVE",
"614 -21 OFFCURVE",
"488 -21 CURVE SMOOTH",
"360 -21 OFFCURVE",
"327 381 OFFCURVE",
"340 472 CURVE SMOOTH",
"343 490 OFFCURVE",
"345 527 OFFCURVE",
"351 542 CURVE",
"353 550 OFFCURVE",
"340 554 OFFCURVE",
"326 554 CURVE SMOOTH",
"310 554 OFFCURVE",
"291 549 OFFCURVE",
"288 542 CURVE SMOOTH",
"260 472 OFFCURVE",
"190 414 OFFCURVE",
"134 406 CURVE SMOOTH",
"120 405 OFFCURVE",
"118 388 OFFCURVE",
"133 389 CURVE SMOOTH",
"173 393 OFFCURVE",
"222 409 OFFCURVE",
"260 443 CURVE"
);
}
);
width = 766;
}
);
note = Ncaron;
unicode = 0147;
},
{
color = 3;
glyphname = Ncommaaccent;
lastChange = "2021-04-21 15:13:23 +0000";
layers = (
{
hints = (
{
horizontal = 1;
place = "{-267, 171}";
type = Stem;
},
{
horizontal = 1;
place = "{63, 34}";
type = Stem;
},
{
horizontal = 1;
place = "{245, 23}";
type = Stem;
},
{
place = "{-51, 34}";
type = Stem;
},
{
place = "{204, 115}";
type = Stem;
},
{
place = "{423, 51}";
type = Stem;
},
{
place = "{487, 46}";
type = Stem;
}
);
layerId = "BDD3FA2A-F197-48C4-9241-A354346F8EDC";
paths = (
{
closed = 1;
nodes = (
"223 321 OFFCURVE",
"188 209 OFFCURVE",
"131 100 CURVE SMOOTH",
"91 27 OFFCURVE",
"10 -100 OFFCURVE",
"-86 -100 CURVE SMOOTH",
"-97 -100 OFFCURVE",
"-109 -99 OFFCURVE",
"-117 -96 CURVE",
"-135 -92 OFFCURVE",
"-146 -81 OFFCURVE",
"-151 -63 CURVE SMOOTH",
"-155 -50 OFFCURVE",
"-159 -45 OFFCURVE",
"-162 -45 CURVE SMOOTH",
"-167 -45 OFFCURVE",
"-170 -57 OFFCURVE",
"-167 -67 CURVE SMOOTH",
"-160 -96 OFFCURVE",
"-143 -113 OFFCURVE",
"-117 -122 CURVE SMOOTH",
"-107 -125 OFFCURVE",
"-97 -126 OFFCURVE",
"-86 -126 CURVE SMOOTH",
"26 -126 OFFCURVE",
"112 10 OFFCURVE",
"160 95 CURVE SMOOTH",
"212 190 OFFCURVE",
"249 281 OFFCURVE",
"289 386 CURVE",
"289 212 OFFCURVE",
"326 -54 OFFCURVE",
"481 -54 CURVE SMOOTH",
"619 -54 OFFCURVE",
"745 295 OFFCURVE",
"733 468 CURVE",
"746 457 OFFCURVE",
"777 434 OFFCURVE",
"795 434 CURVE",
"805 436 OFFCURVE",
"817 443 OFFCURVE",
"817 454 CURVE",
"815 463 OFFCURVE",
"812 464 OFFCURVE",
"803 464 CURVE",
"797 461 LINE",
"784 461 OFFCURVE",
"780 463 OFFCURVE",
"770 472 CURVE SMOOTH",
"737 503 OFFCURVE",
"716 590 OFFCURVE",
"675 590 CURVE",
"670 589 OFFCURVE",
"654 577 OFFCURVE",
"656 572 CURVE SMOOTH",
"666 544 OFFCURVE",
"676 522 OFFCURVE",
"682 487 CURVE SMOOTH",
"703 367 OFFCURVE",
"614 -21 OFFCURVE",
"488 -21 CURVE SMOOTH",
"360 -21 OFFCURVE",
"327 381 OFFCURVE",
"340 472 CURVE SMOOTH",
"343 490 OFFCURVE",
"345 527 OFFCURVE",
"351 542 CURVE",
"353 550 OFFCURVE",
"340 554 OFFCURVE",
"326 554 CURVE SMOOTH",
"310 554 OFFCURVE",
"291 549 OFFCURVE",
"288 542 CURVE SMOOTH",
"260 472 OFFCURVE",
"190 414 OFFCURVE",
"134 406 CURVE SMOOTH",
"120 405 OFFCURVE",
"118 388 OFFCURVE",
"133 389 CURVE SMOOTH",
"173 393 OFFCURVE",
"222 409 OFFCURVE",
"260 443 CURVE"
);
},
{
closed = 1;
nodes = (
"318 -117 OFFCURVE",
"309 -96 OFFCURVE",
"293 -96 CURVE SMOOTH",
"288 -96 OFFCURVE",
"270 -94 OFFCURVE",
"266 -106 CURVE SMOOTH",
"259 -129 OFFCURVE",
"281 -124 OFFCURVE",
"270 -157 CURVE SMOOTH",
"261 -187 OFFCURVE",
"244 -210 OFFCURVE",
"226 -232 CURVE SMOOTH",
"214 -245 OFFCURVE",
"204 -257 OFFCURVE",
"204 -259 CURVE SMOOTH",
"204 -262 OFFCURVE",
"204 -272 OFFCURVE",
"215 -265 CURVE SMOOTH",
"238 -249 OFFCURVE",
"318 -155 OFFCURVE",
"318 -128 CURVE SMOOTH"
);
}
);
width = 565;
}
);
note = Ncommaaccent;
},
{
color = 3;
glyphname = Eng;
lastChange = "2021-04-21 15:13:23 +0000";
layers = (
{
hints = (
{
horizontal = 1;
place = "{-316, 238}";
type = Stem;
},
{
horizontal = 1;
place = "{-16, 34}";
type = Stem;
},
{
horizontal = 1;
place = "{526, 33}";
type = Stem;
},
{
place = "{7, 250}";
type = Stem;
},
{
place = "{547, 55}";
type = Stem;
},
{
horizontal = 1;
place = "{0, 21}";
target = up;
type = BottomGhost;
},
{
place = "{96, 35}";
type = Stem;
},
{
place = "{214, 44}";
type = Stem;
}
);
layerId = "BDD3FA2A-F197-48C4-9241-A354346F8EDC";
paths = (
{
closed = 1;
nodes = (
"543 487 OFFCURVE",
"547 449 OFFCURVE",
"547 409 CURVE SMOOTH",
"547 228 OFFCURVE",
"486 18 OFFCURVE",
"383 18 CURVE SMOOTH",
"265 18 OFFCURVE",
"257 262 OFFCURVE",
"257 412 CURVE SMOOTH",
"257 447 OFFCURVE",
"260 478 OFFCURVE",
"260 510 CURVE SMOOTH",
"260 526 OFFCURVE",
"232 544 OFFCURVE",
"216 544 CURVE SMOOTH",
"193 544 OFFCURVE",
"7 88 OFFCURVE",
"7 9 CURVE",
"9 2 OFFCURVE",
"12 0 OFFCURVE",
"17 0 CURVE SMOOTH",
"23 0 OFFCURVE",
"31 4 OFFCURVE",
"34 9 CURVE",
"56 142 OFFCURVE",
"140 289 OFFCURVE",
"218 439 CURVE",
"216 406 OFFCURVE",
"214 373 OFFCURVE",
"214 340 CURVE SMOOTH",
"214 199 OFFCURVE",
"240 -16 OFFCURVE",
"367 -16 CURVE SMOOTH",
"405 -16 OFFCURVE",
"440 9 OFFCURVE",
"472 46 CURVE",
"434 -48 OFFCURVE",
"303 -296 OFFCURVE",
"199 -296 CURVE SMOOTH",
"150 -296 OFFCURVE",
"132 -266 OFFCURVE",
"132 -228 CURVE SMOOTH",
"132 -181 OFFCURVE",
"160 -121 OFFCURVE",
"190 -94 CURVE",
"193 -92 OFFCURVE",
"194 -89 OFFCURVE",
"194 -87 CURVE SMOOTH",
"194 -82 OFFCURVE",
"190 -78 OFFCURVE",
"185 -78 CURVE SMOOTH",
"146 -78 OFFCURVE",
"105 -161 OFFCURVE",
"99 -190 CURVE",
"96 -199 OFFCURVE",
"96 -207 OFFCURVE",
"96 -216 CURVE SMOOTH",
"96 -268 OFFCURVE",
"129 -316 OFFCURVE",
"198 -316 CURVE SMOOTH",
"290 -316 OFFCURVE",
"378 -201 OFFCURVE",
"423 -131 CURVE SMOOTH",
"545 61 OFFCURVE",
"601 255 OFFCURVE",
"601 403 CURVE SMOOTH",
"601 492 OFFCURVE",
"576 559 OFFCURVE",
"512 559 CURVE SMOOTH",
"497 559 OFFCURVE",
"460 548 OFFCURVE",
"460 532 CURVE SMOOTH",
"460 527 OFFCURVE",
"461 526 OFFCURVE",
"465 526 CURVE SMOOTH",
"473 526 OFFCURVE",
"488 533 OFFCURVE",
"499 533 CURVE SMOOTH",
"514 533 OFFCURVE",
"526 525 OFFCURVE",
"533 509 CURVE SMOOTH"
);
}
);
width = 508;
}
);
note = Eng;
unicode = 014A;
},
{
glyphname = Ntilde;
layers = (
{
hints = (
{
horizontal = 1;
place = "{63, 34}";
type = Stem;
},
{
horizontal = 1;
place = "{245, 23}";
type = Stem;
},
{
horizontal = 1;
place = "{687, 44}";
type = Stem;
},
{
place = "{-51, 34}";
type = Stem;
},
{
place = "{422, 262}";
type = Stem;
},
{
place = "{423, 51}";
type = Stem;
},
{
place = "{487, 46}";
type = Stem;
}
);
layerId = "BDD3FA2A-F197-48C4-9241-A354346F8EDC";
paths = (
{
closed = 1;
nodes = (
"684 717 OFFCURVE",
"684 717 OFFCURVE",
"684 719 CURVE SMOOTH",
"684 721 OFFCURVE",
"680 722 OFFCURVE",
"675 722 CURVE SMOOTH",
"661 722 OFFCURVE",
"653 687 OFFCURVE",
"628 687 CURVE SMOOTH",
"590 687 OFFCURVE",
"534 731 OFFCURVE",
"511 731 CURVE SMOOTH",
"475 731 OFFCURVE",
"448 692 OFFCURVE",
"422 656 CURVE",
"422 655 LINE SMOOTH",
"422 653 OFFCURVE",
"427 650 OFFCURVE",
"432 650 CURVE SMOOTH",
"438 650 OFFCURVE",
"476 688 OFFCURVE",
"500 688 CURVE SMOOTH",
"537 688 OFFCURVE",
"573 656 OFFCURVE",
"610 656 CURVE SMOOTH",
"641 656 OFFCURVE",
"670 684 OFFCURVE",
"684 717 CURVE"
);
},
{
closed = 1;
nodes = (
"223 321 OFFCURVE",
"188 209 OFFCURVE",
"131 100 CURVE SMOOTH",
"91 27 OFFCURVE",
"10 -100 OFFCURVE",
"-86 -100 CURVE SMOOTH",
"-97 -100 OFFCURVE",
"-109 -99 OFFCURVE",
"-117 -96 CURVE",
"-135 -92 OFFCURVE",
"-146 -81 OFFCURVE",
"-151 -63 CURVE SMOOTH",
"-155 -50 OFFCURVE",
"-159 -45 OFFCURVE",
"-162 -45 CURVE SMOOTH",
"-167 -45 OFFCURVE",
"-170 -57 OFFCURVE",
"-167 -67 CURVE SMOOTH",
"-160 -96 OFFCURVE",
"-143 -113 OFFCURVE",
"-117 -122 CURVE SMOOTH",
"-107 -125 OFFCURVE",
"-97 -126 OFFCURVE",
"-86 -126 CURVE SMOOTH",
"26 -126 OFFCURVE",
"112 10 OFFCURVE",
"160 95 CURVE SMOOTH",
"212 190 OFFCURVE",
"249 281 OFFCURVE",
"289 386 CURVE",
"289 212 OFFCURVE",
"326 -54 OFFCURVE",
"481 -54 CURVE SMOOTH",
"619 -54 OFFCURVE",
"745 295 OFFCURVE",
"733 468 CURVE",
"746 457 OFFCURVE",
"777 434 OFFCURVE",
"795 434 CURVE",
"805 436 OFFCURVE",
"817 443 OFFCURVE",
"817 454 CURVE",
"815 463 OFFCURVE",
"812 464 OFFCURVE",
"803 464 CURVE",
"797 461 LINE",
"784 461 OFFCURVE",
"780 463 OFFCURVE",
"770 472 CURVE SMOOTH",
"737 503 OFFCURVE",
"716 590 OFFCURVE",
"675 590 CURVE",
"670 589 OFFCURVE",
"654 577 OFFCURVE",
"656 572 CURVE SMOOTH",
"666 544 OFFCURVE",
"676 522 OFFCURVE",
"682 487 CURVE SMOOTH",
"703 367 OFFCURVE",
"614 -21 OFFCURVE",
"488 -21 CURVE SMOOTH",
"360 -21 OFFCURVE",
"327 381 OFFCURVE",
"340 472 CURVE SMOOTH",
"343 490 OFFCURVE",
"345 527 OFFCURVE",
"351 542 CURVE",
"353 550 OFFCURVE",
"340 554 OFFCURVE",
"326 554 CURVE SMOOTH",
"310 554 OFFCURVE",
"291 549 OFFCURVE",
"288 542 CURVE SMOOTH",
"260 472 OFFCURVE",
"190 414 OFFCURVE",
"134 406 CURVE SMOOTH",
"120 405 OFFCURVE",
"118 388 OFFCURVE",
"133 389 CURVE SMOOTH",
"173 393 OFFCURVE",
"222 409 OFFCURVE",
"260 443 CURVE"
);
}
);
width = 766;
}
);
note = Ntilde;
unicode = 00D1;
},
{
glyphname = O;
layers = (
{
hints = (
{
horizontal = 1;
place = "{-116, 38}";
type = Stem;
},
{
horizontal = 1;
place = "{576, 31}";
type = Stem;
},
{
place = "{94, 41}";
type = Stem;
},
{
place = "{559, 48}";
type = Stem;
}
);
layerId = "BDD3FA2A-F197-48C4-9241-A354346F8EDC";
paths = (
{
closed = 1;
nodes = (
"700 499 OFFCURVE",
"586 589 OFFCURVE",
"429 588 CURVE SMOOTH",
"255 588 OFFCURVE",
"43 436 OFFCURVE",
"45 251 CURVE SMOOTH",
"45 239 OFFCURVE",
"52 226 OFFCURVE",
"57 226 CURVE SMOOTH",
"60 226 OFFCURVE",
"62 229 OFFCURVE",
"62 237 CURVE SMOOTH",
"70 329 OFFCURVE",
"139 428 OFFCURVE",
"227 490 CURVE SMOOTH",
"278 527 OFFCURVE",
"353 559 OFFCURVE",
"427 564 CURVE SMOOTH",
"560 573 OFFCURVE",
"648 510 OFFCURVE",
"651 376 CURVE SMOOTH",
"655 206 OFFCURVE",
"498 -10 OFFCURVE",
"365 -40 CURVE SMOOTH",
"340 -46 OFFCURVE",
"318 -48 OFFCURVE",
"298 -48 CURVE SMOOTH",
"41 -48 OFFCURVE",
"122 377 OFFCURVE",
"387 439 CURVE SMOOTH",
"404 443 OFFCURVE",
"428 442 OFFCURVE",
"448 434 CURVE SMOOTH",
"454 432 OFFCURVE",
"460 427 OFFCURVE",
"464 427 CURVE SMOOTH",
"467 427 OFFCURVE",
"470 431 OFFCURVE",
"456 445 CURVE SMOOTH",
"436 465 OFFCURVE",
"407 472 OFFCURVE",
"378 472 CURVE SMOOTH",
"362 472 OFFCURVE",
"347 470 OFFCURVE",
"333 467 CURVE SMOOTH",
"13 393 OFFCURVE",
"32 -70 OFFCURVE",
"309 -70 CURVE SMOOTH",
"330 -70 OFFCURVE",
"352 -68 OFFCURVE",
"376 -62 CURVE SMOOTH",
"528 -27 OFFCURVE",
"700 135 OFFCURVE",
"700 340 CURVE SMOOTH"
);
}
);
width = 689;
}
);
note = O;
unicode = 004F;
},
{
glyphname = Oacute;
layers = (
{
hints = (
{
horizontal = 1;
place = "{-116, 38}";
type = Stem;
},
{
horizontal = 1;
place = "{293, 27}";
type = Stem;
},
{
horizontal = 1;
place = "{576, 31}";
type = Stem;
},
{
horizontal = 1;
place = "{632, -20}";
target = down;
type = TopGhost;
},
{
place = "{94, 41}";
type = Stem;
},
{
place = "{328, 35}";
type = Stem;
},
{
place = "{559, 48}";
type = Stem;
},
{
place = "{528, 34}";
type = Stem;
}
);
layerId = "BDD3FA2A-F197-48C4-9241-A354346F8EDC";
paths = (
{
closed = 1;
nodes = (
"647 725 LINE SMOOTH",
"654 731 OFFCURVE",
"654 748 OFFCURVE",
"641 756 CURVE",
"636 758 OFFCURVE",
"623 765 OFFCURVE",
"612 760 CURVE",
"594 736 OFFCURVE",
"565 720 OFFCURVE",
"539 698 CURVE SMOOTH",
"528 689 OFFCURVE",
"487 662 OFFCURVE",
"486 660 CURVE",
"482 656 OFFCURVE",
"477 649 OFFCURVE",
"489 649 CURVE SMOOTH",
"506 650 OFFCURVE",
"625 706 OFFCURVE",
"645 723 CURVE SMOOTH"
);
},
{
closed = 1;
nodes = (
"700 499 OFFCURVE",
"586 589 OFFCURVE",
"429 588 CURVE SMOOTH",
"255 588 OFFCURVE",
"43 436 OFFCURVE",
"45 251 CURVE SMOOTH",
"45 239 OFFCURVE",
"52 226 OFFCURVE",
"57 226 CURVE SMOOTH",
"60 226 OFFCURVE",
"62 229 OFFCURVE",
"62 237 CURVE SMOOTH",
"70 329 OFFCURVE",
"139 428 OFFCURVE",
"227 490 CURVE SMOOTH",
"278 527 OFFCURVE",
"353 559 OFFCURVE",
"427 564 CURVE SMOOTH",
"560 573 OFFCURVE",
"648 510 OFFCURVE",
"651 376 CURVE SMOOTH",
"655 206 OFFCURVE",
"498 -10 OFFCURVE",
"365 -40 CURVE SMOOTH",
"340 -46 OFFCURVE",
"318 -48 OFFCURVE",
"298 -48 CURVE SMOOTH",
"41 -48 OFFCURVE",
"122 377 OFFCURVE",
"387 439 CURVE SMOOTH",
"404 443 OFFCURVE",
"428 442 OFFCURVE",
"448 434 CURVE SMOOTH",
"454 432 OFFCURVE",
"460 427 OFFCURVE",
"464 427 CURVE SMOOTH",
"467 427 OFFCURVE",
"470 431 OFFCURVE",
"456 445 CURVE SMOOTH",
"436 465 OFFCURVE",
"407 472 OFFCURVE",
"378 472 CURVE SMOOTH",
"362 472 OFFCURVE",
"347 470 OFFCURVE",
"333 467 CURVE SMOOTH",
"13 393 OFFCURVE",
"32 -70 OFFCURVE",
"309 -70 CURVE SMOOTH",
"330 -70 OFFCURVE",
"352 -68 OFFCURVE",
"376 -62 CURVE SMOOTH",
"528 -27 OFFCURVE",
"700 135 OFFCURVE",
"700 340 CURVE SMOOTH"
);
}
);
width = 689;
}
);
note = Oacute;
unicode = 00D3;
},
{
color = 3;
glyphname = Obreve;
lastChange = "2021-04-21 15:13:23 +0000";
layers = (
{
hints = (
{
horizontal = 1;
place = "{-116, 38}";
type = Stem;
},
{
horizontal = 1;
place = "{576, 31}";
type = Stem;
},
{
horizontal = 1;
place = "{654, 27}";
type = Stem;
},
{
place = "{94, 41}";
type = Stem;
},
{
place = "{384, 253}";
type = Stem;
},
{
place = "{559, 48}";
type = Stem;
}
);
layerId = "BDD3FA2A-F197-48C4-9241-A354346F8EDC";
paths = (
{
closed = 1;
nodes = (
"593 760 OFFCURVE",
"592 761 OFFCURVE",
"590 761 CURVE SMOOTH",
"589 761 OFFCURVE",
"588 761 OFFCURVE",
"588 760 CURVE",
"570 706 OFFCURVE",
"532 683 OFFCURVE",
"498 683 CURVE SMOOTH",
"462 683 OFFCURVE",
"434 706 OFFCURVE",
"434 749 CURVE SMOOTH",
"434 755 OFFCURVE",
"427 760 OFFCURVE",
"421 760 CURVE SMOOTH",
"412 760 OFFCURVE",
"406 749 OFFCURVE",
"406 730 CURVE SMOOTH",
"406 683 OFFCURVE",
"439 662 OFFCURVE",
"478 662 CURVE SMOOTH",
"526 662 OFFCURVE",
"584 694 OFFCURVE",
"598 753 CURVE SMOOTH",
"598 754 OFFCURVE",
"597 759 OFFCURVE",
"593 760 CURVE"
);
},
{
closed = 1;
nodes = (
"700 499 OFFCURVE",
"586 589 OFFCURVE",
"429 588 CURVE SMOOTH",
"255 588 OFFCURVE",
"43 436 OFFCURVE",
"45 251 CURVE SMOOTH",
"45 239 OFFCURVE",
"52 226 OFFCURVE",
"57 226 CURVE SMOOTH",
"60 226 OFFCURVE",
"62 229 OFFCURVE",
"62 237 CURVE SMOOTH",
"70 329 OFFCURVE",
"139 428 OFFCURVE",
"227 490 CURVE SMOOTH",
"278 527 OFFCURVE",
"353 559 OFFCURVE",
"427 564 CURVE SMOOTH",
"560 573 OFFCURVE",
"648 510 OFFCURVE",
"651 376 CURVE SMOOTH",
"655 206 OFFCURVE",
"498 -10 OFFCURVE",
"365 -40 CURVE SMOOTH",
"340 -46 OFFCURVE",
"318 -48 OFFCURVE",
"298 -48 CURVE SMOOTH",
"41 -48 OFFCURVE",
"122 377 OFFCURVE",
"387 439 CURVE SMOOTH",
"404 443 OFFCURVE",
"428 442 OFFCURVE",
"448 434 CURVE SMOOTH",
"454 432 OFFCURVE",
"460 427 OFFCURVE",
"464 427 CURVE SMOOTH",
"467 427 OFFCURVE",
"470 431 OFFCURVE",
"456 445 CURVE SMOOTH",
"436 465 OFFCURVE",
"407 472 OFFCURVE",
"378 472 CURVE SMOOTH",
"362 472 OFFCURVE",
"347 470 OFFCURVE",
"333 467 CURVE SMOOTH",
"13 393 OFFCURVE",
"32 -70 OFFCURVE",
"309 -70 CURVE SMOOTH",
"330 -70 OFFCURVE",
"352 -68 OFFCURVE",
"376 -62 CURVE SMOOTH",
"528 -27 OFFCURVE",
"700 135 OFFCURVE",
"700 340 CURVE SMOOTH"
);
}
);
width = 599;
}
);
note = Obreve;
unicode = 014E;
},
{
glyphname = Ocircumflex;
layers = (
{
hints = (
{
horizontal = 1;
place = "{-116, 38}";
type = Stem;
},
{
horizontal = 1;
place = "{576, 31}";
type = Stem;
},
{
horizontal = 1;
place = "{648, 110}";
type = Stem;
},
{
place = "{94, 41}";
type = Stem;
},
{
place = "{559, 48}";
type = Stem;
},
{
place = "{417, 200}";
type = Stem;
}
);
layerId = "BDD3FA2A-F197-48C4-9241-A354346F8EDC";
paths = (
{
closed = 1;
nodes = (
"516 756 OFFCURVE",
"444 686 OFFCURVE",
"427 672 CURVE SMOOTH",
"422 667 OFFCURVE",
"416 659 OFFCURVE",
"416 654 CURVE SMOOTH",
"416 653 OFFCURVE",
"417 650 OFFCURVE",
"420 650 CURVE SMOOTH",
"440 650 OFFCURVE",
"493 704 OFFCURVE",
"523 723 CURVE",
"545 699 OFFCURVE",
"616 648 OFFCURVE",
"612 648 CURVE",
"616 648 OFFCURVE",
"617 651 OFFCURVE",
"617 655 CURVE SMOOTH",
"617 676 OFFCURVE",
"552 751 OFFCURVE",
"536 758 CURVE"
);
},
{
closed = 1;
nodes = (
"700 499 OFFCURVE",
"586 589 OFFCURVE",
"429 588 CURVE SMOOTH",
"255 588 OFFCURVE",
"43 436 OFFCURVE",
"45 251 CURVE SMOOTH",
"45 239 OFFCURVE",
"52 226 OFFCURVE",
"57 226 CURVE SMOOTH",
"60 226 OFFCURVE",
"62 229 OFFCURVE",
"62 237 CURVE SMOOTH",
"70 329 OFFCURVE",
"139 428 OFFCURVE",
"227 490 CURVE SMOOTH",
"278 527 OFFCURVE",
"353 559 OFFCURVE",
"427 564 CURVE SMOOTH",
"560 573 OFFCURVE",
"648 510 OFFCURVE",
"651 376 CURVE SMOOTH",
"655 206 OFFCURVE",
"498 -10 OFFCURVE",
"365 -40 CURVE SMOOTH",
"340 -46 OFFCURVE",
"318 -48 OFFCURVE",
"298 -48 CURVE SMOOTH",
"41 -48 OFFCURVE",
"122 377 OFFCURVE",
"387 439 CURVE SMOOTH",
"404 443 OFFCURVE",
"428 442 OFFCURVE",
"448 434 CURVE SMOOTH",
"454 432 OFFCURVE",
"460 427 OFFCURVE",
"464 427 CURVE SMOOTH",
"467 427 OFFCURVE",
"470 431 OFFCURVE",
"456 445 CURVE SMOOTH",
"436 465 OFFCURVE",
"407 472 OFFCURVE",
"378 472 CURVE SMOOTH",
"362 472 OFFCURVE",
"347 470 OFFCURVE",
"333 467 CURVE SMOOTH",
"13 393 OFFCURVE",
"32 -70 OFFCURVE",
"309 -70 CURVE SMOOTH",
"330 -70 OFFCURVE",
"352 -68 OFFCURVE",
"376 -62 CURVE SMOOTH",
"528 -27 OFFCURVE",
"700 135 OFFCURVE",
"700 340 CURVE SMOOTH"
);
}
);
width = 689;
}
);
note = Ocircumflex;
unicode = 00D4;
},
